G04 #@! TF.GenerationSoftware,KiCad,Pcbnew,7.0.5*
G04 #@! TF.CreationDate,2023-10-03T09:42:01+03:00*
G04 #@! TF.ProjectId,Pico_mod,5069636f-5f6d-46f6-942e-6b696361645f,rev?*
G04 #@! TF.SameCoordinates,Original*
G04 #@! TF.FileFunction,Copper,L1,Top*
G04 #@! TF.FilePolarity,Positive*
%FSLAX46Y46*%
G04 Gerber Fmt 4.6, Leading zero omitted, Abs format (unit mm)*
G04 Created by KiCad (PCBNEW 7.0.5) date 2023-10-03 09:42:01*
%MOMM*%
%LPD*%
G01*
G04 APERTURE LIST*
G04 Aperture macros list*
%AMRoundRect*
0 Rectangle with rounded corners*
0 $1 Rounding radius*
0 $2 $3 $4 $5 $6 $7 $8 $9 X,Y pos of 4 corners*
0 Add a 4 corners polygon primitive as box body*
4,1,4,$2,$3,$4,$5,$6,$7,$8,$9,$2,$3,0*
0 Add four circle primitives for the rounded corners*
1,1,$1+$1,$2,$3*
1,1,$1+$1,$4,$5*
1,1,$1+$1,$6,$7*
1,1,$1+$1,$8,$9*
0 Add four rect primitives between the rounded corners*
20,1,$1+$1,$2,$3,$4,$5,0*
20,1,$1+$1,$4,$5,$6,$7,0*
20,1,$1+$1,$6,$7,$8,$9,0*
20,1,$1+$1,$8,$9,$2,$3,0*%
G04 Aperture macros list end*
G04 #@! TA.AperFunction,SMDPad,CuDef*
%ADD10RoundRect,0.200000X-0.525000X-0.200000X0.525000X-0.200000X0.525000X0.200000X-0.525000X0.200000X0*%
G04 #@! TD*
G04 #@! TA.AperFunction,SMDPad,CuDef*
%ADD11RoundRect,0.200000X0.525000X0.200000X-0.525000X0.200000X-0.525000X-0.200000X0.525000X-0.200000X0*%
G04 #@! TD*
G04 #@! TA.AperFunction,SMDPad,CuDef*
%ADD12RoundRect,0.160000X-0.197500X-0.160000X0.197500X-0.160000X0.197500X0.160000X-0.197500X0.160000X0*%
G04 #@! TD*
G04 #@! TA.AperFunction,SMDPad,CuDef*
%ADD13RoundRect,0.155000X-0.212500X-0.155000X0.212500X-0.155000X0.212500X0.155000X-0.212500X0.155000X0*%
G04 #@! TD*
G04 #@! TA.AperFunction,ComponentPad*
%ADD14O,1.700000X1.700000*%
G04 #@! TD*
G04 #@! TA.AperFunction,ComponentPad*
%ADD15R,1.700000X1.700000*%
G04 #@! TD*
G04 #@! TA.AperFunction,SMDPad,CuDef*
%ADD16R,1.560000X0.650000*%
G04 #@! TD*
G04 #@! TA.AperFunction,SMDPad,CuDef*
%ADD17RoundRect,0.160000X0.197500X0.160000X-0.197500X0.160000X-0.197500X-0.160000X0.197500X-0.160000X0*%
G04 #@! TD*
G04 #@! TA.AperFunction,SMDPad,CuDef*
%ADD18RoundRect,0.262500X-0.587500X-0.262500X0.587500X-0.262500X0.587500X0.262500X-0.587500X0.262500X0*%
G04 #@! TD*
G04 #@! TA.AperFunction,ViaPad*
%ADD19C,0.800000*%
G04 #@! TD*
G04 #@! TA.AperFunction,Conductor*
%ADD20C,0.250000*%
G04 #@! TD*
G04 #@! TA.AperFunction,Conductor*
%ADD21C,0.400000*%
G04 #@! TD*
G04 #@! TA.AperFunction,Profile*
%ADD22C,0.100000*%
G04 #@! TD*
G04 APERTURE END LIST*
D10*
X8400000Y-12295000D03*
X8400000Y-14445000D03*
X12600000Y-14445000D03*
X12600000Y-12295000D03*
D11*
X12600000Y-24445000D03*
X12600000Y-22295000D03*
X8400000Y-22295000D03*
X8400000Y-24445000D03*
D10*
X8400000Y-32295000D03*
X8400000Y-34445000D03*
X12600000Y-34445000D03*
X12600000Y-32295000D03*
X8400000Y-42295000D03*
X8400000Y-44445000D03*
X12600000Y-44445000D03*
X12600000Y-42295000D03*
D12*
X5080000Y-12700000D03*
X6275000Y-12700000D03*
D13*
X15012500Y-21055000D03*
X16147500Y-21055000D03*
D14*
X1610000Y-1370000D03*
X1610000Y-3910000D03*
D15*
X1610000Y-6450000D03*
D14*
X1610000Y-8990000D03*
X1610000Y-11530000D03*
X1610000Y-14070000D03*
X1610000Y-16610000D03*
D15*
X1610000Y-19150000D03*
D14*
X1610000Y-21690000D03*
X1610000Y-24230000D03*
X1610000Y-26770000D03*
X1610000Y-29310000D03*
D15*
X1610000Y-31850000D03*
D14*
X1610000Y-34390000D03*
X1610000Y-36930000D03*
X1610000Y-39470000D03*
X1610000Y-42010000D03*
D15*
X1610000Y-44550000D03*
D14*
X1610000Y-47090000D03*
X1610000Y-49630000D03*
D12*
X5080000Y-44450000D03*
X6275000Y-44450000D03*
D16*
X13802000Y-17504000D03*
X13802000Y-18454000D03*
X13802000Y-19404000D03*
X16502000Y-19404000D03*
X16502000Y-18454000D03*
X16502000Y-17504000D03*
D12*
X5080000Y-24130000D03*
X6275000Y-24130000D03*
D14*
X19390000Y-1370000D03*
X19390000Y-3910000D03*
D15*
X19390000Y-6450000D03*
D14*
X19390000Y-8990000D03*
X19390000Y-11530000D03*
X19390000Y-14070000D03*
X19390000Y-16610000D03*
D15*
X19390000Y-19150000D03*
D14*
X19390000Y-21690000D03*
X19390000Y-24230000D03*
X19390000Y-26770000D03*
X19390000Y-29310000D03*
D15*
X19390000Y-31850000D03*
D14*
X19390000Y-34390000D03*
X19390000Y-36930000D03*
X19390000Y-39470000D03*
X19390000Y-42010000D03*
D15*
X19390000Y-44550000D03*
D14*
X19390000Y-47090000D03*
X19390000Y-49630000D03*
D13*
X14945000Y-15975000D03*
X16080000Y-15975000D03*
D12*
X5080000Y-36830000D03*
X6275000Y-36830000D03*
D17*
X15326000Y-5600000D03*
X14131000Y-5600000D03*
D18*
X12100000Y-4727000D03*
X8900000Y-4727000D03*
X12100000Y-6377000D03*
X8900000Y-6377000D03*
D12*
X5080000Y-20320000D03*
X6275000Y-20320000D03*
D13*
X15012500Y-26135000D03*
X16147500Y-26135000D03*
D12*
X5584500Y-5600000D03*
X6779500Y-5600000D03*
X5080000Y-16510000D03*
X6275000Y-16510000D03*
X5080000Y-40640000D03*
X6275000Y-40640000D03*
D16*
X13802000Y-27725000D03*
X13802000Y-28675000D03*
X13802000Y-29625000D03*
X16502000Y-29625000D03*
X16502000Y-28675000D03*
X16502000Y-27725000D03*
D12*
X5155000Y-33020000D03*
X6350000Y-33020000D03*
D13*
X15012500Y-31215000D03*
X16147500Y-31215000D03*
D19*
X14224000Y-22352000D03*
X13720716Y-13711779D03*
X15200000Y-25000000D03*
X8500000Y-7682000D03*
X7300000Y-43400000D03*
X12192000Y-30988000D03*
X11684000Y-19812000D03*
X16100000Y-14300000D03*
X15748000Y-12700000D03*
X15500000Y-28700000D03*
X10160000Y-28700000D03*
X10160000Y-18500000D03*
X15500000Y-18500000D03*
D20*
X13802000Y-17311000D02*
X13802000Y-17504000D01*
X8178320Y-17504000D02*
X6776864Y-17504000D01*
X5577000Y-17007000D02*
X5080000Y-16510000D01*
X13938471Y-16981528D02*
X14831500Y-16088500D01*
X14557486Y-15748000D02*
X12417679Y-15748000D01*
X8178320Y-17504008D02*
G75*
G03*
X10298000Y-16626000I-20J2997708D01*
G01*
X14831504Y-15861496D02*
G75*
G03*
X14557486Y-15748000I-274004J-274004D01*
G01*
X12417679Y-15747992D02*
G75*
G03*
X10298000Y-16626000I21J-2997708D01*
G01*
X5577002Y-17006998D02*
G75*
G03*
X6776864Y-17504000I1199868J1199868D01*
G01*
X13938480Y-16981537D02*
G75*
G03*
X13802000Y-17311000I329420J-329463D01*
G01*
X14831500Y-16088500D02*
G75*
G03*
X14831500Y-15861500I-113500J113500D01*
G01*
X13422000Y-18454000D02*
X13802000Y-18454000D01*
X7300000Y-43400000D02*
X7355000Y-43400000D01*
X14224000Y-22352000D02*
X12657000Y-22352000D01*
X13850742Y-13745742D02*
X16080000Y-15975000D01*
X16465000Y-31532500D02*
X16147500Y-31215000D01*
X8900000Y-6999157D02*
X8900000Y-6377000D01*
X9445000Y-13400000D02*
X8400000Y-14445000D01*
X13768747Y-13711779D02*
X13720716Y-13711779D01*
X7355000Y-43400000D02*
X8400000Y-44445000D01*
X15072001Y-22130498D02*
X16147500Y-21055000D01*
X17231512Y-31850000D02*
X19390000Y-31850000D01*
X13720716Y-13711779D02*
X13408937Y-13400000D01*
X13182121Y-28675000D02*
X13802000Y-28675000D01*
X8500000Y-7682000D02*
X8700000Y-7482000D01*
X13408937Y-13400000D02*
X9445000Y-13400000D01*
X12192000Y-29665121D02*
X12192000Y-30988000D01*
X12657000Y-22352000D02*
X12600000Y-22295000D01*
X14224000Y-22352000D02*
X14537250Y-22352000D01*
X16147500Y-26135000D02*
X16147500Y-25947500D01*
X11684000Y-19812000D02*
X12773299Y-18722700D01*
X16147500Y-25947500D02*
X15200000Y-25000000D01*
X12192000Y-30988000D02*
X11857000Y-30988000D01*
X8900000Y-6377000D02*
X8900000Y-4727000D01*
X11857000Y-30988000D02*
X8400000Y-34445000D01*
X13422000Y-18453999D02*
G75*
G03*
X12773299Y-18722700I0J-917401D01*
G01*
X8699998Y-7481998D02*
G75*
G03*
X8900000Y-6999157I-482848J482848D01*
G01*
X12481994Y-28964994D02*
G75*
G03*
X12192000Y-29665121I700106J-700106D01*
G01*
X13182121Y-28675010D02*
G75*
G03*
X12482001Y-28965001I-21J-990090D01*
G01*
X16464996Y-31532504D02*
G75*
G03*
X17231512Y-31850000I766504J766504D01*
G01*
X13850710Y-13745773D02*
G75*
G03*
X13768747Y-13711779I-82010J-81927D01*
G01*
X14537250Y-22352020D02*
G75*
G03*
X15072001Y-22130498I-50J756320D01*
G01*
X13177130Y-21336000D02*
X14532802Y-21336000D01*
X5538000Y-19862000D02*
X5080000Y-20320000D01*
X13802000Y-19624250D02*
X13802000Y-19404000D01*
X14872000Y-20914500D02*
X13957740Y-20000240D01*
X8512869Y-19404000D02*
X6643709Y-19404000D01*
X10845000Y-20370000D02*
G75*
G03*
X8512869Y-19404000I-2332130J-2332130D01*
G01*
X14532802Y-21336001D02*
G75*
G03*
X14872000Y-21195500I-2J479701D01*
G01*
X6643709Y-19404005D02*
G75*
G03*
X5538001Y-19862001I-9J-1563695D01*
G01*
X14872000Y-21195500D02*
G75*
G03*
X14872000Y-20914500I-140500J140500D01*
G01*
X13802027Y-19624250D02*
G75*
G03*
X13957740Y-20000240I531673J-50D01*
G01*
X10844998Y-20370002D02*
G75*
G03*
X13177130Y-21336000I2332132J2332142D01*
G01*
X15012500Y-26135000D02*
X13996750Y-26135000D01*
X10637184Y-30002815D02*
X10608000Y-30032000D01*
X11714815Y-27401184D02*
X12262756Y-26853243D01*
X15012500Y-26135000D02*
X13936173Y-27211326D01*
X13802000Y-27535250D02*
X13802000Y-27725000D01*
X6703490Y-31471509D02*
X5155000Y-33020000D01*
X8807500Y-30600000D02*
X9236726Y-30600000D01*
X13996750Y-26135001D02*
G75*
G03*
X12262757Y-26853244I0J-2452239D01*
G01*
X9236726Y-30600011D02*
G75*
G03*
X10608000Y-30032000I-26J1939311D01*
G01*
X10637178Y-30002809D02*
G75*
G03*
X11176000Y-28702000I-1300778J1300809D01*
G01*
X13936148Y-27211301D02*
G75*
G03*
X13802000Y-27535250I323952J-323899D01*
G01*
X8807500Y-30599994D02*
G75*
G03*
X6703490Y-31471509I0J-2975506D01*
G01*
X11714822Y-27401191D02*
G75*
G03*
X11176000Y-28702000I1300778J-1300809D01*
G01*
X13802000Y-29814750D02*
X13802000Y-29625000D01*
X5715000Y-45085000D02*
X5080000Y-44450000D01*
X15012500Y-31215000D02*
X13936173Y-30138673D01*
X13232841Y-45720000D02*
X7248025Y-45720000D01*
X15012500Y-31215000D02*
X15012500Y-43940341D01*
X14491252Y-45198752D02*
G75*
G03*
X15012500Y-43940341I-1258422J1258412D01*
G01*
X13232841Y-45720017D02*
G75*
G03*
X14491250Y-45198750I-41J1779717D01*
G01*
X13802037Y-29814750D02*
G75*
G03*
X13936174Y-30138672I458063J-50D01*
G01*
X5715001Y-45084999D02*
G75*
G03*
X7248025Y-45720000I1533029J1533029D01*
G01*
X6779500Y-5251250D02*
X6779500Y-5600000D01*
X11075735Y-3432000D02*
X9289800Y-3432000D01*
X12100000Y-4379500D02*
X12100000Y-4727000D01*
X11800000Y-3732000D02*
X11854280Y-3786280D01*
X7026103Y-4655896D02*
X7514750Y-4167250D01*
X12100011Y-4379500D02*
G75*
G03*
X11854280Y-3786280I-838911J0D01*
G01*
X9289800Y-3432001D02*
G75*
G03*
X7514751Y-4167251I0J-2510299D01*
G01*
X11799989Y-3732011D02*
G75*
G03*
X11075735Y-3432000I-724289J-724289D01*
G01*
X7026070Y-4655863D02*
G75*
G03*
X6779500Y-5251250I595430J-595337D01*
G01*
X12804578Y-6377000D02*
X12100000Y-6377000D01*
X13742500Y-5988500D02*
X14131000Y-5600000D01*
X12804578Y-6376990D02*
G75*
G03*
X13742499Y-5988499I22J1326390D01*
G01*
X18695000Y-20995000D02*
X19390000Y-21690000D01*
X17201074Y-17504000D02*
X16502000Y-17504000D01*
X18000000Y-19317121D02*
X18000000Y-18302925D01*
X18000000Y-19317121D02*
G75*
G03*
X18695000Y-20995000I2372880J1D01*
G01*
X17766008Y-17737992D02*
G75*
G03*
X17201074Y-17504000I-564908J-564908D01*
G01*
X17999989Y-18302925D02*
G75*
G03*
X17766000Y-17738000I-798889J25D01*
G01*
X16705293Y-20182293D02*
X17518106Y-20995106D01*
X18481893Y-23321893D02*
X19390000Y-24230000D01*
X16502000Y-19691500D02*
X16502000Y-19404000D01*
X16502004Y-19691500D02*
G75*
G03*
X16705293Y-20182293I694096J0D01*
G01*
X18000004Y-22158500D02*
G75*
G03*
X18481893Y-23321893I1645296J0D01*
G01*
X17999996Y-22158500D02*
G75*
G03*
X17518106Y-20995106I-1645296J0D01*
G01*
X18912500Y-27247500D02*
X19390000Y-26770000D01*
X17759713Y-27725000D02*
X16502000Y-27725000D01*
X17759713Y-27725005D02*
G75*
G03*
X18912500Y-27247500I-13J1630305D01*
G01*
X19232500Y-29467500D02*
X19390000Y-29310000D01*
X18852261Y-29625000D02*
X16502000Y-29625000D01*
X18852261Y-29624983D02*
G75*
G03*
X19232499Y-29467499I39J537683D01*
G01*
X5584500Y-6292250D02*
X5584500Y-5600000D01*
X13927312Y-10127312D02*
X13469500Y-9669500D01*
X10421555Y-8407000D02*
X8012859Y-8407000D01*
X6295750Y-7695750D02*
X6073994Y-7473994D01*
X14732000Y-12489579D02*
X14732000Y-12070000D01*
X15827286Y-14300000D02*
X15145251Y-13617965D01*
X16100000Y-14300000D02*
X15827286Y-14300000D01*
X5584501Y-6292250D02*
G75*
G03*
X6073995Y-7473993I1671239J0D01*
G01*
X6295750Y-7695750D02*
G75*
G03*
X8012859Y-8407000I1717110J1717110D01*
G01*
X14732020Y-12489579D02*
G75*
G03*
X15145252Y-13617964I1759180J4379D01*
G01*
X13469501Y-9669499D02*
G75*
G03*
X10421555Y-8407000I-3047941J-3047941D01*
G01*
X14731992Y-12070000D02*
G75*
G03*
X13927312Y-10127312I-2747392J0D01*
G01*
X15700000Y-6238457D02*
X15700000Y-12618058D01*
X15724000Y-12676000D02*
X15748000Y-12700000D01*
X15513000Y-5787000D02*
X15326000Y-5600000D01*
X15700018Y-12618058D02*
G75*
G03*
X15724001Y-12675999I81882J-42D01*
G01*
X15700017Y-6238457D02*
G75*
G03*
X15513000Y-5787000I-638517J-43D01*
G01*
D21*
X3556000Y-17991537D02*
X3556000Y-15536462D01*
X3556000Y-17991537D02*
X3556000Y-21528369D01*
X3556000Y-23683630D02*
X3556000Y-21528369D01*
X4568457Y-13211542D02*
X5080000Y-12700000D01*
X3556000Y-17991537D02*
X3556003Y-17519661D01*
X3556000Y-36383630D02*
X3556000Y-36173793D01*
X4318000Y-36068000D02*
X4169622Y-35919622D01*
X15578526Y-18454000D02*
X16502000Y-18454000D01*
X3556000Y-28179821D02*
X3555999Y-27630314D01*
X3556000Y-36383630D02*
X3556000Y-34228369D01*
X15523000Y-18477000D02*
X15500000Y-18500000D01*
X10160000Y-18500000D02*
X6519537Y-18500000D01*
X4318000Y-36068000D02*
X5080000Y-36830000D01*
X15512500Y-28687500D02*
X15500000Y-28700000D01*
X4318000Y-39878000D02*
X5080000Y-40640000D01*
X15542677Y-28675000D02*
X16502000Y-28675000D01*
X3556000Y-34228369D02*
X3556000Y-28179821D01*
X4318000Y-23368000D02*
X5080000Y-24130000D01*
X3556000Y-13850000D02*
X3556000Y-15536462D01*
X3291542Y-13211542D02*
X1610000Y-11530000D01*
X4424000Y-17632000D02*
X4090335Y-17298335D01*
X4444000Y-27812000D02*
X4055439Y-27423439D01*
X3556000Y-28179821D02*
X3556000Y-25668178D01*
X3556000Y-36383630D02*
X3556000Y-38038369D01*
X3556000Y-23683630D02*
X3556000Y-25668178D01*
X10160000Y-28700000D02*
X6587821Y-28700000D01*
X4444000Y-27812000D02*
G75*
G03*
X6587821Y-28700000I2143820J2143820D01*
G01*
X4169622Y-35919622D02*
G75*
G03*
X3556000Y-36173793I-254172J-254168D01*
G01*
X3556001Y-34228369D02*
G75*
G03*
X4318000Y-36068000I2601629J-1D01*
G01*
X15578526Y-18454012D02*
G75*
G03*
X15523001Y-18477001I-26J-78488D01*
G01*
X3556001Y-38038369D02*
G75*
G03*
X4318000Y-39878000I2601629J-1D01*
G01*
X3930000Y-13476003D02*
G75*
G03*
X4568456Y-13211541I0J902903D01*
G01*
X3291545Y-13211539D02*
G75*
G03*
X3930000Y-13476000I638455J638439D01*
G01*
X3556001Y-25668178D02*
G75*
G03*
X4444000Y-27812000I3031819J-2D01*
G01*
X3556001Y-21528369D02*
G75*
G03*
X4318000Y-23368000I2601629J-1D01*
G01*
X4090307Y-17298363D02*
G75*
G03*
X3556003Y-17519661I-221307J-221337D01*
G01*
X4055436Y-27423442D02*
G75*
G03*
X3555999Y-27630314I-206876J-206868D01*
G01*
X4424001Y-17631999D02*
G75*
G03*
X6519537Y-18500000I2095539J2095539D01*
G01*
X15542677Y-28674991D02*
G75*
G03*
X15512500Y-28687500I23J-42709D01*
G01*
X3556004Y-13850000D02*
G75*
G03*
X3291542Y-13211542I-902904J0D01*
G01*
X3930000Y-13476000D02*
G75*
G03*
X3556000Y-13850000I0J-374000D01*
G01*
X4318001Y-23367999D02*
G75*
G03*
X3556000Y-23683630I-315631J-315631D01*
G01*
X3556004Y-15536462D02*
G75*
G03*
X4424001Y-17631999I2963526J-8D01*
G01*
D20*
X6477500Y-12497500D02*
X6275000Y-12700000D01*
X6275000Y-12700000D02*
X6275000Y-16510000D01*
X6966378Y-12295000D02*
X8400000Y-12295000D01*
X6966378Y-12294991D02*
G75*
G03*
X6477500Y-12497500I22J-691409D01*
G01*
X6275000Y-24130000D02*
X6275000Y-20320000D01*
X6910000Y-24765000D02*
X6275000Y-24130000D01*
X8443025Y-25400000D02*
X10969713Y-25400000D01*
X12122500Y-24922500D02*
X12600000Y-24445000D01*
X6910001Y-24764999D02*
G75*
G03*
X8443025Y-25400000I1533029J1533029D01*
G01*
X10969713Y-25400005D02*
G75*
G03*
X12122500Y-24922500I-13J1630305D01*
G01*
X6387500Y-32982500D02*
X6312500Y-33057500D01*
X7587652Y-32295000D02*
X8400000Y-32295000D01*
X6275000Y-33148033D02*
X6275000Y-36830000D01*
X6387500Y-32982500D02*
X6712500Y-32657500D01*
X6312490Y-33057490D02*
G75*
G03*
X6275000Y-33148033I90510J-90510D01*
G01*
X7587652Y-32294999D02*
G75*
G03*
X6712501Y-32657501I-2J-1237641D01*
G01*
X8165000Y-42295000D02*
X8400000Y-42295000D01*
X6275000Y-40640000D02*
X7763829Y-42128829D01*
X6275000Y-40640000D02*
X6275000Y-44450000D01*
X7763837Y-42128821D02*
G75*
G03*
X8165000Y-42295000I401163J401121D01*
G01*
D22*
X19750000Y-51000000D02*
G75*
G03*
X21000000Y-49750000I0J1250000D01*
G01*
X1250000Y0D02*
G75*
G03*
X0Y-1250000I2J-1250002D01*
G01*
X0Y-49750000D02*
X0Y-1250000D01*
X19750000Y-51000000D02*
X1250000Y-51000000D01*
X8750000Y-1750000D02*
X12250000Y-1750000D01*
X7000000Y0D02*
X1250000Y0D01*
X21000000Y-1250000D02*
G75*
G03*
X19750000Y0I-1250000J0D01*
G01*
X21000000Y-1250000D02*
X21000000Y-49750000D01*
X12250000Y-1750000D02*
X14000000Y0D01*
X0Y-49750000D02*
G75*
G03*
X1250000Y-51000000I1250000J0D01*
G01*
X8750000Y-1750000D02*
X7000000Y0D01*
X14000000Y0D02*
X19750000Y0D01*
M02*
