M48
; DRILL file {KiCad 7.0.5} date Tue Oct  3 09:42:03 2023
; FORMAT={-:-/ absolute / inch / decimal}
; #@! TF.CreationDate,2023-10-03T09:42:03+03:00
; #@! TF.GenerationSoftware,Kicad,Pcbnew,7.0.5
; #@! TF.FileFunction,Plated,1,2,PTH
FMAT,2
INCH
; #@! TA.AperFunction,Plated,PTH,ViaDrill
T1C0.0157
; #@! TA.AperFunction,Plated,PTH,ComponentDrill
T2C0.0394
%
G90
G05
T1
X0.2874Y-1.7087
X0.3346Y-0.3024
X0.4Y-0.7283
X0.4Y-1.1299
X0.46Y-0.78
X0.48Y-1.22
X0.5402Y-0.5398
X0.56Y-0.88
X0.5984Y-0.9843
X0.6102Y-0.7283
X0.6102Y-1.1299
X0.62Y-0.5
X0.6339Y-0.563
T2
X0.0634Y-0.0539
X0.0634Y-0.1539
X0.0634Y-0.2539
X0.0634Y-0.3539
X0.0634Y-0.4539
X0.0634Y-0.5539
X0.0634Y-0.6539
X0.0634Y-0.7539
X0.0634Y-0.8539
X0.0634Y-0.9539
X0.0634Y-1.0539
X0.0634Y-1.1539
X0.0634Y-1.2539
X0.0634Y-1.3539
X0.0634Y-1.4539
X0.0634Y-1.5539
X0.0634Y-1.6539
X0.0634Y-1.7539
X0.0634Y-1.8539
X0.0634Y-1.9539
X0.7634Y-0.0539
X0.7634Y-0.1539
X0.7634Y-0.2539
X0.7634Y-0.3539
X0.7634Y-0.4539
X0.7634Y-0.5539
X0.7634Y-0.6539
X0.7634Y-0.7539
X0.7634Y-0.8539
X0.7634Y-0.9539
X0.7634Y-1.0539
X0.7634Y-1.1539
X0.7634Y-1.2539
X0.7634Y-1.3539
X0.7634Y-1.4539
X0.7634Y-1.5539
X0.7634Y-1.6539
X0.7634Y-1.7539
X0.7634Y-1.8539
X0.7634Y-1.9539
T0
M30
