G04 #@! TF.GenerationSoftware,KiCad,Pcbnew,7.0.5*
G04 #@! TF.CreationDate,2023-10-03T09:42:01+03:00*
G04 #@! TF.ProjectId,Pico_mod,5069636f-5f6d-46f6-942e-6b696361645f,rev?*
G04 #@! TF.SameCoordinates,Original*
G04 #@! TF.FileFunction,Soldermask,Bot*
G04 #@! TF.FilePolarity,Negative*
%FSLAX46Y46*%
G04 Gerber Fmt 4.6, Leading zero omitted, Abs format (unit mm)*
G04 Created by KiCad (PCBNEW 7.0.5) date 2023-10-03 09:42:01*
%MOMM*%
%LPD*%
G01*
G04 APERTURE LIST*
%ADD10C,2.100000*%
%ADD11O,1.700000X1.700000*%
%ADD12R,1.700000X1.700000*%
G04 #@! TA.AperFunction,Profile*
%ADD13C,0.100000*%
G04 #@! TD*
G04 APERTURE END LIST*
D10*
X4800000Y-2000000D03*
D11*
X1610000Y-1370000D03*
X1610000Y-3910000D03*
D12*
X1610000Y-6450000D03*
D11*
X1610000Y-8990000D03*
X1610000Y-11530000D03*
X1610000Y-14070000D03*
X1610000Y-16610000D03*
D12*
X1610000Y-19150000D03*
D11*
X1610000Y-21690000D03*
X1610000Y-24230000D03*
X1610000Y-26770000D03*
X1610000Y-29310000D03*
D12*
X1610000Y-31850000D03*
D11*
X1610000Y-34390000D03*
X1610000Y-36930000D03*
X1610000Y-39470000D03*
X1610000Y-42010000D03*
D12*
X1610000Y-44550000D03*
D11*
X1610000Y-47090000D03*
X1610000Y-49630000D03*
D10*
X4800000Y-49000000D03*
D11*
X19390000Y-1370000D03*
X19390000Y-3910000D03*
D12*
X19390000Y-6450000D03*
D11*
X19390000Y-8990000D03*
X19390000Y-11530000D03*
X19390000Y-14070000D03*
X19390000Y-16610000D03*
D12*
X19390000Y-19150000D03*
D11*
X19390000Y-21690000D03*
X19390000Y-24230000D03*
X19390000Y-26770000D03*
X19390000Y-29310000D03*
D12*
X19390000Y-31850000D03*
D11*
X19390000Y-34390000D03*
X19390000Y-36930000D03*
X19390000Y-39470000D03*
X19390000Y-42010000D03*
D12*
X19390000Y-44550000D03*
D11*
X19390000Y-47090000D03*
X19390000Y-49630000D03*
D10*
X16200000Y-2000000D03*
X16200000Y-49000000D03*
D13*
X19750000Y-51000000D02*
G75*
G03*
X21000000Y-49750000I0J1250000D01*
G01*
X1250000Y0D02*
G75*
G03*
X0Y-1250000I2J-1250002D01*
G01*
X0Y-49750000D02*
X0Y-1250000D01*
X19750000Y-51000000D02*
X1250000Y-51000000D01*
X8750000Y-1750000D02*
X12250000Y-1750000D01*
X7000000Y0D02*
X1250000Y0D01*
X21000000Y-1250000D02*
G75*
G03*
X19750000Y0I-1250000J0D01*
G01*
X21000000Y-1250000D02*
X21000000Y-49750000D01*
X12250000Y-1750000D02*
X14000000Y0D01*
X0Y-49750000D02*
G75*
G03*
X1250000Y-51000000I1250000J0D01*
G01*
X8750000Y-1750000D02*
X7000000Y0D01*
X14000000Y0D02*
X19750000Y0D01*
M02*
