G04 #@! TF.GenerationSoftware,KiCad,Pcbnew,7.0.5*
G04 #@! TF.CreationDate,2023-08-30T18:19:32+03:00*
G04 #@! TF.ProjectId,USB_duck_v2,5553425f-6475-4636-9b5f-76322e6b6963,rev?*
G04 #@! TF.SameCoordinates,Original*
G04 #@! TF.FileFunction,Profile,NP*
%FSLAX46Y46*%
G04 Gerber Fmt 4.6, Leading zero omitted, Abs format (unit mm)*
G04 Created by KiCad (PCBNEW 7.0.5) date 2023-08-30 18:19:32*
%MOMM*%
%LPD*%
G01*
G04 APERTURE LIST*
G04 #@! TA.AperFunction,Profile*
%ADD10C,0.100000*%
G04 #@! TD*
G04 #@! TA.AperFunction,Profile*
%ADD11C,0.010000*%
G04 #@! TD*
G04 APERTURE END LIST*
D10*
X-7180006Y-36399750D02*
X-6520000Y-36400000D01*
X10744151Y-3899463D02*
X4200000Y1300000D01*
X11500000Y-26988025D02*
X11500000Y-5465377D01*
X-10744151Y-3899463D02*
X-4200000Y1300000D01*
X7180006Y-36399750D02*
G75*
G03*
X8000000Y-35600000I19994J799750D01*
G01*
X-7999999Y-35600000D02*
G75*
G03*
X-7180006Y-36399749I799998J-1D01*
G01*
X11500017Y-5465377D02*
G75*
G03*
X10744151Y-3899463I-2000017J-23D01*
G01*
X-8000000Y-35600000D02*
X-8000000Y-32211975D01*
X-11500000Y-5465377D02*
X-11500000Y-26988025D01*
X-8566010Y-30817818D02*
X-10933990Y-28382182D01*
X-10744151Y-3899463D02*
G75*
G03*
X-11500000Y-5465377I1244158J-1565918D01*
G01*
X8566013Y-30817821D02*
G75*
G03*
X8000000Y-32211975I1433987J-1394159D01*
G01*
X-8000000Y-32211975D02*
G75*
G03*
X-8566010Y-30817818I-1999996J2D01*
G01*
X8000000Y-35600000D02*
X8000000Y-32211975D01*
X8566010Y-30817818D02*
X10933990Y-28382182D01*
X4200000Y1300000D02*
X-4200000Y1300000D01*
X10933987Y-28382179D02*
G75*
G03*
X11500000Y-26988025I-1433987J1394159D01*
G01*
X-11500000Y-26988025D02*
G75*
G03*
X-10933990Y-28382182I1999996J-2D01*
G01*
X6360000Y-36400000D02*
X7180006Y-36399750D01*
D11*
X-6520000Y-36400000D02*
X-4620000Y-36400000D01*
X-4620000Y-36400000D02*
X-4620000Y-30200000D01*
X-3820000Y-30200000D02*
X3820000Y-30200000D01*
X4620000Y-30200000D02*
X4620000Y-36400000D01*
X4620000Y-36400000D02*
X6360000Y-36400000D01*
X-4295000Y-29800000D02*
G75*
G03*
X-4619999Y-30200000I37499J-362499D01*
G01*
X-3970001Y-30080000D02*
G75*
G03*
X-4295000Y-29800001I-302498J-22499D01*
G01*
X-3969999Y-30080000D02*
G75*
G03*
X-3820000Y-30199999I134999J15000D01*
G01*
X3820000Y-30199999D02*
G75*
G03*
X3969999Y-30080000I15000J134999D01*
G01*
X4295000Y-29800001D02*
G75*
G03*
X3970001Y-30080000I-22500J-302499D01*
G01*
X4620000Y-30200000D02*
G75*
G03*
X4295000Y-29800000I-362500J37500D01*
G01*
M02*
