G04 #@! TF.GenerationSoftware,KiCad,Pcbnew,7.0.5*
G04 #@! TF.CreationDate,2023-08-30T18:19:32+03:00*
G04 #@! TF.ProjectId,USB_duck_v2,5553425f-6475-4636-9b5f-76322e6b6963,rev?*
G04 #@! TF.SameCoordinates,Original*
G04 #@! TF.FileFunction,Soldermask,Bot*
G04 #@! TF.FilePolarity,Negative*
%FSLAX46Y46*%
G04 Gerber Fmt 4.6, Leading zero omitted, Abs format (unit mm)*
G04 Created by KiCad (PCBNEW 7.0.5) date 2023-08-30 18:19:32*
%MOMM*%
%LPD*%
G01*
G04 APERTURE LIST*
G04 Aperture macros list*
%AMRoundRect*
0 Rectangle with rounded corners*
0 $1 Rounding radius*
0 $2 $3 $4 $5 $6 $7 $8 $9 X,Y pos of 4 corners*
0 Add a 4 corners polygon primitive as box body*
4,1,4,$2,$3,$4,$5,$6,$7,$8,$9,$2,$3,0*
0 Add four circle primitives for the rounded corners*
1,1,$1+$1,$2,$3*
1,1,$1+$1,$4,$5*
1,1,$1+$1,$6,$7*
1,1,$1+$1,$8,$9*
0 Add four rect primitives between the rounded corners*
20,1,$1+$1,$2,$3,$4,$5,0*
20,1,$1+$1,$4,$5,$6,$7,0*
20,1,$1+$1,$6,$7,$8,$9,0*
20,1,$1+$1,$8,$9,$2,$3,0*%
G04 Aperture macros list end*
%ADD10C,0.600000*%
%ADD11R,0.850000X0.850000*%
%ADD12O,0.850000X0.850000*%
%ADD13RoundRect,0.075000X0.075000X0.675000X-0.075000X0.675000X-0.075000X-0.675000X0.075000X-0.675000X0*%
%ADD14RoundRect,0.175000X-0.175000X-0.525000X0.175000X-0.525000X0.175000X0.525000X-0.175000X0.525000X0*%
%ADD15RoundRect,0.135000X-0.185000X0.135000X-0.185000X-0.135000X0.185000X-0.135000X0.185000X0.135000X0*%
%ADD16RoundRect,0.140000X0.140000X0.170000X-0.140000X0.170000X-0.140000X-0.170000X0.140000X-0.170000X0*%
%ADD17RoundRect,0.135000X0.135000X0.185000X-0.135000X0.185000X-0.135000X-0.185000X0.135000X-0.185000X0*%
%ADD18RoundRect,0.262500X-0.587500X-0.262500X0.587500X-0.262500X0.587500X0.262500X-0.587500X0.262500X0*%
%ADD19RoundRect,0.225000X-0.225000X-0.250000X0.225000X-0.250000X0.225000X0.250000X-0.225000X0.250000X0*%
%ADD20RoundRect,0.225000X-0.250000X0.225000X-0.250000X-0.225000X0.250000X-0.225000X0.250000X0.225000X0*%
%ADD21RoundRect,0.225000X0.225000X-0.375000X0.225000X0.375000X-0.225000X0.375000X-0.225000X-0.375000X0*%
%ADD22RoundRect,0.135000X0.185000X-0.135000X0.185000X0.135000X-0.185000X0.135000X-0.185000X-0.135000X0*%
%ADD23RoundRect,0.026400X0.493600X0.193600X-0.493600X0.193600X-0.493600X-0.193600X0.493600X-0.193600X0*%
%ADD24R,3.400000X4.300000*%
%ADD25RoundRect,0.225000X0.350000X0.225000X-0.350000X0.225000X-0.350000X-0.225000X0.350000X-0.225000X0*%
%ADD26R,0.300000X0.850000*%
%ADD27R,0.760000X1.270000*%
%ADD28RoundRect,0.140000X0.170000X-0.140000X0.170000X0.140000X-0.170000X0.140000X-0.170000X-0.140000X0*%
G04 APERTURE END LIST*
D10*
X9100000Y-7200000D03*
X10900000Y-7200000D03*
D11*
X4500000Y-27500000D03*
D12*
X4500000Y-26500000D03*
X4500000Y-25500000D03*
D13*
X2750000Y0D03*
X2250000Y0D03*
X1750000Y0D03*
X1250000Y0D03*
X750000Y0D03*
X250000Y0D03*
X-250000Y0D03*
X-750000Y0D03*
X-1250000Y0D03*
X-1750000Y0D03*
X-2250000Y0D03*
X-2750000Y0D03*
D14*
X3600000Y-50000D03*
D10*
X9100000Y-25200000D03*
X10900000Y-25200000D03*
D15*
X3350000Y-19790000D03*
X3350000Y-20810000D03*
D16*
X-5620000Y-14250000D03*
X-6580000Y-14250000D03*
D17*
X-5600000Y-21250000D03*
X-6620000Y-21250000D03*
X-5590000Y-15800000D03*
X-6610000Y-15800000D03*
D16*
X-5600000Y-13150000D03*
X-6560000Y-13150000D03*
D17*
X-5590000Y-17000000D03*
X-6610000Y-17000000D03*
X7210000Y-13700000D03*
X6190000Y-13700000D03*
X-5000000Y-18950000D03*
X-6020000Y-18950000D03*
D18*
X1600000Y-21525000D03*
X-1600000Y-21525000D03*
X1600000Y-19875000D03*
X-1600000Y-19875000D03*
D19*
X-5525000Y-11600000D03*
X-3975000Y-11600000D03*
D17*
X-5600000Y-22400000D03*
X-6620000Y-22400000D03*
D20*
X2200000Y-1865000D03*
X2200000Y-3415000D03*
D10*
X-10900000Y-11200000D03*
X-9100000Y-11200000D03*
D21*
X-9250000Y-13100000D03*
X-10750000Y-13100000D03*
X-9250000Y-9300000D03*
X-10750000Y-9300000D03*
D16*
X7180000Y-15900000D03*
X6220000Y-15900000D03*
D22*
X7200000Y-31310000D03*
X7200000Y-30290000D03*
X-7200000Y-31310000D03*
X-7200000Y-30290000D03*
D23*
X2845000Y-13500000D03*
X2845000Y-14770000D03*
X2845000Y-16040000D03*
X2845000Y-17310000D03*
X-2845000Y-17310000D03*
X-2845000Y-16040000D03*
X-2845000Y-14770000D03*
X-2845000Y-13500000D03*
D24*
X0Y-15405000D03*
D25*
X1975000Y-23500000D03*
X1975000Y-25000000D03*
X-1975000Y-25000000D03*
X-1975000Y-23500000D03*
D16*
X-5040000Y-20100000D03*
X-6000000Y-20100000D03*
D26*
X-350000Y-27700000D03*
X150000Y-27700000D03*
X650000Y-27700000D03*
X650000Y-29100000D03*
X150000Y-29100000D03*
X-350000Y-29100000D03*
D10*
X-10900000Y-21200000D03*
X-9100000Y-21200000D03*
D21*
X-9250000Y-23100000D03*
X-10750000Y-23100000D03*
X-9250000Y-19300000D03*
X-10750000Y-19300000D03*
D16*
X7180000Y-14800000D03*
X6220000Y-14800000D03*
D27*
X3600000Y-3940000D03*
X3600000Y-2160000D03*
D15*
X4550000Y-19790000D03*
X4550000Y-20810000D03*
D28*
X-3500000Y-20960000D03*
X-3500000Y-20000000D03*
M02*
