G04 #@! TF.GenerationSoftware,KiCad,Pcbnew,7.0.5*
G04 #@! TF.CreationDate,2023-08-30T18:19:32+03:00*
G04 #@! TF.ProjectId,USB_duck_v2,5553425f-6475-4636-9b5f-76322e6b6963,rev?*
G04 #@! TF.SameCoordinates,Original*
G04 #@! TF.FileFunction,Legend,Top*
G04 #@! TF.FilePolarity,Positive*
%FSLAX46Y46*%
G04 Gerber Fmt 4.6, Leading zero omitted, Abs format (unit mm)*
G04 Created by KiCad (PCBNEW 7.0.5) date 2023-08-30 18:19:32*
%MOMM*%
%LPD*%
G01*
G04 APERTURE LIST*
G04 Aperture macros list*
%AMRoundRect*
0 Rectangle with rounded corners*
0 $1 Rounding radius*
0 $2 $3 $4 $5 $6 $7 $8 $9 X,Y pos of 4 corners*
0 Add a 4 corners polygon primitive as box body*
4,1,4,$2,$3,$4,$5,$6,$7,$8,$9,$2,$3,0*
0 Add four circle primitives for the rounded corners*
1,1,$1+$1,$2,$3*
1,1,$1+$1,$4,$5*
1,1,$1+$1,$6,$7*
1,1,$1+$1,$8,$9*
0 Add four rect primitives between the rounded corners*
20,1,$1+$1,$2,$3,$4,$5,0*
20,1,$1+$1,$4,$5,$6,$7,0*
20,1,$1+$1,$6,$7,$8,$9,0*
20,1,$1+$1,$8,$9,$2,$3,0*%
%AMFreePoly0*
4,1,9,3.862500,-0.866500,0.737500,-0.866500,0.737500,-0.450000,-0.737500,-0.450000,-0.737500,0.450000,0.737500,0.450000,0.737500,0.866500,3.862500,0.866500,3.862500,-0.866500,3.862500,-0.866500,$1*%
G04 Aperture macros list end*
%ADD10C,0.153000*%
%ADD11C,0.010000*%
%ADD12C,0.120000*%
%ADD13C,0.127000*%
%ADD14C,0.200000*%
%ADD15C,0.250000*%
%ADD16RoundRect,0.140000X-0.140000X-0.170000X0.140000X-0.170000X0.140000X0.170000X-0.140000X0.170000X0*%
%ADD17RoundRect,0.135000X-0.135000X-0.185000X0.135000X-0.185000X0.135000X0.185000X-0.135000X0.185000X0*%
%ADD18RoundRect,0.140000X0.140000X0.170000X-0.140000X0.170000X-0.140000X-0.170000X0.140000X-0.170000X0*%
%ADD19RoundRect,0.225000X-0.225000X-0.250000X0.225000X-0.250000X0.225000X0.250000X-0.225000X0.250000X0*%
%ADD20R,1.200000X1.400000*%
%ADD21RoundRect,0.006000X0.094000X-0.414000X0.094000X0.414000X-0.094000X0.414000X-0.094000X-0.414000X0*%
%ADD22RoundRect,0.020000X0.400000X-0.080000X0.400000X0.080000X-0.400000X0.080000X-0.400000X-0.080000X0*%
%ADD23R,3.100000X3.100000*%
%ADD24RoundRect,0.135000X-0.185000X0.135000X-0.185000X-0.135000X0.185000X-0.135000X0.185000X0.135000X0*%
%ADD25C,0.600000*%
%ADD26RoundRect,0.225000X0.225000X-0.375000X0.225000X0.375000X-0.225000X0.375000X-0.225000X-0.375000X0*%
%ADD27RoundRect,0.135000X0.185000X-0.135000X0.185000X0.135000X-0.185000X0.135000X-0.185000X-0.135000X0*%
%ADD28R,0.850000X0.850000*%
%ADD29O,0.850000X0.850000*%
%ADD30RoundRect,0.225000X0.225000X0.250000X-0.225000X0.250000X-0.225000X-0.250000X0.225000X-0.250000X0*%
%ADD31RoundRect,0.075000X-0.075000X-0.675000X0.075000X-0.675000X0.075000X0.675000X-0.075000X0.675000X0*%
%ADD32RoundRect,0.175000X-0.175000X-0.525000X0.175000X-0.525000X0.175000X0.525000X-0.175000X0.525000X0*%
%ADD33R,0.600000X1.100000*%
%ADD34R,0.300000X1.100000*%
%ADD35RoundRect,0.135000X0.135000X0.185000X-0.135000X0.185000X-0.135000X-0.185000X0.135000X-0.185000X0*%
%ADD36RoundRect,0.225000X0.350000X0.225000X-0.350000X0.225000X-0.350000X-0.225000X0.350000X-0.225000X0*%
%ADD37R,0.300000X0.850000*%
%ADD38RoundRect,0.150000X0.512500X0.150000X-0.512500X0.150000X-0.512500X-0.150000X0.512500X-0.150000X0*%
%ADD39R,1.270000X0.760000*%
%ADD40RoundRect,0.262500X-0.587500X-0.262500X0.587500X-0.262500X0.587500X0.262500X-0.587500X0.262500X0*%
%ADD41RoundRect,0.140000X0.021213X-0.219203X0.219203X-0.021213X-0.021213X0.219203X-0.219203X0.021213X0*%
%ADD42RoundRect,0.150000X-0.512500X-0.150000X0.512500X-0.150000X0.512500X0.150000X-0.512500X0.150000X0*%
%ADD43R,0.900000X1.300000*%
%ADD44FreePoly0,270.000000*%
G04 APERTURE END LIST*
D10*
X-10532712Y-26051802D02*
X-11079886Y-26510936D01*
X-11079886Y-26510936D02*
X-11219930Y-26566285D01*
X-11219930Y-26566285D02*
X-11354105Y-26554546D01*
X-11354105Y-26554546D02*
X-11482410Y-26475720D01*
X-11482410Y-26475720D02*
X-11543628Y-26402763D01*
X-10686577Y-27424156D02*
X-10992667Y-27059373D01*
X-10992667Y-27059373D02*
X-10226622Y-26416585D01*
X-10032051Y-28056026D02*
X-10099138Y-28050157D01*
X-10099138Y-28050157D02*
X-10227443Y-27971331D01*
X-10227443Y-27971331D02*
X-10288661Y-27898374D01*
X-10288661Y-27898374D02*
X-10344010Y-27758330D01*
X-10344010Y-27758330D02*
X-10332271Y-27624156D01*
X-10332271Y-27624156D02*
X-10289923Y-27526460D01*
X-10289923Y-27526460D02*
X-10174619Y-27367546D01*
X-10174619Y-27367546D02*
X-10065184Y-27275719D01*
X-10065184Y-27275719D02*
X-9888662Y-27189761D01*
X-9888662Y-27189761D02*
X-9785096Y-27165022D01*
X-9785096Y-27165022D02*
X-9650922Y-27176760D01*
X-9650922Y-27176760D02*
X-9522617Y-27255586D01*
X-9522617Y-27255586D02*
X-9461399Y-27328543D01*
X-9461399Y-27328543D02*
X-9406050Y-27468587D01*
X-9406050Y-27468587D02*
X-9411920Y-27535674D01*
X-8879829Y-28021631D02*
X-9427004Y-28480765D01*
X-9427004Y-28480765D02*
X-9567048Y-28536113D01*
X-9567048Y-28536113D02*
X-9701222Y-28524375D01*
X-9701222Y-28524375D02*
X-9829527Y-28445549D01*
X-9829527Y-28445549D02*
X-9890745Y-28372592D01*
X-9033695Y-29393985D02*
X-9339784Y-29029202D01*
X-9339784Y-29029202D02*
X-8573740Y-28386414D01*
X-8379168Y-30025855D02*
X-8446255Y-30019986D01*
X-8446255Y-30019986D02*
X-8574561Y-29941160D01*
X-8574561Y-29941160D02*
X-8635778Y-29868203D01*
X-8635778Y-29868203D02*
X-8691127Y-29728159D01*
X-8691127Y-29728159D02*
X-8679388Y-29593985D01*
X-8679388Y-29593985D02*
X-8637041Y-29496288D01*
X-8637041Y-29496288D02*
X-8521736Y-29337374D01*
X-8521736Y-29337374D02*
X-8412301Y-29245548D01*
X-8412301Y-29245548D02*
X-8235779Y-29159590D01*
X-8235779Y-29159590D02*
X-8132214Y-29134851D01*
X-8132214Y-29134851D02*
X-7998039Y-29146589D01*
X-7998039Y-29146589D02*
X-7869734Y-29225415D01*
X-7869734Y-29225415D02*
X-7808516Y-29298372D01*
X-7808516Y-29298372D02*
X-7753168Y-29438416D01*
X-7753168Y-29438416D02*
X-7759037Y-29505503D01*
X-7226946Y-29991460D02*
X-7774121Y-30450594D01*
X-7774121Y-30450594D02*
X-7914165Y-30505942D01*
X-7914165Y-30505942D02*
X-8048339Y-30494204D01*
X-8048339Y-30494204D02*
X-8176644Y-30415378D01*
X-8176644Y-30415378D02*
X-8237862Y-30342421D01*
X-7380812Y-31363814D02*
X-7686901Y-30999031D01*
X-7686901Y-30999031D02*
X-6920857Y-30356243D01*
X-6726286Y-31995684D02*
X-6793373Y-31989814D01*
X-6793373Y-31989814D02*
X-6921678Y-31910988D01*
X-6921678Y-31910988D02*
X-6982896Y-31838032D01*
X-6982896Y-31838032D02*
X-7038244Y-31697988D01*
X-7038244Y-31697988D02*
X-7026506Y-31563814D01*
X-7026506Y-31563814D02*
X-6984158Y-31466117D01*
X-6984158Y-31466117D02*
X-6868854Y-31307203D01*
X-6868854Y-31307203D02*
X-6759419Y-31215377D01*
X-6759419Y-31215377D02*
X-6582896Y-31129419D01*
X-6582896Y-31129419D02*
X-6479331Y-31104680D01*
X-6479331Y-31104680D02*
X-6345156Y-31116418D01*
X-6345156Y-31116418D02*
X-6216851Y-31195244D01*
X-6216851Y-31195244D02*
X-6155633Y-31268201D01*
X-6155633Y-31268201D02*
X-6100285Y-31408245D01*
X-6100285Y-31408245D02*
X-6106154Y-31475332D01*
X-5574064Y-31961289D02*
X-6121238Y-32420423D01*
X-6121238Y-32420423D02*
X-6261282Y-32475771D01*
X-6261282Y-32475771D02*
X-6395457Y-32464032D01*
X-6395457Y-32464032D02*
X-6523762Y-32385206D01*
X-6523762Y-32385206D02*
X-6584980Y-32312250D01*
X-5727929Y-33333643D02*
X-6034019Y-32968860D01*
X-6034019Y-32968860D02*
X-5267974Y-32326072D01*
X-5073403Y-33965513D02*
X-5140490Y-33959643D01*
X-5140490Y-33959643D02*
X-5268795Y-33880817D01*
X-5268795Y-33880817D02*
X-5330013Y-33807861D01*
X-5330013Y-33807861D02*
X-5385362Y-33667817D01*
X-5385362Y-33667817D02*
X-5373623Y-33533642D01*
X-5373623Y-33533642D02*
X-5331275Y-33435946D01*
X-5331275Y-33435946D02*
X-5215971Y-33277032D01*
X-5215971Y-33277032D02*
X-5106536Y-33185205D01*
X-5106536Y-33185205D02*
X-4930014Y-33099248D01*
X-4930014Y-33099248D02*
X-4826448Y-33074508D01*
X-4826448Y-33074508D02*
X-4692274Y-33086247D01*
X-4692274Y-33086247D02*
X-4563969Y-33165073D01*
X-4563969Y-33165073D02*
X-4502751Y-33238030D01*
X-4502751Y-33238030D02*
X-4447402Y-33378074D01*
X-4447402Y-33378074D02*
X-4453272Y-33445161D01*
G36*
X2719793Y-25511182D02*
G01*
X3813000Y-25511182D01*
X3813000Y-25664591D01*
X2719793Y-25664591D01*
X2719793Y-25511182D01*
G37*
G36*
X3436279Y-24495539D02*
G01*
X3451042Y-24496099D01*
X3465572Y-24497033D01*
X3479869Y-24498341D01*
X3493933Y-24500022D01*
X3507764Y-24502077D01*
X3521362Y-24504505D01*
X3534728Y-24507308D01*
X3547860Y-24510483D01*
X3560759Y-24514033D01*
X3573425Y-24517956D01*
X3585858Y-24522252D01*
X3598058Y-24526922D01*
X3610026Y-24531966D01*
X3621760Y-24537384D01*
X3633261Y-24543175D01*
X3644485Y-24549271D01*
X3655388Y-24555672D01*
X3665970Y-24562377D01*
X3676231Y-24569386D01*
X3686171Y-24576700D01*
X3695789Y-24584319D01*
X3705087Y-24592241D01*
X3714063Y-24600468D01*
X3722718Y-24608999D01*
X3731052Y-24617835D01*
X3739065Y-24626975D01*
X3746756Y-24636419D01*
X3754127Y-24646168D01*
X3761176Y-24656221D01*
X3767904Y-24666578D01*
X3774311Y-24677240D01*
X3780363Y-24688168D01*
X3786024Y-24699325D01*
X3791294Y-24710711D01*
X3796174Y-24722325D01*
X3800664Y-24734169D01*
X3804763Y-24746241D01*
X3808472Y-24758542D01*
X3811790Y-24771072D01*
X3814719Y-24783830D01*
X3817256Y-24796817D01*
X3819403Y-24810034D01*
X3821160Y-24823478D01*
X3822527Y-24837152D01*
X3823503Y-24851055D01*
X3824088Y-24865186D01*
X3824284Y-24879546D01*
X3824088Y-24893906D01*
X3823503Y-24908037D01*
X3822527Y-24921940D01*
X3821160Y-24935613D01*
X3819403Y-24949058D01*
X3817256Y-24962274D01*
X3814719Y-24975262D01*
X3811790Y-24988020D01*
X3808472Y-25000550D01*
X3804763Y-25012851D01*
X3800664Y-25024923D01*
X3796174Y-25036767D01*
X3791294Y-25048381D01*
X3786024Y-25059767D01*
X3780363Y-25070924D01*
X3774311Y-25081852D01*
X3767904Y-25092515D01*
X3761176Y-25102875D01*
X3754127Y-25112934D01*
X3746756Y-25122690D01*
X3739065Y-25132143D01*
X3731052Y-25141295D01*
X3722718Y-25150144D01*
X3714063Y-25158691D01*
X3705087Y-25166936D01*
X3695789Y-25174878D01*
X3686171Y-25182518D01*
X3676231Y-25189856D01*
X3665970Y-25196892D01*
X3655388Y-25203626D01*
X3644485Y-25210057D01*
X3633261Y-25216186D01*
X3621760Y-25221944D01*
X3610026Y-25227331D01*
X3598058Y-25232347D01*
X3585858Y-25236991D01*
X3573425Y-25241263D01*
X3560759Y-25245164D01*
X3547860Y-25248693D01*
X3534728Y-25251851D01*
X3521362Y-25254638D01*
X3507764Y-25257053D01*
X3493933Y-25259096D01*
X3479869Y-25260768D01*
X3465572Y-25262068D01*
X3451042Y-25262997D01*
X3436279Y-25263554D01*
X3421283Y-25263740D01*
X3111510Y-25263740D01*
X3096386Y-25263554D01*
X3081507Y-25262997D01*
X3066874Y-25262068D01*
X3052487Y-25260768D01*
X3038345Y-25259096D01*
X3024449Y-25257053D01*
X3010798Y-25254638D01*
X2997393Y-25251851D01*
X2984234Y-25248693D01*
X2971320Y-25245164D01*
X2958652Y-25241263D01*
X2946229Y-25236991D01*
X2934052Y-25232347D01*
X2922120Y-25227331D01*
X2910434Y-25221944D01*
X2898994Y-25216186D01*
X2887835Y-25210057D01*
X2876993Y-25203626D01*
X2866467Y-25196892D01*
X2856259Y-25189856D01*
X2846368Y-25182518D01*
X2836793Y-25174878D01*
X2827536Y-25166936D01*
X2818595Y-25158691D01*
X2809972Y-25150144D01*
X2801665Y-25141295D01*
X2793675Y-25132143D01*
X2786003Y-25122690D01*
X2778647Y-25112934D01*
X2771608Y-25102875D01*
X2764886Y-25092515D01*
X2758481Y-25081852D01*
X2752430Y-25070924D01*
X2746769Y-25059767D01*
X2741498Y-25048381D01*
X2736618Y-25036767D01*
X2732129Y-25024923D01*
X2728029Y-25012851D01*
X2724320Y-25000550D01*
X2721002Y-24988020D01*
X2718074Y-24975262D01*
X2715536Y-24962274D01*
X2713389Y-24949058D01*
X2711632Y-24935613D01*
X2710266Y-24921940D01*
X2709290Y-24908037D01*
X2708704Y-24893906D01*
X2708509Y-24879546D01*
X2859500Y-24879546D01*
X2859763Y-24892185D01*
X2860554Y-24904511D01*
X2861871Y-24916524D01*
X2863715Y-24928225D01*
X2866085Y-24939613D01*
X2868983Y-24950688D01*
X2872407Y-24961451D01*
X2876359Y-24971900D01*
X2880837Y-24982037D01*
X2885842Y-24991861D01*
X2891374Y-25001373D01*
X2897432Y-25010572D01*
X2904018Y-25019457D01*
X2911130Y-25028031D01*
X2918769Y-25036291D01*
X2926935Y-25044239D01*
X2935506Y-25051787D01*
X2944428Y-25058848D01*
X2953700Y-25065422D01*
X2963323Y-25071509D01*
X2973296Y-25077109D01*
X2983620Y-25082222D01*
X2994294Y-25086848D01*
X3005319Y-25090987D01*
X3016694Y-25094639D01*
X3028420Y-25097804D01*
X3040496Y-25100483D01*
X3052923Y-25102674D01*
X3065701Y-25104378D01*
X3078829Y-25105596D01*
X3092307Y-25106326D01*
X3106136Y-25106570D01*
X3426387Y-25106570D01*
X3440154Y-25106326D01*
X3453577Y-25105596D01*
X3466659Y-25104378D01*
X3479399Y-25102674D01*
X3491796Y-25100483D01*
X3503852Y-25097804D01*
X3515565Y-25094639D01*
X3526936Y-25090987D01*
X3537965Y-25086848D01*
X3548652Y-25082222D01*
X3558997Y-25077109D01*
X3568999Y-25071509D01*
X3578660Y-25065422D01*
X3587978Y-25058848D01*
X3596954Y-25051787D01*
X3605588Y-25044239D01*
X3613754Y-25036291D01*
X3621394Y-25028031D01*
X3628506Y-25019457D01*
X3635091Y-25010572D01*
X3641150Y-25001373D01*
X3646682Y-24991861D01*
X3651687Y-24982037D01*
X3656165Y-24971900D01*
X3660116Y-24961451D01*
X3663541Y-24950688D01*
X3666438Y-24939613D01*
X3668809Y-24928225D01*
X3670653Y-24916524D01*
X3671970Y-24904511D01*
X3672761Y-24892185D01*
X3673024Y-24879546D01*
X3672761Y-24866843D01*
X3671970Y-24854459D01*
X3670653Y-24842394D01*
X3668809Y-24830648D01*
X3666438Y-24819222D01*
X3663541Y-24808114D01*
X3660116Y-24797325D01*
X3656165Y-24786856D01*
X3651687Y-24776705D01*
X3646682Y-24766874D01*
X3641150Y-24757361D01*
X3635091Y-24748168D01*
X3628506Y-24739293D01*
X3621394Y-24730738D01*
X3613754Y-24722502D01*
X3605588Y-24714584D01*
X3596954Y-24707069D01*
X3587978Y-24700038D01*
X3578660Y-24693493D01*
X3568999Y-24687432D01*
X3558997Y-24681856D01*
X3548652Y-24676765D01*
X3537965Y-24672159D01*
X3526936Y-24668038D01*
X3515565Y-24664401D01*
X3503852Y-24661250D01*
X3491796Y-24658583D01*
X3479399Y-24656401D01*
X3466659Y-24654704D01*
X3453577Y-24653492D01*
X3440154Y-24652765D01*
X3426387Y-24652522D01*
X3106136Y-24652522D01*
X3092307Y-24652765D01*
X3078829Y-24653492D01*
X3065701Y-24654704D01*
X3052923Y-24656401D01*
X3040496Y-24658583D01*
X3028420Y-24661250D01*
X3016694Y-24664401D01*
X3005319Y-24668038D01*
X2994294Y-24672159D01*
X2983620Y-24676765D01*
X2973296Y-24681856D01*
X2963323Y-24687432D01*
X2953700Y-24693493D01*
X2944428Y-24700038D01*
X2935506Y-24707069D01*
X2926935Y-24714584D01*
X2918769Y-24722502D01*
X2911130Y-24730738D01*
X2904018Y-24739293D01*
X2897432Y-24748168D01*
X2891374Y-24757361D01*
X2885842Y-24766874D01*
X2880837Y-24776705D01*
X2876359Y-24786856D01*
X2872407Y-24797325D01*
X2868983Y-24808114D01*
X2866085Y-24819222D01*
X2863715Y-24830648D01*
X2861871Y-24842394D01*
X2860554Y-24854459D01*
X2859763Y-24866843D01*
X2859500Y-24879546D01*
X2708509Y-24879546D01*
X2708704Y-24865186D01*
X2709290Y-24851055D01*
X2710266Y-24837152D01*
X2711632Y-24823478D01*
X2713389Y-24810034D01*
X2715536Y-24796817D01*
X2718074Y-24783830D01*
X2721002Y-24771072D01*
X2724320Y-24758542D01*
X2728029Y-24746241D01*
X2732129Y-24734169D01*
X2736618Y-24722325D01*
X2741498Y-24710711D01*
X2746769Y-24699325D01*
X2752430Y-24688168D01*
X2758481Y-24677240D01*
X2764886Y-24666578D01*
X2771608Y-24656221D01*
X2778647Y-24646168D01*
X2786003Y-24636419D01*
X2793675Y-24626975D01*
X2801665Y-24617835D01*
X2809972Y-24608999D01*
X2818595Y-24600468D01*
X2827536Y-24592241D01*
X2836793Y-24584319D01*
X2846368Y-24576700D01*
X2856259Y-24569386D01*
X2866467Y-24562377D01*
X2876993Y-24555672D01*
X2887835Y-24549271D01*
X2898994Y-24543175D01*
X2910434Y-24537384D01*
X2922120Y-24531966D01*
X2934052Y-24526922D01*
X2946229Y-24522252D01*
X2958652Y-24517956D01*
X2971320Y-24514033D01*
X2984234Y-24510483D01*
X2997393Y-24507308D01*
X3010798Y-24504505D01*
X3024449Y-24502077D01*
X3038345Y-24500022D01*
X3052487Y-24498341D01*
X3066874Y-24497033D01*
X3081507Y-24496099D01*
X3096386Y-24495539D01*
X3111510Y-24495352D01*
X3421283Y-24495352D01*
X3436279Y-24495539D01*
G37*
G36*
X3824284Y-28406727D02*
G01*
X3824085Y-28420889D01*
X3823490Y-28434832D01*
X3822498Y-28448554D01*
X3821110Y-28462055D01*
X3819325Y-28475336D01*
X3817143Y-28488397D01*
X3814564Y-28501238D01*
X3811589Y-28513858D01*
X3808217Y-28526257D01*
X3804448Y-28538437D01*
X3800283Y-28550395D01*
X3795721Y-28562134D01*
X3790762Y-28573652D01*
X3785407Y-28584950D01*
X3779654Y-28596027D01*
X3773505Y-28606884D01*
X3766999Y-28617447D01*
X3760173Y-28627710D01*
X3753028Y-28637672D01*
X3745564Y-28647335D01*
X3737781Y-28656697D01*
X3729679Y-28665760D01*
X3721258Y-28674522D01*
X3712518Y-28682984D01*
X3703459Y-28691145D01*
X3694081Y-28699007D01*
X3684384Y-28706569D01*
X3674367Y-28713830D01*
X3664032Y-28720791D01*
X3653378Y-28727452D01*
X3642404Y-28733813D01*
X3631112Y-28739874D01*
X3619507Y-28745600D01*
X3607662Y-28750956D01*
X3595579Y-28755944D01*
X3583256Y-28760561D01*
X3570693Y-28764810D01*
X3557892Y-28768688D01*
X3544851Y-28772198D01*
X3531571Y-28775338D01*
X3518051Y-28778109D01*
X3504293Y-28780510D01*
X3490295Y-28782542D01*
X3476057Y-28784204D01*
X3461581Y-28785497D01*
X3446865Y-28786420D01*
X3431910Y-28786975D01*
X3416715Y-28787159D01*
X3116614Y-28787159D01*
X3101323Y-28786975D01*
X3086280Y-28786420D01*
X3071485Y-28785497D01*
X3056937Y-28784204D01*
X3042636Y-28782542D01*
X3028584Y-28780510D01*
X3014779Y-28778109D01*
X3001222Y-28775338D01*
X2987912Y-28772198D01*
X2974850Y-28768688D01*
X2962036Y-28764810D01*
X2949470Y-28760561D01*
X2937151Y-28755944D01*
X2925080Y-28750956D01*
X2913256Y-28745600D01*
X2901681Y-28739874D01*
X2890357Y-28733813D01*
X2879356Y-28727452D01*
X2868679Y-28720791D01*
X2858324Y-28713830D01*
X2848293Y-28706569D01*
X2838586Y-28699007D01*
X2829201Y-28691145D01*
X2820140Y-28682984D01*
X2811402Y-28674522D01*
X2802987Y-28665760D01*
X2794896Y-28656697D01*
X2787128Y-28647335D01*
X2779683Y-28637672D01*
X2772561Y-28627710D01*
X2765762Y-28617447D01*
X2759287Y-28606884D01*
X2753138Y-28596027D01*
X2747386Y-28584950D01*
X2742030Y-28573652D01*
X2737072Y-28562134D01*
X2732510Y-28550395D01*
X2728344Y-28538437D01*
X2724575Y-28526257D01*
X2721203Y-28513858D01*
X2718228Y-28501238D01*
X2715650Y-28488397D01*
X2713468Y-28475336D01*
X2711683Y-28462055D01*
X2710294Y-28448554D01*
X2709302Y-28434832D01*
X2708707Y-28420889D01*
X2708509Y-28406727D01*
X2708667Y-28394936D01*
X2709143Y-28383273D01*
X2709935Y-28371738D01*
X2711044Y-28360331D01*
X2712471Y-28349052D01*
X2714214Y-28337902D01*
X2716274Y-28326879D01*
X2718651Y-28315984D01*
X2721345Y-28305218D01*
X2724356Y-28294579D01*
X2727684Y-28284069D01*
X2731329Y-28273686D01*
X2735291Y-28263432D01*
X2739569Y-28253305D01*
X2744165Y-28243307D01*
X2749078Y-28233436D01*
X2754276Y-28223697D01*
X2759728Y-28214159D01*
X2765434Y-28204823D01*
X2771394Y-28195689D01*
X2777608Y-28186755D01*
X2784076Y-28178024D01*
X2790798Y-28169494D01*
X2797774Y-28161165D01*
X2805003Y-28153038D01*
X2812487Y-28145112D01*
X2820225Y-28137388D01*
X2828217Y-28129865D01*
X2836463Y-28122544D01*
X2844962Y-28115424D01*
X2853716Y-28108506D01*
X2862724Y-28101789D01*
X2871923Y-28095307D01*
X2881316Y-28089091D01*
X2890906Y-28083141D01*
X2900690Y-28077458D01*
X2910669Y-28072042D01*
X2920844Y-28066892D01*
X2931214Y-28062009D01*
X2941779Y-28057392D01*
X2952539Y-28053042D01*
X2963495Y-28048959D01*
X2974646Y-28045142D01*
X2985992Y-28041591D01*
X2997533Y-28038307D01*
X3009269Y-28035290D01*
X3021201Y-28032539D01*
X3033327Y-28030055D01*
X3033327Y-28187226D01*
X3020368Y-28191088D01*
X3007821Y-28195554D01*
X2995685Y-28200625D01*
X2983960Y-28206301D01*
X2972646Y-28212581D01*
X2961744Y-28219466D01*
X2951254Y-28226955D01*
X2941175Y-28235048D01*
X2931578Y-28243562D01*
X2922536Y-28252445D01*
X2914048Y-28261697D01*
X2906114Y-28271318D01*
X2898734Y-28281309D01*
X2891908Y-28291670D01*
X2885636Y-28302400D01*
X2879919Y-28313499D01*
X2874755Y-28324829D01*
X2870280Y-28336252D01*
X2866494Y-28347767D01*
X2863396Y-28359374D01*
X2860986Y-28371074D01*
X2859265Y-28382866D01*
X2858232Y-28394750D01*
X2857888Y-28406727D01*
X2858166Y-28419166D01*
X2859000Y-28431297D01*
X2860391Y-28443119D01*
X2862338Y-28454633D01*
X2864841Y-28465839D01*
X2867900Y-28476735D01*
X2871515Y-28487324D01*
X2875687Y-28497603D01*
X2880415Y-28507574D01*
X2885699Y-28517237D01*
X2891539Y-28526591D01*
X2897936Y-28535636D01*
X2904889Y-28544373D01*
X2912398Y-28552802D01*
X2920463Y-28560922D01*
X2929085Y-28568733D01*
X2938129Y-28576151D01*
X2947530Y-28583090D01*
X2957288Y-28589550D01*
X2967403Y-28595532D01*
X2977875Y-28601036D01*
X2988704Y-28606061D01*
X2999889Y-28610607D01*
X3011431Y-28614675D01*
X3023330Y-28618264D01*
X3035586Y-28621375D01*
X3048199Y-28624007D01*
X3061168Y-28626161D01*
X3074494Y-28627835D01*
X3088178Y-28629032D01*
X3102218Y-28629750D01*
X3116614Y-28629989D01*
X3416715Y-28629989D01*
X3431111Y-28629750D01*
X3445148Y-28629032D01*
X3458826Y-28627835D01*
X3472145Y-28626161D01*
X3485105Y-28624007D01*
X3497706Y-28621375D01*
X3509948Y-28618264D01*
X3521831Y-28614675D01*
X3533356Y-28610607D01*
X3544521Y-28606061D01*
X3555328Y-28601036D01*
X3565775Y-28595532D01*
X3575864Y-28589550D01*
X3585594Y-28583090D01*
X3594965Y-28576151D01*
X3603976Y-28568733D01*
X3612533Y-28560922D01*
X3620537Y-28552802D01*
X3627990Y-28544373D01*
X3634890Y-28535636D01*
X3641238Y-28526591D01*
X3647035Y-28517237D01*
X3652279Y-28507574D01*
X3656971Y-28497603D01*
X3661111Y-28487324D01*
X3664699Y-28476735D01*
X3667736Y-28465839D01*
X3670220Y-28454633D01*
X3672152Y-28443119D01*
X3673532Y-28431297D01*
X3674360Y-28419166D01*
X3674636Y-28406727D01*
X3674239Y-28393400D01*
X3673049Y-28380220D01*
X3671066Y-28367186D01*
X3668289Y-28354299D01*
X3664718Y-28341558D01*
X3660355Y-28328963D01*
X3655197Y-28316515D01*
X3649247Y-28304213D01*
X3642503Y-28292058D01*
X3634966Y-28280049D01*
X3629500Y-28272124D01*
X3620687Y-28260650D01*
X3611176Y-28249903D01*
X3600966Y-28239883D01*
X3590056Y-28230590D01*
X3578448Y-28222025D01*
X3566141Y-28214187D01*
X3553134Y-28207076D01*
X3539429Y-28200693D01*
X3525025Y-28195036D01*
X3509922Y-28190107D01*
X3499465Y-28187226D01*
X3499465Y-28030055D01*
X3511593Y-28032542D01*
X3523527Y-28035299D01*
X3535269Y-28038326D01*
X3546818Y-28041625D01*
X3558173Y-28045194D01*
X3569335Y-28049034D01*
X3580304Y-28053145D01*
X3591080Y-28057527D01*
X3601663Y-28062179D01*
X3612053Y-28067102D01*
X3622250Y-28072296D01*
X3632254Y-28077761D01*
X3642064Y-28083496D01*
X3651682Y-28089502D01*
X3661106Y-28095779D01*
X3670337Y-28102327D01*
X3679312Y-28109074D01*
X3688036Y-28116016D01*
X3696507Y-28123154D01*
X3704727Y-28130486D01*
X3712694Y-28138014D01*
X3720410Y-28145738D01*
X3727874Y-28153656D01*
X3735086Y-28161769D01*
X3742046Y-28170078D01*
X3748754Y-28178582D01*
X3755211Y-28187281D01*
X3761415Y-28196176D01*
X3767368Y-28205265D01*
X3773069Y-28214550D01*
X3778518Y-28224030D01*
X3783715Y-28233705D01*
X3788627Y-28243543D01*
X3793223Y-28253511D01*
X3797502Y-28263609D01*
X3801464Y-28273837D01*
X3805108Y-28284196D01*
X3808436Y-28294684D01*
X3811447Y-28305303D01*
X3814141Y-28316051D01*
X3816518Y-28326930D01*
X3818579Y-28337939D01*
X3820322Y-28349079D01*
X3821748Y-28360348D01*
X3822857Y-28371747D01*
X3823650Y-28383277D01*
X3824125Y-28394937D01*
X3824284Y-28406727D01*
G37*
G36*
X3563408Y-27729685D02*
G01*
X3333160Y-27707117D01*
X2719793Y-27224591D01*
X2719793Y-27035718D01*
X3563408Y-27729685D01*
G37*
G36*
X3813000Y-27827480D02*
G01*
X2719793Y-27827480D01*
X2719793Y-27674071D01*
X3813000Y-27674071D01*
X3813000Y-27827480D01*
G37*
G36*
X3813000Y-27177843D02*
G01*
X3229454Y-27525230D01*
X3117420Y-27404061D01*
X3813000Y-26989776D01*
X3813000Y-27177843D01*
G37*
D11*
X7216300Y-4473700D02*
X6898800Y-4473700D01*
X6898800Y-5299200D01*
X6721000Y-5299200D01*
X6721000Y-4473700D01*
X6390800Y-4473700D01*
X6390800Y-4321300D01*
X7216300Y-4321300D01*
X7216300Y-4473700D01*
G36*
X7216300Y-4473700D02*
G01*
X6898800Y-4473700D01*
X6898800Y-5299200D01*
X6721000Y-5299200D01*
X6721000Y-4473700D01*
X6390800Y-4473700D01*
X6390800Y-4321300D01*
X7216300Y-4321300D01*
X7216300Y-4473700D01*
G37*
X4549300Y-4473700D02*
X4066700Y-4473700D01*
X4066700Y-4715000D01*
X4511200Y-4715000D01*
X4511200Y-4880100D01*
X4066700Y-4880100D01*
X4066700Y-5146800D01*
X4549300Y-5146800D01*
X4549300Y-5299200D01*
X3888900Y-5299200D01*
X3888900Y-4321300D01*
X4549300Y-4321300D01*
X4549300Y-4473700D01*
G36*
X4549300Y-4473700D02*
G01*
X4066700Y-4473700D01*
X4066700Y-4715000D01*
X4511200Y-4715000D01*
X4511200Y-4880100D01*
X4066700Y-4880100D01*
X4066700Y-5146800D01*
X4549300Y-5146800D01*
X4549300Y-5299200D01*
X3888900Y-5299200D01*
X3888900Y-4321300D01*
X4549300Y-4321300D01*
X4549300Y-4473700D01*
G37*
X6301900Y-4473700D02*
X5819300Y-4473700D01*
X5819300Y-4714400D01*
X6257450Y-4721350D01*
X6265012Y-4880100D01*
X5819300Y-4880100D01*
X5819300Y-5146800D01*
X6301900Y-5146800D01*
X6301900Y-5299200D01*
X5641500Y-5299200D01*
X5641500Y-4321300D01*
X6301900Y-4321300D01*
X6301900Y-4473700D01*
G36*
X6301900Y-4473700D02*
G01*
X5819300Y-4473700D01*
X5819300Y-4714400D01*
X6257450Y-4721350D01*
X6265012Y-4880100D01*
X5819300Y-4880100D01*
X5819300Y-5146800D01*
X6301900Y-5146800D01*
X6301900Y-5299200D01*
X5641500Y-5299200D01*
X5641500Y-4321300D01*
X6301900Y-4321300D01*
X6301900Y-4473700D01*
G37*
X6025675Y-27475968D02*
X6105050Y-27479750D01*
X6111828Y-28133800D01*
X5120800Y-28133800D01*
X5120800Y-27472187D01*
X5200175Y-27475968D01*
X5279550Y-27479750D01*
X5286460Y-27956000D01*
X5527200Y-27956000D01*
X5527200Y-27511500D01*
X5679600Y-27511500D01*
X5679600Y-27956000D01*
X5946300Y-27956000D01*
X5946300Y-27472187D01*
X6025675Y-27475968D01*
G36*
X6025675Y-27475968D02*
G01*
X6105050Y-27479750D01*
X6111828Y-28133800D01*
X5120800Y-28133800D01*
X5120800Y-27472187D01*
X5200175Y-27475968D01*
X5279550Y-27479750D01*
X5286460Y-27956000D01*
X5527200Y-27956000D01*
X5527200Y-27511500D01*
X5679600Y-27511500D01*
X5679600Y-27956000D01*
X5946300Y-27956000D01*
X5946300Y-27472187D01*
X6025675Y-27475968D01*
G37*
X1452074Y-5973849D02*
X2060100Y-6572299D01*
X2060100Y-9960100D01*
X-278334Y-9960100D01*
X-887117Y-9361605D01*
X-1495900Y-8763111D01*
X-1495900Y-5604000D01*
X-1267300Y-5604000D01*
X-1267300Y-8653840D01*
X-196288Y-9731500D01*
X1831500Y-9731500D01*
X1831500Y-6677260D01*
X758462Y-5604000D01*
X-1267300Y-5604000D01*
X-1495900Y-5604000D01*
X-1495900Y-5375400D01*
X844049Y-5375400D01*
X1452074Y-5973849D01*
G36*
X1452074Y-5973849D02*
G01*
X2060100Y-6572299D01*
X2060100Y-9960100D01*
X-278334Y-9960100D01*
X-887117Y-9361605D01*
X-1495900Y-8763111D01*
X-1495900Y-5604000D01*
X-1267300Y-5604000D01*
X-1267300Y-8653840D01*
X-196288Y-9731500D01*
X1831500Y-9731500D01*
X1831500Y-6677260D01*
X758462Y-5604000D01*
X-1267300Y-5604000D01*
X-1495900Y-5604000D01*
X-1495900Y-5375400D01*
X844049Y-5375400D01*
X1452074Y-5973849D01*
G37*
X-9789000Y-11839038D02*
X-9401650Y-11846050D01*
X-9398085Y-12001625D01*
X-9394519Y-12157200D01*
X-10614500Y-12157200D01*
X-10614500Y-11839700D01*
X-10144600Y-11839700D01*
X-10144600Y-11185018D01*
X-10144695Y-11036216D01*
X-10145010Y-10910997D01*
X-10145594Y-10807546D01*
X-10146494Y-10724046D01*
X-10147757Y-10658682D01*
X-10149431Y-10609637D01*
X-10151563Y-10575096D01*
X-10154202Y-10553243D01*
X-10157394Y-10542261D01*
X-10161187Y-10540335D01*
X-10161478Y-10540493D01*
X-10176624Y-10550678D01*
X-10209065Y-10573186D01*
X-10255391Y-10605628D01*
X-10312191Y-10645613D01*
X-10376056Y-10690754D01*
X-10388932Y-10699875D01*
X-10452963Y-10745000D01*
X-10509893Y-10784647D01*
X-10556512Y-10816617D01*
X-10589605Y-10838711D01*
X-10605962Y-10848733D01*
X-10607005Y-10849100D01*
X-10609658Y-10837151D01*
X-10611857Y-10804307D01*
X-10613425Y-10755073D01*
X-10614180Y-10693952D01*
X-10614215Y-10668125D01*
X-10613930Y-10487150D01*
X-10366925Y-10312525D01*
X-10119919Y-10137900D01*
X-9789000Y-10137900D01*
X-9789000Y-11839038D01*
G36*
X-9789000Y-11839038D02*
G01*
X-9401650Y-11846050D01*
X-9398085Y-12001625D01*
X-9394519Y-12157200D01*
X-10614500Y-12157200D01*
X-10614500Y-11839700D01*
X-10144600Y-11839700D01*
X-10144600Y-11185018D01*
X-10144695Y-11036216D01*
X-10145010Y-10910997D01*
X-10145594Y-10807546D01*
X-10146494Y-10724046D01*
X-10147757Y-10658682D01*
X-10149431Y-10609637D01*
X-10151563Y-10575096D01*
X-10154202Y-10553243D01*
X-10157394Y-10542261D01*
X-10161187Y-10540335D01*
X-10161478Y-10540493D01*
X-10176624Y-10550678D01*
X-10209065Y-10573186D01*
X-10255391Y-10605628D01*
X-10312191Y-10645613D01*
X-10376056Y-10690754D01*
X-10388932Y-10699875D01*
X-10452963Y-10745000D01*
X-10509893Y-10784647D01*
X-10556512Y-10816617D01*
X-10589605Y-10838711D01*
X-10605962Y-10848733D01*
X-10607005Y-10849100D01*
X-10609658Y-10837151D01*
X-10611857Y-10804307D01*
X-10613425Y-10755073D01*
X-10614180Y-10693952D01*
X-10614215Y-10668125D01*
X-10613930Y-10487150D01*
X-10366925Y-10312525D01*
X-10119919Y-10137900D01*
X-9789000Y-10137900D01*
X-9789000Y-11839038D01*
G37*
X10691058Y-18532956D02*
X10723437Y-18535041D01*
X10741273Y-18540378D01*
X10749992Y-18550490D01*
X10754576Y-18565115D01*
X10757411Y-18590830D01*
X10758744Y-18635167D01*
X10758480Y-18691387D01*
X10757079Y-18739740D01*
X10750204Y-18832244D01*
X10736848Y-18904583D01*
X10715469Y-18961504D01*
X10684524Y-19007759D01*
X10662646Y-19030581D01*
X10638834Y-19051396D01*
X10614472Y-19068190D01*
X10586560Y-19081441D01*
X10552098Y-19091628D01*
X10508084Y-19099230D01*
X10451520Y-19104726D01*
X10379404Y-19108593D01*
X10288737Y-19111311D01*
X10176519Y-19113358D01*
X10140475Y-19113881D01*
X9769000Y-19119086D01*
X9769000Y-19281900D01*
X9540400Y-19281900D01*
X9540400Y-19116800D01*
X9273700Y-19116800D01*
X9273700Y-18850100D01*
X9539593Y-18850100D01*
X9543171Y-18700875D01*
X9546750Y-18551650D01*
X9657875Y-18547980D01*
X9769000Y-18544311D01*
X9769000Y-18850100D01*
X10099830Y-18850100D01*
X10215720Y-18849871D01*
X10308728Y-18848370D01*
X10381368Y-18844367D01*
X10436159Y-18836638D01*
X10475617Y-18823955D01*
X10502259Y-18805091D01*
X10518601Y-18778821D01*
X10527161Y-18743917D01*
X10530455Y-18699152D01*
X10530999Y-18643301D01*
X10531000Y-18639952D01*
X10531000Y-18532600D01*
X10638708Y-18532600D01*
X10691058Y-18532956D01*
G36*
X10691058Y-18532956D02*
G01*
X10723437Y-18535041D01*
X10741273Y-18540378D01*
X10749992Y-18550490D01*
X10754576Y-18565115D01*
X10757411Y-18590830D01*
X10758744Y-18635167D01*
X10758480Y-18691387D01*
X10757079Y-18739740D01*
X10750204Y-18832244D01*
X10736848Y-18904583D01*
X10715469Y-18961504D01*
X10684524Y-19007759D01*
X10662646Y-19030581D01*
X10638834Y-19051396D01*
X10614472Y-19068190D01*
X10586560Y-19081441D01*
X10552098Y-19091628D01*
X10508084Y-19099230D01*
X10451520Y-19104726D01*
X10379404Y-19108593D01*
X10288737Y-19111311D01*
X10176519Y-19113358D01*
X10140475Y-19113881D01*
X9769000Y-19119086D01*
X9769000Y-19281900D01*
X9540400Y-19281900D01*
X9540400Y-19116800D01*
X9273700Y-19116800D01*
X9273700Y-18850100D01*
X9539593Y-18850100D01*
X9543171Y-18700875D01*
X9546750Y-18551650D01*
X9657875Y-18547980D01*
X9769000Y-18544311D01*
X9769000Y-18850100D01*
X10099830Y-18850100D01*
X10215720Y-18849871D01*
X10308728Y-18848370D01*
X10381368Y-18844367D01*
X10436159Y-18836638D01*
X10475617Y-18823955D01*
X10502259Y-18805091D01*
X10518601Y-18778821D01*
X10527161Y-18743917D01*
X10530455Y-18699152D01*
X10530999Y-18643301D01*
X10531000Y-18639952D01*
X10531000Y-18532600D01*
X10638708Y-18532600D01*
X10691058Y-18532956D01*
G37*
X10746900Y-10633200D02*
X9939087Y-10633200D01*
X9873861Y-10665703D01*
X9817922Y-10703613D01*
X9780537Y-10753881D01*
X9760059Y-10819629D01*
X9754712Y-10891357D01*
X9761413Y-10971435D01*
X9782872Y-11035236D01*
X9821127Y-11088468D01*
X9827283Y-11094754D01*
X9848610Y-11115535D01*
X9868206Y-11132269D01*
X9889013Y-11145423D01*
X9913972Y-11155464D01*
X9946026Y-11162861D01*
X9988116Y-11168079D01*
X10043185Y-11171586D01*
X10114175Y-11173850D01*
X10204028Y-11175338D01*
X10315685Y-11176518D01*
X10343675Y-11176785D01*
X10746900Y-11180620D01*
X10746900Y-11433300D01*
X9539446Y-11433300D01*
X9546750Y-11198350D01*
X9625208Y-11194592D01*
X9703667Y-11190835D01*
X9648308Y-11135476D01*
X9599978Y-11081984D01*
X9566813Y-11030448D01*
X9545913Y-10973644D01*
X9534377Y-10904348D01*
X9530183Y-10841220D01*
X9530075Y-10744727D01*
X9539503Y-10666878D01*
X9559926Y-10602237D01*
X9592802Y-10545368D01*
X9617962Y-10514016D01*
X9691252Y-10448861D01*
X9779184Y-10403802D01*
X9872353Y-10379802D01*
X9905404Y-10376506D01*
X9959931Y-10373507D01*
X10032009Y-10370914D01*
X10117715Y-10368836D01*
X10213124Y-10367380D01*
X10314314Y-10366656D01*
X10350025Y-10366595D01*
X10746900Y-10366500D01*
X10746900Y-10633200D01*
G36*
X10746900Y-10633200D02*
G01*
X9939087Y-10633200D01*
X9873861Y-10665703D01*
X9817922Y-10703613D01*
X9780537Y-10753881D01*
X9760059Y-10819629D01*
X9754712Y-10891357D01*
X9761413Y-10971435D01*
X9782872Y-11035236D01*
X9821127Y-11088468D01*
X9827283Y-11094754D01*
X9848610Y-11115535D01*
X9868206Y-11132269D01*
X9889013Y-11145423D01*
X9913972Y-11155464D01*
X9946026Y-11162861D01*
X9988116Y-11168079D01*
X10043185Y-11171586D01*
X10114175Y-11173850D01*
X10204028Y-11175338D01*
X10315685Y-11176518D01*
X10343675Y-11176785D01*
X10746900Y-11180620D01*
X10746900Y-11433300D01*
X9539446Y-11433300D01*
X9546750Y-11198350D01*
X9625208Y-11194592D01*
X9703667Y-11190835D01*
X9648308Y-11135476D01*
X9599978Y-11081984D01*
X9566813Y-11030448D01*
X9545913Y-10973644D01*
X9534377Y-10904348D01*
X9530183Y-10841220D01*
X9530075Y-10744727D01*
X9539503Y-10666878D01*
X9559926Y-10602237D01*
X9592802Y-10545368D01*
X9617962Y-10514016D01*
X9691252Y-10448861D01*
X9779184Y-10403802D01*
X9872353Y-10379802D01*
X9905404Y-10376506D01*
X9959931Y-10373507D01*
X10032009Y-10370914D01*
X10117715Y-10368836D01*
X10213124Y-10367380D01*
X10314314Y-10366656D01*
X10350025Y-10366595D01*
X10746900Y-10366500D01*
X10746900Y-10633200D01*
G37*
X5716859Y-28336199D02*
X5794978Y-28350417D01*
X5823802Y-28359404D01*
X5908134Y-28398797D01*
X5973502Y-28449277D01*
X6024280Y-28513290D01*
X6050511Y-28559209D01*
X6070444Y-28606459D01*
X6085099Y-28659844D01*
X6095498Y-28724168D01*
X6102664Y-28804235D01*
X6107616Y-28904850D01*
X6107633Y-28905325D01*
X6115297Y-29111700D01*
X5117649Y-29111700D01*
X5122433Y-28933900D01*
X5285900Y-28933900D01*
X5946300Y-28933900D01*
X5946300Y-28840912D01*
X5938435Y-28742306D01*
X5914773Y-28663368D01*
X5875212Y-28603795D01*
X5862865Y-28591926D01*
X5800542Y-28552361D01*
X5723783Y-28526695D01*
X5639123Y-28515068D01*
X5553098Y-28517618D01*
X5472243Y-28534485D01*
X5403096Y-28565806D01*
X5381042Y-28581698D01*
X5336230Y-28627785D01*
X5306838Y-28681878D01*
X5290833Y-28749282D01*
X5286178Y-28829125D01*
X5285900Y-28933900D01*
X5122433Y-28933900D01*
X5123715Y-28886275D01*
X5126367Y-28801383D01*
X5129495Y-28737015D01*
X5133669Y-28688292D01*
X5139457Y-28650338D01*
X5147430Y-28618277D01*
X5158158Y-28587230D01*
X5158860Y-28585400D01*
X5204318Y-28501508D01*
X5269174Y-28430477D01*
X5348793Y-28376945D01*
X5381900Y-28362177D01*
X5451468Y-28343365D01*
X5536332Y-28332728D01*
X5627720Y-28330321D01*
X5716859Y-28336199D01*
G36*
X5716859Y-28336199D02*
G01*
X5794978Y-28350417D01*
X5823802Y-28359404D01*
X5908134Y-28398797D01*
X5973502Y-28449277D01*
X6024280Y-28513290D01*
X6050511Y-28559209D01*
X6070444Y-28606459D01*
X6085099Y-28659844D01*
X6095498Y-28724168D01*
X6102664Y-28804235D01*
X6107616Y-28904850D01*
X6107633Y-28905325D01*
X6115297Y-29111700D01*
X5117649Y-29111700D01*
X5122433Y-28933900D01*
X5285900Y-28933900D01*
X5946300Y-28933900D01*
X5946300Y-28840912D01*
X5938435Y-28742306D01*
X5914773Y-28663368D01*
X5875212Y-28603795D01*
X5862865Y-28591926D01*
X5800542Y-28552361D01*
X5723783Y-28526695D01*
X5639123Y-28515068D01*
X5553098Y-28517618D01*
X5472243Y-28534485D01*
X5403096Y-28565806D01*
X5381042Y-28581698D01*
X5336230Y-28627785D01*
X5306838Y-28681878D01*
X5290833Y-28749282D01*
X5286178Y-28829125D01*
X5285900Y-28933900D01*
X5122433Y-28933900D01*
X5123715Y-28886275D01*
X5126367Y-28801383D01*
X5129495Y-28737015D01*
X5133669Y-28688292D01*
X5139457Y-28650338D01*
X5147430Y-28618277D01*
X5158158Y-28587230D01*
X5158860Y-28585400D01*
X5204318Y-28501508D01*
X5269174Y-28430477D01*
X5348793Y-28376945D01*
X5381900Y-28362177D01*
X5451468Y-28343365D01*
X5536332Y-28332728D01*
X5627720Y-28330321D01*
X5716859Y-28336199D01*
G37*
X10754266Y-13066202D02*
X10757297Y-13098072D01*
X10758628Y-13147515D01*
X10758150Y-13206751D01*
X10756802Y-13247177D01*
X10748989Y-13342446D01*
X10733652Y-13417090D01*
X10708786Y-13475275D01*
X10672386Y-13521171D01*
X10622446Y-13558943D01*
X10600850Y-13571310D01*
X10585384Y-13579038D01*
X10568868Y-13585200D01*
X10548294Y-13590011D01*
X10520656Y-13593682D01*
X10482945Y-13596426D01*
X10432155Y-13598456D01*
X10365277Y-13599985D01*
X10279305Y-13601224D01*
X10171231Y-13602386D01*
X10159525Y-13602502D01*
X9769000Y-13606354D01*
X9769000Y-13782800D01*
X9663166Y-13782800D01*
X9613566Y-13781846D01*
X9574176Y-13779308D01*
X9551529Y-13775669D01*
X9548866Y-13774333D01*
X9544459Y-13758092D01*
X9541397Y-13724192D01*
X9540400Y-13685433D01*
X9540400Y-13605000D01*
X9273700Y-13605000D01*
X9273700Y-13351000D01*
X9540400Y-13351000D01*
X9540400Y-13046200D01*
X9769000Y-13046200D01*
X9769000Y-13351000D01*
X10083325Y-13350929D01*
X10181103Y-13350348D01*
X10268975Y-13348740D01*
X10343422Y-13346236D01*
X10400925Y-13342968D01*
X10437964Y-13339067D01*
X10446289Y-13337352D01*
X10481550Y-13321386D01*
X10506190Y-13293920D01*
X10521657Y-13251399D01*
X10529396Y-13190269D01*
X10531000Y-13129157D01*
X10531000Y-13020800D01*
X10745749Y-13020800D01*
X10754266Y-13066202D01*
G36*
X10754266Y-13066202D02*
G01*
X10757297Y-13098072D01*
X10758628Y-13147515D01*
X10758150Y-13206751D01*
X10756802Y-13247177D01*
X10748989Y-13342446D01*
X10733652Y-13417090D01*
X10708786Y-13475275D01*
X10672386Y-13521171D01*
X10622446Y-13558943D01*
X10600850Y-13571310D01*
X10585384Y-13579038D01*
X10568868Y-13585200D01*
X10548294Y-13590011D01*
X10520656Y-13593682D01*
X10482945Y-13596426D01*
X10432155Y-13598456D01*
X10365277Y-13599985D01*
X10279305Y-13601224D01*
X10171231Y-13602386D01*
X10159525Y-13602502D01*
X9769000Y-13606354D01*
X9769000Y-13782800D01*
X9663166Y-13782800D01*
X9613566Y-13781846D01*
X9574176Y-13779308D01*
X9551529Y-13775669D01*
X9548866Y-13774333D01*
X9544459Y-13758092D01*
X9541397Y-13724192D01*
X9540400Y-13685433D01*
X9540400Y-13605000D01*
X9273700Y-13605000D01*
X9273700Y-13351000D01*
X9540400Y-13351000D01*
X9540400Y-13046200D01*
X9769000Y-13046200D01*
X9769000Y-13351000D01*
X10083325Y-13350929D01*
X10181103Y-13350348D01*
X10268975Y-13348740D01*
X10343422Y-13346236D01*
X10400925Y-13342968D01*
X10437964Y-13339067D01*
X10446289Y-13337352D01*
X10481550Y-13321386D01*
X10506190Y-13293920D01*
X10521657Y-13251399D01*
X10529396Y-13190269D01*
X10531000Y-13129157D01*
X10531000Y-13020800D01*
X10745749Y-13020800D01*
X10754266Y-13066202D01*
G37*
X3269371Y-4322613D02*
X3356236Y-4327030D01*
X3425363Y-4335266D01*
X3480524Y-4348034D01*
X3525493Y-4366050D01*
X3564045Y-4390028D01*
X3576809Y-4400034D01*
X3632593Y-4460903D01*
X3667555Y-4531206D01*
X3682215Y-4606605D01*
X3677097Y-4682766D01*
X3652720Y-4755353D01*
X3609606Y-4820029D01*
X3548278Y-4872458D01*
X3517948Y-4889428D01*
X3471445Y-4912047D01*
X3563184Y-5057998D01*
X3599980Y-5116635D01*
X3634544Y-5171887D01*
X3663257Y-5217958D01*
X3682501Y-5249051D01*
X3684046Y-5251575D01*
X3713171Y-5299200D01*
X3613710Y-5299004D01*
X3514250Y-5298808D01*
X3408349Y-5114854D01*
X3302449Y-4930900D01*
X3114200Y-4930900D01*
X3114200Y-5299200D01*
X2936400Y-5299200D01*
X2936400Y-4778500D01*
X3114200Y-4778500D01*
X3240373Y-4778500D01*
X3298645Y-4777151D01*
X3350946Y-4773532D01*
X3389646Y-4768280D01*
X3402298Y-4764954D01*
X3457043Y-4733092D01*
X3491428Y-4688655D01*
X3503832Y-4635177D01*
X3492633Y-4576196D01*
X3490878Y-4571846D01*
X3471009Y-4536975D01*
X3442313Y-4511615D01*
X3400830Y-4494187D01*
X3342598Y-4483115D01*
X3263658Y-4476823D01*
X3250725Y-4476233D01*
X3114200Y-4470437D01*
X3114200Y-4778500D01*
X2936400Y-4778500D01*
X2936400Y-4321300D01*
X3160991Y-4321300D01*
X3269371Y-4322613D01*
G36*
X3269371Y-4322613D02*
G01*
X3356236Y-4327030D01*
X3425363Y-4335266D01*
X3480524Y-4348034D01*
X3525493Y-4366050D01*
X3564045Y-4390028D01*
X3576809Y-4400034D01*
X3632593Y-4460903D01*
X3667555Y-4531206D01*
X3682215Y-4606605D01*
X3677097Y-4682766D01*
X3652720Y-4755353D01*
X3609606Y-4820029D01*
X3548278Y-4872458D01*
X3517948Y-4889428D01*
X3471445Y-4912047D01*
X3563184Y-5057998D01*
X3599980Y-5116635D01*
X3634544Y-5171887D01*
X3663257Y-5217958D01*
X3682501Y-5249051D01*
X3684046Y-5251575D01*
X3713171Y-5299200D01*
X3613710Y-5299004D01*
X3514250Y-5298808D01*
X3408349Y-5114854D01*
X3302449Y-4930900D01*
X3114200Y-4930900D01*
X3114200Y-5299200D01*
X2936400Y-5299200D01*
X2936400Y-4778500D01*
X3114200Y-4778500D01*
X3240373Y-4778500D01*
X3298645Y-4777151D01*
X3350946Y-4773532D01*
X3389646Y-4768280D01*
X3402298Y-4764954D01*
X3457043Y-4733092D01*
X3491428Y-4688655D01*
X3503832Y-4635177D01*
X3492633Y-4576196D01*
X3490878Y-4571846D01*
X3471009Y-4536975D01*
X3442313Y-4511615D01*
X3400830Y-4494187D01*
X3342598Y-4483115D01*
X3263658Y-4476823D01*
X3250725Y-4476233D01*
X3114200Y-4470437D01*
X3114200Y-4778500D01*
X2936400Y-4778500D01*
X2936400Y-4321300D01*
X3160991Y-4321300D01*
X3269371Y-4322613D01*
G37*
X5492275Y-25570869D02*
X5863750Y-25574750D01*
X5929140Y-25609237D01*
X6003135Y-25659982D01*
X6058020Y-25724799D01*
X6094548Y-25805158D01*
X6113475Y-25902529D01*
X6116697Y-25974800D01*
X6107360Y-26079291D01*
X6079396Y-26167037D01*
X6032021Y-26239372D01*
X5964451Y-26297628D01*
X5908200Y-26329112D01*
X5887243Y-26338764D01*
X5867731Y-26346364D01*
X5846361Y-26352197D01*
X5819830Y-26356551D01*
X5784833Y-26359714D01*
X5738067Y-26361972D01*
X5676230Y-26363612D01*
X5596018Y-26364921D01*
X5494127Y-26366186D01*
X5479575Y-26366357D01*
X5120800Y-26370565D01*
X5120800Y-26192543D01*
X5460525Y-26188446D01*
X5563581Y-26187068D01*
X5644516Y-26185547D01*
X5706605Y-26183635D01*
X5753127Y-26181085D01*
X5787358Y-26177647D01*
X5812576Y-26173074D01*
X5832058Y-26167118D01*
X5849081Y-26159530D01*
X5850230Y-26158950D01*
X5901502Y-26125124D01*
X5934231Y-26082548D01*
X5951871Y-26025512D01*
X5956575Y-25983141D01*
X5953437Y-25904630D01*
X5932287Y-25843080D01*
X5892253Y-25796706D01*
X5853815Y-25772938D01*
X5835816Y-25764880D01*
X5816921Y-25758622D01*
X5793795Y-25753938D01*
X5763102Y-25750601D01*
X5721508Y-25748387D01*
X5665677Y-25747067D01*
X5592276Y-25746417D01*
X5497969Y-25746209D01*
X5459690Y-25746200D01*
X5120800Y-25746200D01*
X5120800Y-25566989D01*
X5492275Y-25570869D01*
G36*
X5492275Y-25570869D02*
G01*
X5863750Y-25574750D01*
X5929140Y-25609237D01*
X6003135Y-25659982D01*
X6058020Y-25724799D01*
X6094548Y-25805158D01*
X6113475Y-25902529D01*
X6116697Y-25974800D01*
X6107360Y-26079291D01*
X6079396Y-26167037D01*
X6032021Y-26239372D01*
X5964451Y-26297628D01*
X5908200Y-26329112D01*
X5887243Y-26338764D01*
X5867731Y-26346364D01*
X5846361Y-26352197D01*
X5819830Y-26356551D01*
X5784833Y-26359714D01*
X5738067Y-26361972D01*
X5676230Y-26363612D01*
X5596018Y-26364921D01*
X5494127Y-26366186D01*
X5479575Y-26366357D01*
X5120800Y-26370565D01*
X5120800Y-26192543D01*
X5460525Y-26188446D01*
X5563581Y-26187068D01*
X5644516Y-26185547D01*
X5706605Y-26183635D01*
X5753127Y-26181085D01*
X5787358Y-26177647D01*
X5812576Y-26173074D01*
X5832058Y-26167118D01*
X5849081Y-26159530D01*
X5850230Y-26158950D01*
X5901502Y-26125124D01*
X5934231Y-26082548D01*
X5951871Y-26025512D01*
X5956575Y-25983141D01*
X5953437Y-25904630D01*
X5932287Y-25843080D01*
X5892253Y-25796706D01*
X5853815Y-25772938D01*
X5835816Y-25764880D01*
X5816921Y-25758622D01*
X5793795Y-25753938D01*
X5763102Y-25750601D01*
X5721508Y-25748387D01*
X5665677Y-25747067D01*
X5592276Y-25746417D01*
X5497969Y-25746209D01*
X5459690Y-25746200D01*
X5120800Y-25746200D01*
X5120800Y-25566989D01*
X5492275Y-25570869D01*
G37*
X10746900Y-19739100D02*
X10582367Y-19739100D01*
X10640370Y-19792565D01*
X10679415Y-19834433D01*
X10715884Y-19883087D01*
X10732161Y-19910040D01*
X10747278Y-19940957D01*
X10757090Y-19969504D01*
X10762723Y-20002493D01*
X10765300Y-20046735D01*
X10765947Y-20109043D01*
X10765950Y-20114647D01*
X10765465Y-20178035D01*
X10763168Y-20223149D01*
X10757795Y-20257110D01*
X10748081Y-20287039D01*
X10732763Y-20320056D01*
X10727718Y-20330002D01*
X10674162Y-20408213D01*
X10602910Y-20468251D01*
X10514564Y-20509750D01*
X10493638Y-20515729D01*
X10468450Y-20520633D01*
X10436222Y-20524603D01*
X10394177Y-20527780D01*
X10339535Y-20530307D01*
X10269519Y-20532324D01*
X10181351Y-20533973D01*
X10072251Y-20535394D01*
X9994425Y-20536209D01*
X9540400Y-20540665D01*
X9540400Y-20286792D01*
X9949975Y-20282821D01*
X10063497Y-20281639D01*
X10154594Y-20280400D01*
X10226237Y-20278907D01*
X10281400Y-20276964D01*
X10323056Y-20274374D01*
X10354177Y-20270941D01*
X10377739Y-20266467D01*
X10396712Y-20260757D01*
X10414071Y-20253613D01*
X10417870Y-20251875D01*
X10474350Y-20217554D01*
X10512037Y-20173336D01*
X10533729Y-20114642D01*
X10541722Y-20049146D01*
X10538107Y-19966676D01*
X10516878Y-19899605D01*
X10476343Y-19843542D01*
X10454754Y-19823560D01*
X10429711Y-19804381D01*
X10402927Y-19788910D01*
X10371466Y-19776759D01*
X10332390Y-19767539D01*
X10282763Y-19760862D01*
X10219649Y-19756338D01*
X10140111Y-19753579D01*
X10041212Y-19752196D01*
X9920016Y-19751800D01*
X9540400Y-19751800D01*
X9540400Y-19497800D01*
X10746900Y-19497800D01*
X10746900Y-19739100D01*
G36*
X10746900Y-19739100D02*
G01*
X10582367Y-19739100D01*
X10640370Y-19792565D01*
X10679415Y-19834433D01*
X10715884Y-19883087D01*
X10732161Y-19910040D01*
X10747278Y-19940957D01*
X10757090Y-19969504D01*
X10762723Y-20002493D01*
X10765300Y-20046735D01*
X10765947Y-20109043D01*
X10765950Y-20114647D01*
X10765465Y-20178035D01*
X10763168Y-20223149D01*
X10757795Y-20257110D01*
X10748081Y-20287039D01*
X10732763Y-20320056D01*
X10727718Y-20330002D01*
X10674162Y-20408213D01*
X10602910Y-20468251D01*
X10514564Y-20509750D01*
X10493638Y-20515729D01*
X10468450Y-20520633D01*
X10436222Y-20524603D01*
X10394177Y-20527780D01*
X10339535Y-20530307D01*
X10269519Y-20532324D01*
X10181351Y-20533973D01*
X10072251Y-20535394D01*
X9994425Y-20536209D01*
X9540400Y-20540665D01*
X9540400Y-20286792D01*
X9949975Y-20282821D01*
X10063497Y-20281639D01*
X10154594Y-20280400D01*
X10226237Y-20278907D01*
X10281400Y-20276964D01*
X10323056Y-20274374D01*
X10354177Y-20270941D01*
X10377739Y-20266467D01*
X10396712Y-20260757D01*
X10414071Y-20253613D01*
X10417870Y-20251875D01*
X10474350Y-20217554D01*
X10512037Y-20173336D01*
X10533729Y-20114642D01*
X10541722Y-20049146D01*
X10538107Y-19966676D01*
X10516878Y-19899605D01*
X10476343Y-19843542D01*
X10454754Y-19823560D01*
X10429711Y-19804381D01*
X10402927Y-19788910D01*
X10371466Y-19776759D01*
X10332390Y-19767539D01*
X10282763Y-19760862D01*
X10219649Y-19756338D01*
X10140111Y-19753579D01*
X10041212Y-19752196D01*
X9920016Y-19751800D01*
X9540400Y-19751800D01*
X9540400Y-19497800D01*
X10746900Y-19497800D01*
X10746900Y-19739100D01*
G37*
X5682775Y-24532904D02*
X5804205Y-24551268D01*
X5904198Y-24582564D01*
X5983692Y-24627701D01*
X6043624Y-24687590D01*
X6084933Y-24763139D01*
X6108557Y-24855261D01*
X6115471Y-24952729D01*
X6114454Y-25014241D01*
X6109800Y-25059569D01*
X6099945Y-25097845D01*
X6083936Y-25136879D01*
X6045156Y-25208640D01*
X6000785Y-25262419D01*
X5944028Y-25305606D01*
X5912027Y-25323878D01*
X5822953Y-25359618D01*
X5719671Y-25382059D01*
X5610100Y-25390378D01*
X5502160Y-25383748D01*
X5443286Y-25372696D01*
X5381428Y-25353130D01*
X5318980Y-25325832D01*
X5265860Y-25295482D01*
X5243146Y-25278248D01*
X5189534Y-25215173D01*
X5148695Y-25135607D01*
X5121909Y-25045708D01*
X5110453Y-24951633D01*
X5115603Y-24859541D01*
X5138639Y-24775589D01*
X5138788Y-24775231D01*
X5183143Y-24699479D01*
X5245821Y-24634577D01*
X5320876Y-24585603D01*
X5390675Y-24560123D01*
X5425600Y-24551916D01*
X5425600Y-24740996D01*
X5372888Y-24770523D01*
X5319028Y-24814143D01*
X5285485Y-24872487D01*
X5273236Y-24943813D01*
X5273200Y-24948250D01*
X5283254Y-25028149D01*
X5313465Y-25092784D01*
X5363900Y-25142206D01*
X5434628Y-25176467D01*
X5525718Y-25195618D01*
X5610036Y-25200100D01*
X5718035Y-25192362D01*
X5806460Y-25169294D01*
X5875012Y-25131116D01*
X5923394Y-25078045D01*
X5951310Y-25010301D01*
X5958721Y-24943751D01*
X5948692Y-24864290D01*
X5918164Y-24799716D01*
X5867693Y-24750741D01*
X5797834Y-24718077D01*
X5778025Y-24712690D01*
X5743100Y-24704316D01*
X5743100Y-24920700D01*
X5590700Y-24920700D01*
X5590700Y-24524422D01*
X5682775Y-24532904D01*
G36*
X5682775Y-24532904D02*
G01*
X5804205Y-24551268D01*
X5904198Y-24582564D01*
X5983692Y-24627701D01*
X6043624Y-24687590D01*
X6084933Y-24763139D01*
X6108557Y-24855261D01*
X6115471Y-24952729D01*
X6114454Y-25014241D01*
X6109800Y-25059569D01*
X6099945Y-25097845D01*
X6083936Y-25136879D01*
X6045156Y-25208640D01*
X6000785Y-25262419D01*
X5944028Y-25305606D01*
X5912027Y-25323878D01*
X5822953Y-25359618D01*
X5719671Y-25382059D01*
X5610100Y-25390378D01*
X5502160Y-25383748D01*
X5443286Y-25372696D01*
X5381428Y-25353130D01*
X5318980Y-25325832D01*
X5265860Y-25295482D01*
X5243146Y-25278248D01*
X5189534Y-25215173D01*
X5148695Y-25135607D01*
X5121909Y-25045708D01*
X5110453Y-24951633D01*
X5115603Y-24859541D01*
X5138639Y-24775589D01*
X5138788Y-24775231D01*
X5183143Y-24699479D01*
X5245821Y-24634577D01*
X5320876Y-24585603D01*
X5390675Y-24560123D01*
X5425600Y-24551916D01*
X5425600Y-24740996D01*
X5372888Y-24770523D01*
X5319028Y-24814143D01*
X5285485Y-24872487D01*
X5273236Y-24943813D01*
X5273200Y-24948250D01*
X5283254Y-25028149D01*
X5313465Y-25092784D01*
X5363900Y-25142206D01*
X5434628Y-25176467D01*
X5525718Y-25195618D01*
X5610036Y-25200100D01*
X5718035Y-25192362D01*
X5806460Y-25169294D01*
X5875012Y-25131116D01*
X5923394Y-25078045D01*
X5951310Y-25010301D01*
X5958721Y-24943751D01*
X5948692Y-24864290D01*
X5918164Y-24799716D01*
X5867693Y-24750741D01*
X5797834Y-24718077D01*
X5778025Y-24712690D01*
X5743100Y-24704316D01*
X5743100Y-24920700D01*
X5590700Y-24920700D01*
X5590700Y-24524422D01*
X5682775Y-24532904D01*
G37*
X10740392Y-20689888D02*
X10744236Y-20708215D01*
X10746183Y-20742189D01*
X10746851Y-20795781D01*
X10746900Y-20827717D01*
X10746900Y-20978246D01*
X10397650Y-21106604D01*
X10397650Y-21739349D01*
X10572203Y-21802849D01*
X10746757Y-21866350D01*
X10746828Y-22009225D01*
X10746593Y-22065995D01*
X10745902Y-22111998D01*
X10744863Y-22142187D01*
X10743725Y-22151662D01*
X10731568Y-22147216D01*
X10698129Y-22134689D01*
X10645877Y-22115014D01*
X10577275Y-22089120D01*
X10494792Y-22057941D01*
X10400892Y-22022406D01*
X10298044Y-21983448D01*
X10238900Y-21961030D01*
X10117474Y-21914994D01*
X9991128Y-21867095D01*
X9864601Y-21819130D01*
X9742629Y-21772893D01*
X9629951Y-21730182D01*
X9531304Y-21692792D01*
X9451427Y-21662520D01*
X9447926Y-21661193D01*
X9158602Y-21551551D01*
X9161971Y-21420303D01*
X9526502Y-21420303D01*
X9828726Y-21530772D01*
X9911429Y-21560924D01*
X9986248Y-21588052D01*
X10049878Y-21610972D01*
X10099014Y-21628495D01*
X10130351Y-21639437D01*
X10140475Y-21642670D01*
X10143559Y-21631129D01*
X10146228Y-21598222D01*
X10148305Y-21547986D01*
X10149617Y-21484453D01*
X10150000Y-21422386D01*
X10150000Y-21200672D01*
X9949975Y-21271199D01*
X9872350Y-21298562D01*
X9792987Y-21326526D01*
X9719347Y-21352463D01*
X9658889Y-21373745D01*
X9638226Y-21381014D01*
X9526502Y-21420303D01*
X9161971Y-21420303D01*
X9162176Y-21412344D01*
X9165750Y-21273136D01*
X9933959Y-20982260D01*
X10067388Y-20931759D01*
X10194147Y-20883823D01*
X10312180Y-20839226D01*
X10419435Y-20798743D01*
X10513856Y-20763147D01*
X10593389Y-20733212D01*
X10655981Y-20709714D01*
X10699576Y-20693427D01*
X10722122Y-20685124D01*
X10724534Y-20684286D01*
X10734032Y-20683236D01*
X10740392Y-20689888D01*
G36*
X10740392Y-20689888D02*
G01*
X10744236Y-20708215D01*
X10746183Y-20742189D01*
X10746851Y-20795781D01*
X10746900Y-20827717D01*
X10746900Y-20978246D01*
X10397650Y-21106604D01*
X10397650Y-21739349D01*
X10572203Y-21802849D01*
X10746757Y-21866350D01*
X10746828Y-22009225D01*
X10746593Y-22065995D01*
X10745902Y-22111998D01*
X10744863Y-22142187D01*
X10743725Y-22151662D01*
X10731568Y-22147216D01*
X10698129Y-22134689D01*
X10645877Y-22115014D01*
X10577275Y-22089120D01*
X10494792Y-22057941D01*
X10400892Y-22022406D01*
X10298044Y-21983448D01*
X10238900Y-21961030D01*
X10117474Y-21914994D01*
X9991128Y-21867095D01*
X9864601Y-21819130D01*
X9742629Y-21772893D01*
X9629951Y-21730182D01*
X9531304Y-21692792D01*
X9451427Y-21662520D01*
X9447926Y-21661193D01*
X9158602Y-21551551D01*
X9161971Y-21420303D01*
X9526502Y-21420303D01*
X9828726Y-21530772D01*
X9911429Y-21560924D01*
X9986248Y-21588052D01*
X10049878Y-21610972D01*
X10099014Y-21628495D01*
X10130351Y-21639437D01*
X10140475Y-21642670D01*
X10143559Y-21631129D01*
X10146228Y-21598222D01*
X10148305Y-21547986D01*
X10149617Y-21484453D01*
X10150000Y-21422386D01*
X10150000Y-21200672D01*
X9949975Y-21271199D01*
X9872350Y-21298562D01*
X9792987Y-21326526D01*
X9719347Y-21352463D01*
X9658889Y-21373745D01*
X9638226Y-21381014D01*
X9526502Y-21420303D01*
X9161971Y-21420303D01*
X9162176Y-21412344D01*
X9165750Y-21273136D01*
X9933959Y-20982260D01*
X10067388Y-20931759D01*
X10194147Y-20883823D01*
X10312180Y-20839226D01*
X10419435Y-20798743D01*
X10513856Y-20763147D01*
X10593389Y-20733212D01*
X10655981Y-20709714D01*
X10699576Y-20693427D01*
X10722122Y-20685124D01*
X10724534Y-20684286D01*
X10734032Y-20683236D01*
X10740392Y-20689888D01*
G37*
X-9837204Y-20130561D02*
X-9709796Y-20160318D01*
X-9597951Y-20209354D01*
X-9502341Y-20277212D01*
X-9423641Y-20363434D01*
X-9362524Y-20467564D01*
X-9326662Y-20563730D01*
X-9311712Y-20641264D01*
X-9306467Y-20731733D01*
X-9310787Y-20824655D01*
X-9324532Y-20909551D01*
X-9331613Y-20935653D01*
X-9352536Y-20994202D01*
X-9379321Y-21050812D01*
X-9413751Y-21107467D01*
X-9457610Y-21166147D01*
X-9512681Y-21228833D01*
X-9580749Y-21297508D01*
X-9663597Y-21374152D01*
X-9763009Y-21460747D01*
X-9880769Y-21559274D01*
X-9927656Y-21597767D01*
X-10225061Y-21840950D01*
X-9746681Y-21844277D01*
X-9268300Y-21847605D01*
X-9268300Y-22164800D01*
X-10741500Y-22164800D01*
X-10740979Y-22021925D01*
X-10740457Y-21879050D01*
X-10320689Y-21517100D01*
X-10190850Y-21404793D01*
X-10079172Y-21307168D01*
X-9984302Y-21222644D01*
X-9904887Y-21149644D01*
X-9839574Y-21086587D01*
X-9787010Y-21031895D01*
X-9745842Y-20983989D01*
X-9714718Y-20941289D01*
X-9692285Y-20902217D01*
X-9677190Y-20865194D01*
X-9668079Y-20828640D01*
X-9663601Y-20790977D01*
X-9662402Y-20750625D01*
X-9662403Y-20748750D01*
X-9670101Y-20663194D01*
X-9694273Y-20593164D01*
X-9737035Y-20533231D01*
X-9752525Y-20517618D01*
X-9806807Y-20475847D01*
X-9867296Y-20450387D01*
X-9940814Y-20438870D01*
X-9983180Y-20437600D01*
X-10087802Y-20447222D01*
X-10175768Y-20475958D01*
X-10246852Y-20523614D01*
X-10300830Y-20589996D01*
X-10337476Y-20674908D01*
X-10354441Y-20758275D01*
X-10363427Y-20831300D01*
X-10539764Y-20831300D01*
X-10612516Y-20831661D01*
X-10663201Y-20830557D01*
X-10695083Y-20824702D01*
X-10711430Y-20810812D01*
X-10715508Y-20785602D01*
X-10710584Y-20745788D01*
X-10699924Y-20688086D01*
X-10697193Y-20673002D01*
X-10662840Y-20546503D01*
X-10608204Y-20434326D01*
X-10534667Y-20337534D01*
X-10443612Y-20257193D01*
X-10336422Y-20194365D01*
X-10214479Y-20150116D01*
X-10079165Y-20125510D01*
X-9979500Y-20120541D01*
X-9837204Y-20130561D01*
G36*
X-9837204Y-20130561D02*
G01*
X-9709796Y-20160318D01*
X-9597951Y-20209354D01*
X-9502341Y-20277212D01*
X-9423641Y-20363434D01*
X-9362524Y-20467564D01*
X-9326662Y-20563730D01*
X-9311712Y-20641264D01*
X-9306467Y-20731733D01*
X-9310787Y-20824655D01*
X-9324532Y-20909551D01*
X-9331613Y-20935653D01*
X-9352536Y-20994202D01*
X-9379321Y-21050812D01*
X-9413751Y-21107467D01*
X-9457610Y-21166147D01*
X-9512681Y-21228833D01*
X-9580749Y-21297508D01*
X-9663597Y-21374152D01*
X-9763009Y-21460747D01*
X-9880769Y-21559274D01*
X-9927656Y-21597767D01*
X-10225061Y-21840950D01*
X-9746681Y-21844277D01*
X-9268300Y-21847605D01*
X-9268300Y-22164800D01*
X-10741500Y-22164800D01*
X-10740979Y-22021925D01*
X-10740457Y-21879050D01*
X-10320689Y-21517100D01*
X-10190850Y-21404793D01*
X-10079172Y-21307168D01*
X-9984302Y-21222644D01*
X-9904887Y-21149644D01*
X-9839574Y-21086587D01*
X-9787010Y-21031895D01*
X-9745842Y-20983989D01*
X-9714718Y-20941289D01*
X-9692285Y-20902217D01*
X-9677190Y-20865194D01*
X-9668079Y-20828640D01*
X-9663601Y-20790977D01*
X-9662402Y-20750625D01*
X-9662403Y-20748750D01*
X-9670101Y-20663194D01*
X-9694273Y-20593164D01*
X-9737035Y-20533231D01*
X-9752525Y-20517618D01*
X-9806807Y-20475847D01*
X-9867296Y-20450387D01*
X-9940814Y-20438870D01*
X-9983180Y-20437600D01*
X-10087802Y-20447222D01*
X-10175768Y-20475958D01*
X-10246852Y-20523614D01*
X-10300830Y-20589996D01*
X-10337476Y-20674908D01*
X-10354441Y-20758275D01*
X-10363427Y-20831300D01*
X-10539764Y-20831300D01*
X-10612516Y-20831661D01*
X-10663201Y-20830557D01*
X-10695083Y-20824702D01*
X-10711430Y-20810812D01*
X-10715508Y-20785602D01*
X-10710584Y-20745788D01*
X-10699924Y-20688086D01*
X-10697193Y-20673002D01*
X-10662840Y-20546503D01*
X-10608204Y-20434326D01*
X-10534667Y-20337534D01*
X-10443612Y-20257193D01*
X-10336422Y-20194365D01*
X-10214479Y-20150116D01*
X-10079165Y-20125510D01*
X-9979500Y-20120541D01*
X-9837204Y-20130561D01*
G37*
X10285833Y-11685283D02*
X10407691Y-11715389D01*
X10513740Y-11764199D01*
X10602993Y-11830778D01*
X10674460Y-11914187D01*
X10727151Y-12013491D01*
X10760077Y-12127751D01*
X10772250Y-12256031D01*
X10772300Y-12265150D01*
X10761667Y-12394306D01*
X10730275Y-12509756D01*
X10678886Y-12610499D01*
X10608259Y-12695538D01*
X10519155Y-12763871D01*
X10412335Y-12814499D01*
X10337568Y-12836552D01*
X10276858Y-12846309D01*
X10200455Y-12852045D01*
X10117765Y-12853630D01*
X10038196Y-12850934D01*
X9971153Y-12843829D01*
X9959500Y-12841755D01*
X9857581Y-12809408D01*
X9763104Y-12755556D01*
X9679797Y-12683822D01*
X9611386Y-12597831D01*
X9561600Y-12501203D01*
X9541160Y-12435143D01*
X9533008Y-12379977D01*
X9529062Y-12309897D01*
X9529160Y-12262957D01*
X9754712Y-12262957D01*
X9763271Y-12350280D01*
X9790100Y-12423039D01*
X9836318Y-12485308D01*
X9879715Y-12525585D01*
X9923882Y-12554090D01*
X9974203Y-12572463D01*
X10036062Y-12582347D01*
X10114841Y-12585383D01*
X10162700Y-12584836D01*
X10228798Y-12582758D01*
X10276213Y-12579213D01*
X10311661Y-12573016D01*
X10341858Y-12562987D01*
X10373518Y-12547944D01*
X10374140Y-12547622D01*
X10446694Y-12496781D01*
X10500347Y-12431551D01*
X10533872Y-12355784D01*
X10546040Y-12273333D01*
X10535625Y-12188051D01*
X10510234Y-12120430D01*
X10462746Y-12050600D01*
X10398227Y-11998223D01*
X10315984Y-11962962D01*
X10215328Y-11944480D01*
X10142803Y-11941300D01*
X10033551Y-11950242D01*
X9940808Y-11976501D01*
X9865601Y-12019225D01*
X9808959Y-12077561D01*
X9771909Y-12150658D01*
X9755479Y-12237663D01*
X9754712Y-12262957D01*
X9529160Y-12262957D01*
X9529221Y-12234145D01*
X9533384Y-12161965D01*
X9541450Y-12102600D01*
X9544963Y-12087350D01*
X9586641Y-11976081D01*
X9647305Y-11881156D01*
X9725930Y-11803273D01*
X9821491Y-11743133D01*
X9932962Y-11701437D01*
X10059319Y-11678883D01*
X10149157Y-11674820D01*
X10285833Y-11685283D01*
G36*
X10285833Y-11685283D02*
G01*
X10407691Y-11715389D01*
X10513740Y-11764199D01*
X10602993Y-11830778D01*
X10674460Y-11914187D01*
X10727151Y-12013491D01*
X10760077Y-12127751D01*
X10772250Y-12256031D01*
X10772300Y-12265150D01*
X10761667Y-12394306D01*
X10730275Y-12509756D01*
X10678886Y-12610499D01*
X10608259Y-12695538D01*
X10519155Y-12763871D01*
X10412335Y-12814499D01*
X10337568Y-12836552D01*
X10276858Y-12846309D01*
X10200455Y-12852045D01*
X10117765Y-12853630D01*
X10038196Y-12850934D01*
X9971153Y-12843829D01*
X9959500Y-12841755D01*
X9857581Y-12809408D01*
X9763104Y-12755556D01*
X9679797Y-12683822D01*
X9611386Y-12597831D01*
X9561600Y-12501203D01*
X9541160Y-12435143D01*
X9533008Y-12379977D01*
X9529062Y-12309897D01*
X9529160Y-12262957D01*
X9754712Y-12262957D01*
X9763271Y-12350280D01*
X9790100Y-12423039D01*
X9836318Y-12485308D01*
X9879715Y-12525585D01*
X9923882Y-12554090D01*
X9974203Y-12572463D01*
X10036062Y-12582347D01*
X10114841Y-12585383D01*
X10162700Y-12584836D01*
X10228798Y-12582758D01*
X10276213Y-12579213D01*
X10311661Y-12573016D01*
X10341858Y-12562987D01*
X10373518Y-12547944D01*
X10374140Y-12547622D01*
X10446694Y-12496781D01*
X10500347Y-12431551D01*
X10533872Y-12355784D01*
X10546040Y-12273333D01*
X10535625Y-12188051D01*
X10510234Y-12120430D01*
X10462746Y-12050600D01*
X10398227Y-11998223D01*
X10315984Y-11962962D01*
X10215328Y-11944480D01*
X10142803Y-11941300D01*
X10033551Y-11950242D01*
X9940808Y-11976501D01*
X9865601Y-12019225D01*
X9808959Y-12077561D01*
X9771909Y-12150658D01*
X9755479Y-12237663D01*
X9754712Y-12262957D01*
X9529160Y-12262957D01*
X9529221Y-12234145D01*
X9533384Y-12161965D01*
X9541450Y-12102600D01*
X9544963Y-12087350D01*
X9586641Y-11976081D01*
X9647305Y-11881156D01*
X9725930Y-11803273D01*
X9821491Y-11743133D01*
X9932962Y-11701437D01*
X10059319Y-11678883D01*
X10149157Y-11674820D01*
X10285833Y-11685283D01*
G37*
X10285557Y-17187165D02*
X10396270Y-17212624D01*
X10430426Y-17224546D01*
X10529049Y-17275636D01*
X10615322Y-17346735D01*
X10685516Y-17433960D01*
X10735905Y-17533429D01*
X10741248Y-17548350D01*
X10756476Y-17611509D01*
X10766266Y-17690036D01*
X10770128Y-17774385D01*
X10767571Y-17855011D01*
X10759992Y-17913456D01*
X10725853Y-18023820D01*
X10670422Y-18122447D01*
X10596061Y-18206852D01*
X10505132Y-18274546D01*
X10399999Y-18323044D01*
X10359105Y-18335332D01*
X10305410Y-18344815D01*
X10235488Y-18350852D01*
X10157095Y-18353420D01*
X10077985Y-18352494D01*
X10005914Y-18348053D01*
X9948637Y-18340072D01*
X9934100Y-18336601D01*
X9844144Y-18302936D01*
X9759217Y-18255371D01*
X9689262Y-18199511D01*
X9687105Y-18197373D01*
X9620176Y-18117479D01*
X9572385Y-18029242D01*
X9542383Y-17928985D01*
X9528823Y-17813032D01*
X9527892Y-17771281D01*
X9756424Y-17771281D01*
X9767165Y-17862523D01*
X9799070Y-17940263D01*
X9851224Y-18003554D01*
X9922712Y-18051450D01*
X10012617Y-18083004D01*
X10067450Y-18092783D01*
X10110735Y-18094726D01*
X10168672Y-18092771D01*
X10230943Y-18087683D01*
X10287229Y-18080227D01*
X10316317Y-18074323D01*
X10374266Y-18049997D01*
X10433151Y-18009090D01*
X10483942Y-17958387D01*
X10500701Y-17935784D01*
X10522550Y-17894530D01*
X10535183Y-17846814D01*
X10540624Y-17797783D01*
X10540745Y-17718632D01*
X10526762Y-17654491D01*
X10496295Y-17597839D01*
X10465528Y-17560382D01*
X10403209Y-17507243D01*
X10328052Y-17470700D01*
X10236568Y-17449351D01*
X10174699Y-17443379D01*
X10063409Y-17445973D01*
X9967521Y-17466754D01*
X9888151Y-17504847D01*
X9826414Y-17559379D01*
X9783425Y-17629474D01*
X9760299Y-17714259D01*
X9756424Y-17771281D01*
X9527892Y-17771281D01*
X9527700Y-17762713D01*
X9538086Y-17633628D01*
X9569041Y-17518842D01*
X9620260Y-17418872D01*
X9691436Y-17334238D01*
X9782264Y-17265457D01*
X9838696Y-17235407D01*
X9936898Y-17201094D01*
X10048813Y-17181529D01*
X10167385Y-17176843D01*
X10285557Y-17187165D01*
G36*
X10285557Y-17187165D02*
G01*
X10396270Y-17212624D01*
X10430426Y-17224546D01*
X10529049Y-17275636D01*
X10615322Y-17346735D01*
X10685516Y-17433960D01*
X10735905Y-17533429D01*
X10741248Y-17548350D01*
X10756476Y-17611509D01*
X10766266Y-17690036D01*
X10770128Y-17774385D01*
X10767571Y-17855011D01*
X10759992Y-17913456D01*
X10725853Y-18023820D01*
X10670422Y-18122447D01*
X10596061Y-18206852D01*
X10505132Y-18274546D01*
X10399999Y-18323044D01*
X10359105Y-18335332D01*
X10305410Y-18344815D01*
X10235488Y-18350852D01*
X10157095Y-18353420D01*
X10077985Y-18352494D01*
X10005914Y-18348053D01*
X9948637Y-18340072D01*
X9934100Y-18336601D01*
X9844144Y-18302936D01*
X9759217Y-18255371D01*
X9689262Y-18199511D01*
X9687105Y-18197373D01*
X9620176Y-18117479D01*
X9572385Y-18029242D01*
X9542383Y-17928985D01*
X9528823Y-17813032D01*
X9527892Y-17771281D01*
X9756424Y-17771281D01*
X9767165Y-17862523D01*
X9799070Y-17940263D01*
X9851224Y-18003554D01*
X9922712Y-18051450D01*
X10012617Y-18083004D01*
X10067450Y-18092783D01*
X10110735Y-18094726D01*
X10168672Y-18092771D01*
X10230943Y-18087683D01*
X10287229Y-18080227D01*
X10316317Y-18074323D01*
X10374266Y-18049997D01*
X10433151Y-18009090D01*
X10483942Y-17958387D01*
X10500701Y-17935784D01*
X10522550Y-17894530D01*
X10535183Y-17846814D01*
X10540624Y-17797783D01*
X10540745Y-17718632D01*
X10526762Y-17654491D01*
X10496295Y-17597839D01*
X10465528Y-17560382D01*
X10403209Y-17507243D01*
X10328052Y-17470700D01*
X10236568Y-17449351D01*
X10174699Y-17443379D01*
X10063409Y-17445973D01*
X9967521Y-17466754D01*
X9888151Y-17504847D01*
X9826414Y-17559379D01*
X9783425Y-17629474D01*
X9760299Y-17714259D01*
X9756424Y-17771281D01*
X9527892Y-17771281D01*
X9527700Y-17762713D01*
X9538086Y-17633628D01*
X9569041Y-17518842D01*
X9620260Y-17418872D01*
X9691436Y-17334238D01*
X9782264Y-17265457D01*
X9838696Y-17235407D01*
X9936898Y-17201094D01*
X10048813Y-17181529D01*
X10167385Y-17176843D01*
X10285557Y-17187165D01*
G37*
X5882281Y-26535835D02*
X5948624Y-26554222D01*
X5993511Y-26579295D01*
X6027754Y-26614464D01*
X6059854Y-26662755D01*
X6070276Y-26683347D01*
X6081089Y-26708318D01*
X6089293Y-26732366D01*
X6095363Y-26759635D01*
X6099775Y-26794266D01*
X6103002Y-26840402D01*
X6105519Y-26902186D01*
X6107802Y-26983762D01*
X6108641Y-27018080D01*
X6114999Y-27282900D01*
X5118192Y-27282900D01*
X5121357Y-27105100D01*
X5283772Y-27105100D01*
X5529385Y-27105100D01*
X5666900Y-27105100D01*
X5948318Y-27105100D01*
X5944134Y-26940984D01*
X5942095Y-26872978D01*
X5939465Y-26825406D01*
X5935360Y-26793304D01*
X5928900Y-26771705D01*
X5919201Y-26755647D01*
X5909161Y-26744134D01*
X5870711Y-26719446D01*
X5821588Y-26709186D01*
X5771256Y-26713503D01*
X5729177Y-26732544D01*
X5719572Y-26741156D01*
X5697613Y-26779171D01*
X5681123Y-26838985D01*
X5670709Y-26917469D01*
X5666975Y-27011494D01*
X5666973Y-27013025D01*
X5666900Y-27105100D01*
X5529385Y-27105100D01*
X5525117Y-26957922D01*
X5523024Y-26894618D01*
X5520319Y-26851465D01*
X5515823Y-26823220D01*
X5508361Y-26804641D01*
X5496757Y-26790485D01*
X5485216Y-26780122D01*
X5439938Y-26755718D01*
X5388303Y-26749712D01*
X5339736Y-26762473D01*
X5322231Y-26773750D01*
X5309495Y-26785692D01*
X5300775Y-26800443D01*
X5295123Y-26822935D01*
X5291588Y-26858097D01*
X5289223Y-26910860D01*
X5288011Y-26951550D01*
X5283772Y-27105100D01*
X5121357Y-27105100D01*
X5122771Y-27025725D01*
X5124519Y-26937538D01*
X5126492Y-26870637D01*
X5129138Y-26820908D01*
X5132903Y-26784239D01*
X5138234Y-26756517D01*
X5145578Y-26733627D01*
X5155382Y-26711457D01*
X5157364Y-26707387D01*
X5200697Y-26643895D01*
X5258736Y-26600839D01*
X5332312Y-26577680D01*
X5363277Y-26574073D01*
X5432438Y-26574850D01*
X5486708Y-26590493D01*
X5533550Y-26623805D01*
X5554852Y-26646056D01*
X5578739Y-26670107D01*
X5595251Y-26680862D01*
X5599294Y-26679416D01*
X5618897Y-26640676D01*
X5649072Y-26599567D01*
X5680900Y-26567875D01*
X5686991Y-26563499D01*
X5742895Y-26540032D01*
X5810848Y-26530958D01*
X5882281Y-26535835D01*
G36*
X5882281Y-26535835D02*
G01*
X5948624Y-26554222D01*
X5993511Y-26579295D01*
X6027754Y-26614464D01*
X6059854Y-26662755D01*
X6070276Y-26683347D01*
X6081089Y-26708318D01*
X6089293Y-26732366D01*
X6095363Y-26759635D01*
X6099775Y-26794266D01*
X6103002Y-26840402D01*
X6105519Y-26902186D01*
X6107802Y-26983762D01*
X6108641Y-27018080D01*
X6114999Y-27282900D01*
X5118192Y-27282900D01*
X5121357Y-27105100D01*
X5283772Y-27105100D01*
X5529385Y-27105100D01*
X5666900Y-27105100D01*
X5948318Y-27105100D01*
X5944134Y-26940984D01*
X5942095Y-26872978D01*
X5939465Y-26825406D01*
X5935360Y-26793304D01*
X5928900Y-26771705D01*
X5919201Y-26755647D01*
X5909161Y-26744134D01*
X5870711Y-26719446D01*
X5821588Y-26709186D01*
X5771256Y-26713503D01*
X5729177Y-26732544D01*
X5719572Y-26741156D01*
X5697613Y-26779171D01*
X5681123Y-26838985D01*
X5670709Y-26917469D01*
X5666975Y-27011494D01*
X5666973Y-27013025D01*
X5666900Y-27105100D01*
X5529385Y-27105100D01*
X5525117Y-26957922D01*
X5523024Y-26894618D01*
X5520319Y-26851465D01*
X5515823Y-26823220D01*
X5508361Y-26804641D01*
X5496757Y-26790485D01*
X5485216Y-26780122D01*
X5439938Y-26755718D01*
X5388303Y-26749712D01*
X5339736Y-26762473D01*
X5322231Y-26773750D01*
X5309495Y-26785692D01*
X5300775Y-26800443D01*
X5295123Y-26822935D01*
X5291588Y-26858097D01*
X5289223Y-26910860D01*
X5288011Y-26951550D01*
X5283772Y-27105100D01*
X5121357Y-27105100D01*
X5122771Y-27025725D01*
X5124519Y-26937538D01*
X5126492Y-26870637D01*
X5129138Y-26820908D01*
X5132903Y-26784239D01*
X5138234Y-26756517D01*
X5145578Y-26733627D01*
X5155382Y-26711457D01*
X5157364Y-26707387D01*
X5200697Y-26643895D01*
X5258736Y-26600839D01*
X5332312Y-26577680D01*
X5363277Y-26574073D01*
X5432438Y-26574850D01*
X5486708Y-26590493D01*
X5533550Y-26623805D01*
X5554852Y-26646056D01*
X5578739Y-26670107D01*
X5595251Y-26680862D01*
X5599294Y-26679416D01*
X5618897Y-26640676D01*
X5649072Y-26599567D01*
X5680900Y-26567875D01*
X5686991Y-26563499D01*
X5742895Y-26540032D01*
X5810848Y-26530958D01*
X5882281Y-26535835D01*
G37*
X5143137Y-4313657D02*
X5234862Y-4333185D01*
X5308983Y-4369991D01*
X5332287Y-4388204D01*
X5371423Y-4431669D01*
X5402996Y-4483497D01*
X5422014Y-4534501D01*
X5425321Y-4559425D01*
X5423659Y-4574585D01*
X5414580Y-4583154D01*
X5392503Y-4586999D01*
X5351848Y-4587982D01*
X5339800Y-4588000D01*
X5293986Y-4587396D01*
X5266757Y-4583889D01*
X5251302Y-4574934D01*
X5240807Y-4557987D01*
X5237006Y-4549609D01*
X5206492Y-4510080D01*
X5158318Y-4481713D01*
X5098475Y-4466407D01*
X5032953Y-4466058D01*
X4995771Y-4473169D01*
X4939046Y-4497689D01*
X4903817Y-4532317D01*
X4890456Y-4573055D01*
X4899332Y-4615908D01*
X4930818Y-4656878D01*
X4975881Y-4687366D01*
X4999012Y-4696047D01*
X5040305Y-4708615D01*
X5093193Y-4723149D01*
X5133045Y-4733328D01*
X5222104Y-4758069D01*
X5290648Y-4783988D01*
X5343529Y-4813552D01*
X5385600Y-4849226D01*
X5405414Y-4871753D01*
X5424972Y-4897940D01*
X5436665Y-4921623D01*
X5442498Y-4950639D01*
X5444477Y-4992825D01*
X5444650Y-5025081D01*
X5443658Y-5079962D01*
X5439468Y-5117790D01*
X5430259Y-5146876D01*
X5414207Y-5175530D01*
X5410372Y-5181401D01*
X5367493Y-5228678D01*
X5305009Y-5268042D01*
X5302422Y-5269321D01*
X5266026Y-5285846D01*
X5232696Y-5296725D01*
X5195038Y-5303331D01*
X5145654Y-5307035D01*
X5089050Y-5308926D01*
X5017924Y-5309582D01*
X4964795Y-5306956D01*
X4922389Y-5300329D01*
X4883430Y-5288983D01*
X4881989Y-5288473D01*
X4803297Y-5248319D01*
X4742713Y-5190896D01*
X4701594Y-5117709D01*
X4688322Y-5073775D01*
X4678974Y-5032500D01*
X4770103Y-5032500D01*
X4817471Y-5032972D01*
X4845805Y-5035927D01*
X4861467Y-5043671D01*
X4870823Y-5058509D01*
X4875670Y-5070752D01*
X4902337Y-5107867D01*
X4946988Y-5135263D01*
X5003930Y-5152418D01*
X5067468Y-5158806D01*
X5131909Y-5153903D01*
X5191560Y-5137186D01*
X5240726Y-5108129D01*
X5244625Y-5104726D01*
X5267747Y-5069954D01*
X5273200Y-5031415D01*
X5265686Y-4991068D01*
X5241480Y-4957825D01*
X5198081Y-4929774D01*
X5132989Y-4905001D01*
X5093224Y-4893691D01*
X4993695Y-4866282D01*
X4915819Y-4841535D01*
X4856240Y-4817678D01*
X4811601Y-4792941D01*
X4778546Y-4765552D01*
X4753718Y-4733741D01*
X4738863Y-4706714D01*
X4718593Y-4642083D01*
X4713887Y-4570660D01*
X4724177Y-4501146D01*
X4748900Y-4442243D01*
X4756777Y-4430838D01*
X4814243Y-4375505D01*
X4889541Y-4337198D01*
X4983333Y-4315631D01*
X5033148Y-4311238D01*
X5143137Y-4313657D01*
G36*
X5143137Y-4313657D02*
G01*
X5234862Y-4333185D01*
X5308983Y-4369991D01*
X5332287Y-4388204D01*
X5371423Y-4431669D01*
X5402996Y-4483497D01*
X5422014Y-4534501D01*
X5425321Y-4559425D01*
X5423659Y-4574585D01*
X5414580Y-4583154D01*
X5392503Y-4586999D01*
X5351848Y-4587982D01*
X5339800Y-4588000D01*
X5293986Y-4587396D01*
X5266757Y-4583889D01*
X5251302Y-4574934D01*
X5240807Y-4557987D01*
X5237006Y-4549609D01*
X5206492Y-4510080D01*
X5158318Y-4481713D01*
X5098475Y-4466407D01*
X5032953Y-4466058D01*
X4995771Y-4473169D01*
X4939046Y-4497689D01*
X4903817Y-4532317D01*
X4890456Y-4573055D01*
X4899332Y-4615908D01*
X4930818Y-4656878D01*
X4975881Y-4687366D01*
X4999012Y-4696047D01*
X5040305Y-4708615D01*
X5093193Y-4723149D01*
X5133045Y-4733328D01*
X5222104Y-4758069D01*
X5290648Y-4783988D01*
X5343529Y-4813552D01*
X5385600Y-4849226D01*
X5405414Y-4871753D01*
X5424972Y-4897940D01*
X5436665Y-4921623D01*
X5442498Y-4950639D01*
X5444477Y-4992825D01*
X5444650Y-5025081D01*
X5443658Y-5079962D01*
X5439468Y-5117790D01*
X5430259Y-5146876D01*
X5414207Y-5175530D01*
X5410372Y-5181401D01*
X5367493Y-5228678D01*
X5305009Y-5268042D01*
X5302422Y-5269321D01*
X5266026Y-5285846D01*
X5232696Y-5296725D01*
X5195038Y-5303331D01*
X5145654Y-5307035D01*
X5089050Y-5308926D01*
X5017924Y-5309582D01*
X4964795Y-5306956D01*
X4922389Y-5300329D01*
X4883430Y-5288983D01*
X4881989Y-5288473D01*
X4803297Y-5248319D01*
X4742713Y-5190896D01*
X4701594Y-5117709D01*
X4688322Y-5073775D01*
X4678974Y-5032500D01*
X4770103Y-5032500D01*
X4817471Y-5032972D01*
X4845805Y-5035927D01*
X4861467Y-5043671D01*
X4870823Y-5058509D01*
X4875670Y-5070752D01*
X4902337Y-5107867D01*
X4946988Y-5135263D01*
X5003930Y-5152418D01*
X5067468Y-5158806D01*
X5131909Y-5153903D01*
X5191560Y-5137186D01*
X5240726Y-5108129D01*
X5244625Y-5104726D01*
X5267747Y-5069954D01*
X5273200Y-5031415D01*
X5265686Y-4991068D01*
X5241480Y-4957825D01*
X5198081Y-4929774D01*
X5132989Y-4905001D01*
X5093224Y-4893691D01*
X4993695Y-4866282D01*
X4915819Y-4841535D01*
X4856240Y-4817678D01*
X4811601Y-4792941D01*
X4778546Y-4765552D01*
X4753718Y-4733741D01*
X4738863Y-4706714D01*
X4718593Y-4642083D01*
X4713887Y-4570660D01*
X4724177Y-4501146D01*
X4748900Y-4442243D01*
X4756777Y-4430838D01*
X4814243Y-4375505D01*
X4889541Y-4337198D01*
X4983333Y-4315631D01*
X5033148Y-4311238D01*
X5143137Y-4313657D01*
G37*
X10746900Y-14087898D02*
X10746172Y-14145458D01*
X10741687Y-14182260D01*
X10729990Y-14202944D01*
X10707625Y-14212153D01*
X10671139Y-14214525D01*
X10652577Y-14214600D01*
X10598432Y-14214600D01*
X10649092Y-14267854D01*
X10705437Y-14339788D01*
X10743159Y-14419629D01*
X10764317Y-14512653D01*
X10769956Y-14577890D01*
X10766688Y-14693072D01*
X10745410Y-14790830D01*
X10705704Y-14872059D01*
X10647153Y-14937655D01*
X10581476Y-14982211D01*
X10537854Y-15003052D01*
X10496147Y-15015370D01*
X10445657Y-15021761D01*
X10410477Y-15023680D01*
X10334839Y-15023081D01*
X10276995Y-15014886D01*
X10261240Y-15010079D01*
X10195641Y-14979459D01*
X10146229Y-14940479D01*
X10120401Y-14910186D01*
X10096402Y-14874832D01*
X10077782Y-14837672D01*
X10063772Y-14794761D01*
X10053607Y-14742156D01*
X10046520Y-14675912D01*
X10041744Y-14592085D01*
X10038570Y-14489207D01*
X10037359Y-14437355D01*
X10238900Y-14437355D01*
X10239274Y-14515072D01*
X10240725Y-14572168D01*
X10243741Y-14613416D01*
X10248811Y-14643590D01*
X10256424Y-14667462D01*
X10264210Y-14684324D01*
X10284990Y-14718248D01*
X10306156Y-14742726D01*
X10311835Y-14746932D01*
X10349196Y-14757984D01*
X10397764Y-14759050D01*
X10445550Y-14750496D01*
X10466418Y-14742209D01*
X10506123Y-14707555D01*
X10531826Y-14652374D01*
X10543154Y-14577572D01*
X10543700Y-14554002D01*
X10534380Y-14457093D01*
X10506358Y-14377300D01*
X10459538Y-14314446D01*
X10393823Y-14268357D01*
X10384950Y-14264077D01*
X10340489Y-14248739D01*
X10294978Y-14240639D01*
X10286525Y-14240278D01*
X10238900Y-14240000D01*
X10238900Y-14437355D01*
X10037359Y-14437355D01*
X10032670Y-14236765D01*
X9950108Y-14243392D01*
X9877869Y-14256046D01*
X9824150Y-14282287D01*
X9787200Y-14324302D01*
X9765272Y-14384278D01*
X9756616Y-14464403D01*
X9756319Y-14485730D01*
X9760563Y-14563010D01*
X9774428Y-14620265D01*
X9799565Y-14661586D01*
X9837623Y-14691063D01*
X9839519Y-14692098D01*
X9883300Y-14715676D01*
X9883300Y-14839788D01*
X9882312Y-14892435D01*
X9879653Y-14934001D01*
X9875777Y-14959049D01*
X9872905Y-14963900D01*
X9829096Y-14956248D01*
X9775477Y-14936138D01*
X9721355Y-14907839D01*
X9676035Y-14875617D01*
X9671407Y-14871484D01*
X9612920Y-14805886D01*
X9570563Y-14730304D01*
X9543354Y-14641618D01*
X9530308Y-14536705D01*
X9530004Y-14422377D01*
X9533914Y-14353466D01*
X9539952Y-14302308D01*
X9549513Y-14261268D01*
X9563991Y-14222710D01*
X9568143Y-14213433D01*
X9616799Y-14132812D01*
X9680489Y-14066919D01*
X9754332Y-14020794D01*
X9755164Y-14020423D01*
X9773806Y-14012646D01*
X9793133Y-14006192D01*
X9815703Y-14000898D01*
X9844076Y-13996602D01*
X9880811Y-13993143D01*
X9928467Y-13990357D01*
X9989603Y-13988084D01*
X10066779Y-13986160D01*
X10162554Y-13984423D01*
X10279486Y-13982712D01*
X10369075Y-13981524D01*
X10746900Y-13976615D01*
X10746900Y-14087898D01*
G36*
X10746900Y-14087898D02*
G01*
X10746172Y-14145458D01*
X10741687Y-14182260D01*
X10729990Y-14202944D01*
X10707625Y-14212153D01*
X10671139Y-14214525D01*
X10652577Y-14214600D01*
X10598432Y-14214600D01*
X10649092Y-14267854D01*
X10705437Y-14339788D01*
X10743159Y-14419629D01*
X10764317Y-14512653D01*
X10769956Y-14577890D01*
X10766688Y-14693072D01*
X10745410Y-14790830D01*
X10705704Y-14872059D01*
X10647153Y-14937655D01*
X10581476Y-14982211D01*
X10537854Y-15003052D01*
X10496147Y-15015370D01*
X10445657Y-15021761D01*
X10410477Y-15023680D01*
X10334839Y-15023081D01*
X10276995Y-15014886D01*
X10261240Y-15010079D01*
X10195641Y-14979459D01*
X10146229Y-14940479D01*
X10120401Y-14910186D01*
X10096402Y-14874832D01*
X10077782Y-14837672D01*
X10063772Y-14794761D01*
X10053607Y-14742156D01*
X10046520Y-14675912D01*
X10041744Y-14592085D01*
X10038570Y-14489207D01*
X10037359Y-14437355D01*
X10238900Y-14437355D01*
X10239274Y-14515072D01*
X10240725Y-14572168D01*
X10243741Y-14613416D01*
X10248811Y-14643590D01*
X10256424Y-14667462D01*
X10264210Y-14684324D01*
X10284990Y-14718248D01*
X10306156Y-14742726D01*
X10311835Y-14746932D01*
X10349196Y-14757984D01*
X10397764Y-14759050D01*
X10445550Y-14750496D01*
X10466418Y-14742209D01*
X10506123Y-14707555D01*
X10531826Y-14652374D01*
X10543154Y-14577572D01*
X10543700Y-14554002D01*
X10534380Y-14457093D01*
X10506358Y-14377300D01*
X10459538Y-14314446D01*
X10393823Y-14268357D01*
X10384950Y-14264077D01*
X10340489Y-14248739D01*
X10294978Y-14240639D01*
X10286525Y-14240278D01*
X10238900Y-14240000D01*
X10238900Y-14437355D01*
X10037359Y-14437355D01*
X10032670Y-14236765D01*
X9950108Y-14243392D01*
X9877869Y-14256046D01*
X9824150Y-14282287D01*
X9787200Y-14324302D01*
X9765272Y-14384278D01*
X9756616Y-14464403D01*
X9756319Y-14485730D01*
X9760563Y-14563010D01*
X9774428Y-14620265D01*
X9799565Y-14661586D01*
X9837623Y-14691063D01*
X9839519Y-14692098D01*
X9883300Y-14715676D01*
X9883300Y-14839788D01*
X9882312Y-14892435D01*
X9879653Y-14934001D01*
X9875777Y-14959049D01*
X9872905Y-14963900D01*
X9829096Y-14956248D01*
X9775477Y-14936138D01*
X9721355Y-14907839D01*
X9676035Y-14875617D01*
X9671407Y-14871484D01*
X9612920Y-14805886D01*
X9570563Y-14730304D01*
X9543354Y-14641618D01*
X9530308Y-14536705D01*
X9530004Y-14422377D01*
X9533914Y-14353466D01*
X9539952Y-14302308D01*
X9549513Y-14261268D01*
X9563991Y-14222710D01*
X9568143Y-14213433D01*
X9616799Y-14132812D01*
X9680489Y-14066919D01*
X9754332Y-14020794D01*
X9755164Y-14020423D01*
X9773806Y-14012646D01*
X9793133Y-14006192D01*
X9815703Y-14000898D01*
X9844076Y-13996602D01*
X9880811Y-13993143D01*
X9928467Y-13990357D01*
X9989603Y-13988084D01*
X10066779Y-13986160D01*
X10162554Y-13984423D01*
X10279486Y-13982712D01*
X10369075Y-13981524D01*
X10746900Y-13976615D01*
X10746900Y-14087898D01*
G37*
X10746900Y-15521126D02*
X10330975Y-15525088D01*
X10216282Y-15526270D01*
X10124099Y-15527522D01*
X10051537Y-15529024D01*
X9995704Y-15530959D01*
X9953713Y-15533508D01*
X9922672Y-15536853D01*
X9899692Y-15541177D01*
X9881884Y-15546660D01*
X9866356Y-15553486D01*
X9864417Y-15554450D01*
X9808568Y-15593507D01*
X9773400Y-15645395D01*
X9757545Y-15712490D01*
X9756300Y-15742154D01*
X9763883Y-15814313D01*
X9788334Y-15869646D01*
X9832201Y-15912310D01*
X9875732Y-15936817D01*
X9894296Y-15945173D01*
X9912172Y-15951822D01*
X9932389Y-15956961D01*
X9957976Y-15960785D01*
X9991965Y-15963490D01*
X10037384Y-15965273D01*
X10097264Y-15966328D01*
X10174635Y-15966852D01*
X10272526Y-15967041D01*
X10343675Y-15967075D01*
X10746900Y-15967200D01*
X10746900Y-16232629D01*
X10324625Y-16236439D01*
X10209395Y-16237552D01*
X10116743Y-16238711D01*
X10043845Y-16240098D01*
X9987880Y-16241892D01*
X9946023Y-16244276D01*
X9915453Y-16247429D01*
X9893347Y-16251532D01*
X9876883Y-16256767D01*
X9863237Y-16263313D01*
X9857943Y-16266336D01*
X9820393Y-16295245D01*
X9787093Y-16331570D01*
X9783819Y-16336186D01*
X9767097Y-16365256D01*
X9758966Y-16395147D01*
X9757484Y-16435597D01*
X9758615Y-16462569D01*
X9767402Y-16528639D01*
X9788115Y-16577597D01*
X9824901Y-16616510D01*
X9864250Y-16642615D01*
X9878808Y-16650671D01*
X9893617Y-16657135D01*
X9911559Y-16662213D01*
X9935519Y-16666110D01*
X9968380Y-16669031D01*
X10013027Y-16671183D01*
X10072341Y-16672770D01*
X10149208Y-16673998D01*
X10246512Y-16675073D01*
X10330975Y-16675868D01*
X10746900Y-16679686D01*
X10746900Y-16945100D01*
X10152116Y-16945100D01*
X10031569Y-16944924D01*
X9918853Y-16944421D01*
X9816501Y-16943627D01*
X9727044Y-16942577D01*
X9653014Y-16941306D01*
X9596943Y-16939850D01*
X9561363Y-16938245D01*
X9548866Y-16936633D01*
X9545077Y-16920907D01*
X9542164Y-16886094D01*
X9540569Y-16838503D01*
X9540400Y-16815983D01*
X9540400Y-16703800D01*
X9638825Y-16703413D01*
X9687298Y-16702567D01*
X9713349Y-16700117D01*
X9719935Y-16695481D01*
X9711850Y-16689063D01*
X9664068Y-16654144D01*
X9615553Y-16604552D01*
X9574552Y-16549375D01*
X9558056Y-16519650D01*
X9538035Y-16457056D01*
X9528061Y-16380826D01*
X9528620Y-16300853D01*
X9540198Y-16227034D01*
X9543144Y-16216323D01*
X9558986Y-16182881D01*
X9586388Y-16143021D01*
X9620316Y-16102308D01*
X9655738Y-16066307D01*
X9687622Y-16040583D01*
X9710934Y-16030700D01*
X9711021Y-16030700D01*
X9728791Y-16024681D01*
X9726947Y-16011691D01*
X9706681Y-15999328D01*
X9706070Y-15999130D01*
X9676500Y-15980938D01*
X9640867Y-15946403D01*
X9604348Y-15901958D01*
X9572118Y-15854040D01*
X9549352Y-15809083D01*
X9546158Y-15800319D01*
X9533008Y-15738741D01*
X9528411Y-15665735D01*
X9531935Y-15590194D01*
X9543148Y-15521015D01*
X9561618Y-15467091D01*
X9562412Y-15465550D01*
X9614680Y-15392192D01*
X9686279Y-15332331D01*
X9737250Y-15304275D01*
X9754339Y-15296723D01*
X9771328Y-15290571D01*
X9790950Y-15285651D01*
X9815942Y-15281793D01*
X9849040Y-15278830D01*
X9892978Y-15276591D01*
X9950493Y-15274909D01*
X10024321Y-15273615D01*
X10117196Y-15272539D01*
X10231855Y-15271513D01*
X10273825Y-15271166D01*
X10746900Y-15267282D01*
X10746900Y-15521126D01*
G36*
X10746900Y-15521126D02*
G01*
X10330975Y-15525088D01*
X10216282Y-15526270D01*
X10124099Y-15527522D01*
X10051537Y-15529024D01*
X9995704Y-15530959D01*
X9953713Y-15533508D01*
X9922672Y-15536853D01*
X9899692Y-15541177D01*
X9881884Y-15546660D01*
X9866356Y-15553486D01*
X9864417Y-15554450D01*
X9808568Y-15593507D01*
X9773400Y-15645395D01*
X9757545Y-15712490D01*
X9756300Y-15742154D01*
X9763883Y-15814313D01*
X9788334Y-15869646D01*
X9832201Y-15912310D01*
X9875732Y-15936817D01*
X9894296Y-15945173D01*
X9912172Y-15951822D01*
X9932389Y-15956961D01*
X9957976Y-15960785D01*
X9991965Y-15963490D01*
X10037384Y-15965273D01*
X10097264Y-15966328D01*
X10174635Y-15966852D01*
X10272526Y-15967041D01*
X10343675Y-15967075D01*
X10746900Y-15967200D01*
X10746900Y-16232629D01*
X10324625Y-16236439D01*
X10209395Y-16237552D01*
X10116743Y-16238711D01*
X10043845Y-16240098D01*
X9987880Y-16241892D01*
X9946023Y-16244276D01*
X9915453Y-16247429D01*
X9893347Y-16251532D01*
X9876883Y-16256767D01*
X9863237Y-16263313D01*
X9857943Y-16266336D01*
X9820393Y-16295245D01*
X9787093Y-16331570D01*
X9783819Y-16336186D01*
X9767097Y-16365256D01*
X9758966Y-16395147D01*
X9757484Y-16435597D01*
X9758615Y-16462569D01*
X9767402Y-16528639D01*
X9788115Y-16577597D01*
X9824901Y-16616510D01*
X9864250Y-16642615D01*
X9878808Y-16650671D01*
X9893617Y-16657135D01*
X9911559Y-16662213D01*
X9935519Y-16666110D01*
X9968380Y-16669031D01*
X10013027Y-16671183D01*
X10072341Y-16672770D01*
X10149208Y-16673998D01*
X10246512Y-16675073D01*
X10330975Y-16675868D01*
X10746900Y-16679686D01*
X10746900Y-16945100D01*
X10152116Y-16945100D01*
X10031569Y-16944924D01*
X9918853Y-16944421D01*
X9816501Y-16943627D01*
X9727044Y-16942577D01*
X9653014Y-16941306D01*
X9596943Y-16939850D01*
X9561363Y-16938245D01*
X9548866Y-16936633D01*
X9545077Y-16920907D01*
X9542164Y-16886094D01*
X9540569Y-16838503D01*
X9540400Y-16815983D01*
X9540400Y-16703800D01*
X9638825Y-16703413D01*
X9687298Y-16702567D01*
X9713349Y-16700117D01*
X9719935Y-16695481D01*
X9711850Y-16689063D01*
X9664068Y-16654144D01*
X9615553Y-16604552D01*
X9574552Y-16549375D01*
X9558056Y-16519650D01*
X9538035Y-16457056D01*
X9528061Y-16380826D01*
X9528620Y-16300853D01*
X9540198Y-16227034D01*
X9543144Y-16216323D01*
X9558986Y-16182881D01*
X9586388Y-16143021D01*
X9620316Y-16102308D01*
X9655738Y-16066307D01*
X9687622Y-16040583D01*
X9710934Y-16030700D01*
X9711021Y-16030700D01*
X9728791Y-16024681D01*
X9726947Y-16011691D01*
X9706681Y-15999328D01*
X9706070Y-15999130D01*
X9676500Y-15980938D01*
X9640867Y-15946403D01*
X9604348Y-15901958D01*
X9572118Y-15854040D01*
X9549352Y-15809083D01*
X9546158Y-15800319D01*
X9533008Y-15738741D01*
X9528411Y-15665735D01*
X9531935Y-15590194D01*
X9543148Y-15521015D01*
X9561618Y-15467091D01*
X9562412Y-15465550D01*
X9614680Y-15392192D01*
X9686279Y-15332331D01*
X9737250Y-15304275D01*
X9754339Y-15296723D01*
X9771328Y-15290571D01*
X9790950Y-15285651D01*
X9815942Y-15281793D01*
X9849040Y-15278830D01*
X9892978Y-15276591D01*
X9950493Y-15274909D01*
X10024321Y-15273615D01*
X10117196Y-15272539D01*
X10231855Y-15271513D01*
X10273825Y-15271166D01*
X10746900Y-15267282D01*
X10746900Y-15521126D01*
G37*
X104300Y-6099300D02*
X-746600Y-6099300D01*
X-746600Y-6392283D01*
X-707632Y-6347900D01*
X-673996Y-6317431D01*
X-628689Y-6286013D01*
X-596507Y-6268084D01*
X-550749Y-6248147D01*
X-508820Y-6237357D01*
X-459036Y-6233268D01*
X-428538Y-6232971D01*
X-371157Y-6235031D01*
X-327070Y-6242523D01*
X-284325Y-6258106D01*
X-257088Y-6271071D01*
X-214957Y-6295045D01*
X-188999Y-6316035D01*
X-182738Y-6328218D01*
X-190137Y-6345566D01*
X-208495Y-6376177D01*
X-233820Y-6414405D01*
X-262119Y-6454600D01*
X-289400Y-6491115D01*
X-311668Y-6518302D01*
X-324932Y-6530512D01*
X-325886Y-6530703D01*
X-340548Y-6524344D01*
X-368603Y-6508682D01*
X-384650Y-6499018D01*
X-428621Y-6477855D01*
X-477341Y-6468732D01*
X-508883Y-6467665D01*
X-583243Y-6474099D01*
X-642107Y-6495433D01*
X-692329Y-6534490D01*
X-705524Y-6548700D01*
X-726172Y-6572410D01*
X-740364Y-6591180D01*
X-745940Y-6605586D01*
X-740740Y-6616206D01*
X-722603Y-6623615D01*
X-689371Y-6628391D01*
X-638882Y-6631111D01*
X-568976Y-6632352D01*
X-477494Y-6632691D01*
X-391000Y-6632700D01*
X-35400Y-6632700D01*
X-35400Y-6590918D01*
X-29677Y-6536804D01*
X-14353Y-6470519D01*
X7798Y-6402075D01*
X33242Y-6342981D01*
X90356Y-6257402D01*
X165539Y-6187989D01*
X256331Y-6135958D01*
X360272Y-6102519D01*
X474900Y-6088887D01*
X545498Y-6090546D01*
X651373Y-6109920D01*
X744964Y-6150839D01*
X825497Y-6212208D01*
X892201Y-6292932D01*
X944302Y-6391916D01*
X981030Y-6508064D01*
X1001612Y-6640281D01*
X1006000Y-6743687D01*
X1006000Y-6855745D01*
X1082200Y-6931150D01*
X1117052Y-6967139D01*
X1143529Y-6997337D01*
X1157347Y-7016746D01*
X1158400Y-7020019D01*
X1149898Y-7034375D01*
X1127125Y-7061542D01*
X1094179Y-7096792D01*
X1075724Y-7115424D01*
X993049Y-7197364D01*
X822403Y-7026718D01*
X891542Y-6956709D01*
X960682Y-6886700D01*
X783316Y-6886657D01*
X701737Y-6886027D01*
X605999Y-6884336D01*
X507307Y-6881832D01*
X416866Y-6878762D01*
X405844Y-6878316D01*
X205738Y-6870016D01*
X214002Y-6913283D01*
X239740Y-6990073D01*
X283511Y-7056768D01*
X341119Y-7108532D01*
X408366Y-7140530D01*
X412108Y-7141579D01*
X493050Y-7152707D01*
X579567Y-7146393D01*
X663779Y-7124399D01*
X737812Y-7088485D01*
X774546Y-7060551D01*
X803442Y-7034068D01*
X980600Y-7209868D01*
X980600Y-7737032D01*
X1031691Y-7681604D01*
X1092234Y-7627707D01*
X1158836Y-7593296D01*
X1236695Y-7576466D01*
X1322836Y-7574876D01*
X1402465Y-7584077D01*
X1473714Y-7602485D01*
X1530861Y-7628173D01*
X1566376Y-7656949D01*
X1565050Y-7674930D01*
X1546596Y-7710753D01*
X1511381Y-7763848D01*
X1459774Y-7833645D01*
X1416691Y-7888863D01*
X1405511Y-7885560D01*
X1389788Y-7873473D01*
X1332705Y-7837667D01*
X1263290Y-7818316D01*
X1189219Y-7816229D01*
X1118170Y-7832216D01*
X1095159Y-7842375D01*
X1051257Y-7868006D01*
X1020730Y-7895857D01*
X1001018Y-7931222D01*
X989560Y-7979394D01*
X983795Y-8045666D01*
X982618Y-8075039D01*
X981026Y-8134373D01*
X981338Y-8172813D01*
X984199Y-8194829D01*
X990251Y-8204897D01*
X1000137Y-8207488D01*
X1001668Y-8207510D01*
X1024816Y-8212752D01*
X1062148Y-8226421D01*
X1101533Y-8243703D01*
X1180607Y-8293718D01*
X1250948Y-8362322D01*
X1306319Y-8442830D01*
X1325992Y-8484339D01*
X1335519Y-8509308D01*
X1342724Y-8533408D01*
X1347928Y-8560590D01*
X1351455Y-8594802D01*
X1353627Y-8639996D01*
X1354767Y-8700122D01*
X1355197Y-8779128D01*
X1355250Y-8842500D01*
X1355250Y-9128250D01*
X1315846Y-9211401D01*
X1270659Y-9293078D01*
X1220205Y-9354932D01*
X1159300Y-9402543D01*
X1116038Y-9426372D01*
X999941Y-9469235D01*
X877360Y-9488027D01*
X750784Y-9482438D01*
X713900Y-9476255D01*
X649600Y-9457446D01*
X581542Y-9427357D01*
X518514Y-9390643D01*
X469300Y-9351956D01*
X459115Y-9341315D01*
X431385Y-9303987D01*
X401563Y-9255130D01*
X381222Y-9215839D01*
X356090Y-9143556D01*
X337905Y-9052879D01*
X326758Y-8949870D01*
X322737Y-8840593D01*
X325933Y-8731108D01*
X330988Y-8681226D01*
X586237Y-8681226D01*
X590799Y-8711273D01*
X605831Y-8744098D01*
X633126Y-8783912D01*
X674475Y-8834929D01*
X717099Y-8884586D01*
X847250Y-9034622D01*
X885350Y-8990428D01*
X909720Y-8962104D01*
X945202Y-8920798D01*
X986381Y-8872817D01*
X1015525Y-8838835D01*
X1061711Y-8782549D01*
X1091059Y-8740612D01*
X1105414Y-8710166D01*
X1107600Y-8696366D01*
X1095762Y-8622811D01*
X1062530Y-8551887D01*
X1027129Y-8506820D01*
X977460Y-8455150D01*
X914621Y-8650456D01*
X892997Y-8715203D01*
X873337Y-8769501D01*
X857126Y-8809599D01*
X845848Y-8831747D01*
X841721Y-8834606D01*
X834600Y-8819056D01*
X821768Y-8783766D01*
X804798Y-8733329D01*
X785261Y-8672338D01*
X776316Y-8643534D01*
X754493Y-8573711D01*
X738151Y-8525032D01*
X725781Y-8494223D01*
X715875Y-8478009D01*
X706926Y-8473114D01*
X698902Y-8475429D01*
X670177Y-8499651D01*
X639442Y-8538975D01*
X613020Y-8584507D01*
X601353Y-8612620D01*
X590353Y-8649746D01*
X586237Y-8681226D01*
X330988Y-8681226D01*
X336435Y-8627480D01*
X354334Y-8535771D01*
X370385Y-8484339D01*
X414059Y-8401349D01*
X476826Y-8326346D01*
X552408Y-8266118D01*
X592966Y-8243703D01*
X635634Y-8225033D01*
X671627Y-8211963D01*
X691675Y-8207510D01*
X702976Y-8204377D01*
X709655Y-8191637D01*
X712834Y-8164261D01*
X713634Y-8117220D01*
X713621Y-8109075D01*
X704757Y-8015186D01*
X678913Y-7939875D01*
X636330Y-7883418D01*
X577250Y-7846092D01*
X501915Y-7828173D01*
X466250Y-7826500D01*
X389021Y-7837216D01*
X326132Y-7868629D01*
X278953Y-7919635D01*
X248854Y-7989131D01*
X245131Y-8004554D01*
X241124Y-8036640D01*
X237681Y-8091258D01*
X234892Y-8165541D01*
X232842Y-8256625D01*
X231621Y-8361644D01*
X231300Y-8455775D01*
X231300Y-8842500D01*
X-22700Y-8842500D01*
X-22700Y-8431645D01*
X-23197Y-8292655D01*
X-24682Y-8178495D01*
X-27153Y-8089290D01*
X-30606Y-8025166D01*
X-35036Y-7986246D01*
X-37129Y-7977620D01*
X-71148Y-7912965D01*
X-123036Y-7865081D01*
X-190192Y-7835699D01*
X-264000Y-7826500D01*
X-342853Y-7836926D01*
X-408411Y-7867045D01*
X-458182Y-7915119D01*
X-489677Y-7979407D01*
X-491346Y-7985250D01*
X-495509Y-8014080D01*
X-499010Y-8066370D01*
X-501789Y-8140189D01*
X-503788Y-8233605D01*
X-504947Y-8344685D01*
X-505230Y-8439275D01*
X-505300Y-8842500D01*
X-759300Y-8842500D01*
X-759300Y-7610600D01*
X-1000600Y-7610600D01*
X-1000600Y-6874000D01*
X-746600Y-6874000D01*
X-746600Y-7597900D01*
X-505300Y-7597900D01*
X-505300Y-7753362D01*
X-455025Y-7701556D01*
X-391498Y-7646571D01*
X-323888Y-7611246D01*
X-244738Y-7592271D01*
X-198892Y-7587904D01*
X-102739Y-7589815D01*
X-21389Y-7609216D01*
X50204Y-7647748D01*
X92795Y-7682797D01*
X127432Y-7719037D01*
X155803Y-7755524D01*
X168893Y-7778340D01*
X180749Y-7803631D01*
X189231Y-7807746D01*
X198808Y-7794564D01*
X214540Y-7772329D01*
X240887Y-7739895D01*
X262319Y-7715311D01*
X325780Y-7654833D01*
X391039Y-7615609D01*
X465342Y-7594085D01*
X521993Y-7587899D01*
X576630Y-7586865D01*
X628055Y-7589478D01*
X665426Y-7595174D01*
X666351Y-7595423D01*
X713900Y-7608552D01*
X713900Y-7379767D01*
X659925Y-7390408D01*
X595961Y-7398330D01*
X519927Y-7400687D01*
X440949Y-7397830D01*
X368152Y-7390109D01*
X310662Y-7377875D01*
X307500Y-7376876D01*
X205410Y-7331156D01*
X119414Y-7266527D01*
X50973Y-7184845D01*
X1552Y-7087966D01*
X-27387Y-6977744D01*
X-31374Y-6947146D01*
X-39019Y-6874000D01*
X-746600Y-6874000D01*
X-1000600Y-6874000D01*
X-1000600Y-6645400D01*
X203881Y-6645400D01*
X761232Y-6645400D01*
X749229Y-6579362D01*
X723501Y-6488763D01*
X683290Y-6417377D01*
X629598Y-6366208D01*
X563426Y-6336255D01*
X498000Y-6328226D01*
X412838Y-6339836D01*
X339313Y-6373766D01*
X285700Y-6420989D01*
X261398Y-6452898D01*
X242989Y-6489070D01*
X227693Y-6536442D01*
X212727Y-6601955D01*
X212284Y-6604125D01*
X203881Y-6645400D01*
X-1000600Y-6645400D01*
X-1000600Y-5858000D01*
X104300Y-5858000D01*
X104300Y-6099300D01*
G36*
X104300Y-6099300D02*
G01*
X-746600Y-6099300D01*
X-746600Y-6392283D01*
X-707632Y-6347900D01*
X-673996Y-6317431D01*
X-628689Y-6286013D01*
X-596507Y-6268084D01*
X-550749Y-6248147D01*
X-508820Y-6237357D01*
X-459036Y-6233268D01*
X-428538Y-6232971D01*
X-371157Y-6235031D01*
X-327070Y-6242523D01*
X-284325Y-6258106D01*
X-257088Y-6271071D01*
X-214957Y-6295045D01*
X-188999Y-6316035D01*
X-182738Y-6328218D01*
X-190137Y-6345566D01*
X-208495Y-6376177D01*
X-233820Y-6414405D01*
X-262119Y-6454600D01*
X-289400Y-6491115D01*
X-311668Y-6518302D01*
X-324932Y-6530512D01*
X-325886Y-6530703D01*
X-340548Y-6524344D01*
X-368603Y-6508682D01*
X-384650Y-6499018D01*
X-428621Y-6477855D01*
X-477341Y-6468732D01*
X-508883Y-6467665D01*
X-583243Y-6474099D01*
X-642107Y-6495433D01*
X-692329Y-6534490D01*
X-705524Y-6548700D01*
X-726172Y-6572410D01*
X-740364Y-6591180D01*
X-745940Y-6605586D01*
X-740740Y-6616206D01*
X-722603Y-6623615D01*
X-689371Y-6628391D01*
X-638882Y-6631111D01*
X-568976Y-6632352D01*
X-477494Y-6632691D01*
X-391000Y-6632700D01*
X-35400Y-6632700D01*
X-35400Y-6590918D01*
X-29677Y-6536804D01*
X-14353Y-6470519D01*
X7798Y-6402075D01*
X33242Y-6342981D01*
X90356Y-6257402D01*
X165539Y-6187989D01*
X256331Y-6135958D01*
X360272Y-6102519D01*
X474900Y-6088887D01*
X545498Y-6090546D01*
X651373Y-6109920D01*
X744964Y-6150839D01*
X825497Y-6212208D01*
X892201Y-6292932D01*
X944302Y-6391916D01*
X981030Y-6508064D01*
X1001612Y-6640281D01*
X1006000Y-6743687D01*
X1006000Y-6855745D01*
X1082200Y-6931150D01*
X1117052Y-6967139D01*
X1143529Y-6997337D01*
X1157347Y-7016746D01*
X1158400Y-7020019D01*
X1149898Y-7034375D01*
X1127125Y-7061542D01*
X1094179Y-7096792D01*
X1075724Y-7115424D01*
X993049Y-7197364D01*
X822403Y-7026718D01*
X891542Y-6956709D01*
X960682Y-6886700D01*
X783316Y-6886657D01*
X701737Y-6886027D01*
X605999Y-6884336D01*
X507307Y-6881832D01*
X416866Y-6878762D01*
X405844Y-6878316D01*
X205738Y-6870016D01*
X214002Y-6913283D01*
X239740Y-6990073D01*
X283511Y-7056768D01*
X341119Y-7108532D01*
X408366Y-7140530D01*
X412108Y-7141579D01*
X493050Y-7152707D01*
X579567Y-7146393D01*
X663779Y-7124399D01*
X737812Y-7088485D01*
X774546Y-7060551D01*
X803442Y-7034068D01*
X980600Y-7209868D01*
X980600Y-7737032D01*
X1031691Y-7681604D01*
X1092234Y-7627707D01*
X1158836Y-7593296D01*
X1236695Y-7576466D01*
X1322836Y-7574876D01*
X1402465Y-7584077D01*
X1473714Y-7602485D01*
X1530861Y-7628173D01*
X1566376Y-7656949D01*
X1565050Y-7674930D01*
X1546596Y-7710753D01*
X1511381Y-7763848D01*
X1459774Y-7833645D01*
X1416691Y-7888863D01*
X1405511Y-7885560D01*
X1389788Y-7873473D01*
X1332705Y-7837667D01*
X1263290Y-7818316D01*
X1189219Y-7816229D01*
X1118170Y-7832216D01*
X1095159Y-7842375D01*
X1051257Y-7868006D01*
X1020730Y-7895857D01*
X1001018Y-7931222D01*
X989560Y-7979394D01*
X983795Y-8045666D01*
X982618Y-8075039D01*
X981026Y-8134373D01*
X981338Y-8172813D01*
X984199Y-8194829D01*
X990251Y-8204897D01*
X1000137Y-8207488D01*
X1001668Y-8207510D01*
X1024816Y-8212752D01*
X1062148Y-8226421D01*
X1101533Y-8243703D01*
X1180607Y-8293718D01*
X1250948Y-8362322D01*
X1306319Y-8442830D01*
X1325992Y-8484339D01*
X1335519Y-8509308D01*
X1342724Y-8533408D01*
X1347928Y-8560590D01*
X1351455Y-8594802D01*
X1353627Y-8639996D01*
X1354767Y-8700122D01*
X1355197Y-8779128D01*
X1355250Y-8842500D01*
X1355250Y-9128250D01*
X1315846Y-9211401D01*
X1270659Y-9293078D01*
X1220205Y-9354932D01*
X1159300Y-9402543D01*
X1116038Y-9426372D01*
X999941Y-9469235D01*
X877360Y-9488027D01*
X750784Y-9482438D01*
X713900Y-9476255D01*
X649600Y-9457446D01*
X581542Y-9427357D01*
X518514Y-9390643D01*
X469300Y-9351956D01*
X459115Y-9341315D01*
X431385Y-9303987D01*
X401563Y-9255130D01*
X381222Y-9215839D01*
X356090Y-9143556D01*
X337905Y-9052879D01*
X326758Y-8949870D01*
X322737Y-8840593D01*
X325933Y-8731108D01*
X330988Y-8681226D01*
X586237Y-8681226D01*
X590799Y-8711273D01*
X605831Y-8744098D01*
X633126Y-8783912D01*
X674475Y-8834929D01*
X717099Y-8884586D01*
X847250Y-9034622D01*
X885350Y-8990428D01*
X909720Y-8962104D01*
X945202Y-8920798D01*
X986381Y-8872817D01*
X1015525Y-8838835D01*
X1061711Y-8782549D01*
X1091059Y-8740612D01*
X1105414Y-8710166D01*
X1107600Y-8696366D01*
X1095762Y-8622811D01*
X1062530Y-8551887D01*
X1027129Y-8506820D01*
X977460Y-8455150D01*
X914621Y-8650456D01*
X892997Y-8715203D01*
X873337Y-8769501D01*
X857126Y-8809599D01*
X845848Y-8831747D01*
X841721Y-8834606D01*
X834600Y-8819056D01*
X821768Y-8783766D01*
X804798Y-8733329D01*
X785261Y-8672338D01*
X776316Y-8643534D01*
X754493Y-8573711D01*
X738151Y-8525032D01*
X725781Y-8494223D01*
X715875Y-8478009D01*
X706926Y-8473114D01*
X698902Y-8475429D01*
X670177Y-8499651D01*
X639442Y-8538975D01*
X613020Y-8584507D01*
X601353Y-8612620D01*
X590353Y-8649746D01*
X586237Y-8681226D01*
X330988Y-8681226D01*
X336435Y-8627480D01*
X354334Y-8535771D01*
X370385Y-8484339D01*
X414059Y-8401349D01*
X476826Y-8326346D01*
X552408Y-8266118D01*
X592966Y-8243703D01*
X635634Y-8225033D01*
X671627Y-8211963D01*
X691675Y-8207510D01*
X702976Y-8204377D01*
X709655Y-8191637D01*
X712834Y-8164261D01*
X713634Y-8117220D01*
X713621Y-8109075D01*
X704757Y-8015186D01*
X678913Y-7939875D01*
X636330Y-7883418D01*
X577250Y-7846092D01*
X501915Y-7828173D01*
X466250Y-7826500D01*
X389021Y-7837216D01*
X326132Y-7868629D01*
X278953Y-7919635D01*
X248854Y-7989131D01*
X245131Y-8004554D01*
X241124Y-8036640D01*
X237681Y-8091258D01*
X234892Y-8165541D01*
X232842Y-8256625D01*
X231621Y-8361644D01*
X231300Y-8455775D01*
X231300Y-8842500D01*
X-22700Y-8842500D01*
X-22700Y-8431645D01*
X-23197Y-8292655D01*
X-24682Y-8178495D01*
X-27153Y-8089290D01*
X-30606Y-8025166D01*
X-35036Y-7986246D01*
X-37129Y-7977620D01*
X-71148Y-7912965D01*
X-123036Y-7865081D01*
X-190192Y-7835699D01*
X-264000Y-7826500D01*
X-342853Y-7836926D01*
X-408411Y-7867045D01*
X-458182Y-7915119D01*
X-489677Y-7979407D01*
X-491346Y-7985250D01*
X-495509Y-8014080D01*
X-499010Y-8066370D01*
X-501789Y-8140189D01*
X-503788Y-8233605D01*
X-504947Y-8344685D01*
X-505230Y-8439275D01*
X-505300Y-8842500D01*
X-759300Y-8842500D01*
X-759300Y-7610600D01*
X-1000600Y-7610600D01*
X-1000600Y-6874000D01*
X-746600Y-6874000D01*
X-746600Y-7597900D01*
X-505300Y-7597900D01*
X-505300Y-7753362D01*
X-455025Y-7701556D01*
X-391498Y-7646571D01*
X-323888Y-7611246D01*
X-244738Y-7592271D01*
X-198892Y-7587904D01*
X-102739Y-7589815D01*
X-21389Y-7609216D01*
X50204Y-7647748D01*
X92795Y-7682797D01*
X127432Y-7719037D01*
X155803Y-7755524D01*
X168893Y-7778340D01*
X180749Y-7803631D01*
X189231Y-7807746D01*
X198808Y-7794564D01*
X214540Y-7772329D01*
X240887Y-7739895D01*
X262319Y-7715311D01*
X325780Y-7654833D01*
X391039Y-7615609D01*
X465342Y-7594085D01*
X521993Y-7587899D01*
X576630Y-7586865D01*
X628055Y-7589478D01*
X665426Y-7595174D01*
X666351Y-7595423D01*
X713900Y-7608552D01*
X713900Y-7379767D01*
X659925Y-7390408D01*
X595961Y-7398330D01*
X519927Y-7400687D01*
X440949Y-7397830D01*
X368152Y-7390109D01*
X310662Y-7377875D01*
X307500Y-7376876D01*
X205410Y-7331156D01*
X119414Y-7266527D01*
X50973Y-7184845D01*
X1552Y-7087966D01*
X-27387Y-6977744D01*
X-31374Y-6947146D01*
X-39019Y-6874000D01*
X-746600Y-6874000D01*
X-1000600Y-6874000D01*
X-1000600Y-6645400D01*
X203881Y-6645400D01*
X761232Y-6645400D01*
X749229Y-6579362D01*
X723501Y-6488763D01*
X683290Y-6417377D01*
X629598Y-6366208D01*
X563426Y-6336255D01*
X498000Y-6328226D01*
X412838Y-6339836D01*
X339313Y-6373766D01*
X285700Y-6420989D01*
X261398Y-6452898D01*
X242989Y-6489070D01*
X227693Y-6536442D01*
X212727Y-6601955D01*
X212284Y-6604125D01*
X203881Y-6645400D01*
X-1000600Y-6645400D01*
X-1000600Y-5858000D01*
X104300Y-5858000D01*
X104300Y-6099300D01*
G37*
D12*
X-6207836Y-16940000D02*
X-5992164Y-16940000D01*
X-6207836Y-17660000D02*
X-5992164Y-17660000D01*
X-6253641Y-11920000D02*
X-5946359Y-11920000D01*
X-6253641Y-12680000D02*
X-5946359Y-12680000D01*
X-1492164Y-11160000D02*
X-1707836Y-11160000D01*
X-1492164Y-10440000D02*
X-1707836Y-10440000D01*
X6526359Y-12360000D02*
X6833641Y-12360000D01*
X6526359Y-13120000D02*
X6833641Y-13120000D01*
X-2940580Y-4690000D02*
X-2659420Y-4690000D01*
X-2940580Y-5710000D02*
X-2659420Y-5710000D01*
X4900000Y-19070000D02*
X8200000Y-19070000D01*
X8200000Y-19070000D02*
X8200000Y-15070000D01*
D13*
X-3500000Y-19350000D02*
X-3020000Y-19350000D01*
X-3500000Y-19350000D02*
X-3500000Y-18870000D01*
X3500000Y-19350000D02*
X3020000Y-19350000D01*
X3500000Y-19350000D02*
X3500000Y-18870000D01*
X-3500000Y-12350000D02*
X-3500000Y-12830000D01*
X-3500000Y-12350000D02*
X-3020000Y-12350000D01*
X3500000Y-12350000D02*
X3500000Y-12830000D01*
X3500000Y-12350000D02*
X3020000Y-12350000D01*
D14*
X-2500000Y-20325000D02*
G75*
G03*
X-2500000Y-20325000I-100000J0D01*
G01*
D12*
X-3220000Y-2046359D02*
X-3220000Y-2353641D01*
X-3980000Y-2046359D02*
X-3980000Y-2353641D01*
X11500000Y-8950000D02*
X11500000Y-5450000D01*
D15*
X8400000Y-9100000D02*
G75*
G03*
X8400000Y-9100000I-150000J0D01*
G01*
D12*
X1820000Y-28053641D02*
X1820000Y-27746359D01*
X2580000Y-28053641D02*
X2580000Y-27746359D01*
X5195000Y-28185000D02*
X4500000Y-28185000D01*
X5195000Y-27500000D02*
X5195000Y-28185000D01*
X5195000Y-26815000D02*
X5195000Y-24940000D01*
X5195000Y-26815000D02*
X5108276Y-26815000D01*
X5195000Y-24940000D02*
X4894493Y-24940000D01*
X4105507Y-24940000D02*
X3805000Y-24940000D01*
X3891724Y-26815000D02*
X3805000Y-26815000D01*
X3805000Y-26815000D02*
X3805000Y-24940000D01*
X-6034420Y-5710000D02*
X-6315580Y-5710000D01*
X-6034420Y-4690000D02*
X-6315580Y-4690000D01*
X-4150000Y-750000D02*
X-4150000Y1250000D01*
X4150000Y1250000D02*
X-4150000Y1250000D01*
X4150000Y-750000D02*
X4150000Y1250000D01*
X2180000Y-2846359D02*
X2180000Y-3153641D01*
X1420000Y-2846359D02*
X1420000Y-3153641D01*
X-1420000Y-2846359D02*
X-1420000Y-3153641D01*
X-2180000Y-2846359D02*
X-2180000Y-3153641D01*
D14*
X-3170000Y-28450000D02*
G75*
G03*
X-3170000Y-28450000I-100000J0D01*
G01*
D12*
X-6840580Y-13190000D02*
X-6559420Y-13190000D01*
X-6840580Y-14210000D02*
X-6559420Y-14210000D01*
X2080000Y-22046359D02*
X2080000Y-22353641D01*
X1320000Y-22046359D02*
X1320000Y-22353641D01*
X6526359Y-11210000D02*
X6833641Y-11210000D01*
X6526359Y-11970000D02*
X6833641Y-11970000D01*
X7357836Y-14630000D02*
X7142164Y-14630000D01*
X7357836Y-13910000D02*
X7142164Y-13910000D01*
X-2180000Y-27953641D02*
X-2180000Y-27646359D01*
X-1420000Y-27953641D02*
X-1420000Y-27646359D01*
X-5946359Y-15480000D02*
X-6253641Y-15480000D01*
X-5946359Y-14720000D02*
X-6253641Y-14720000D01*
X6850000Y-8700000D02*
X6850000Y-8500000D01*
X6850000Y-7400000D02*
X6850000Y-7000000D01*
X6850000Y-5700000D02*
X6850000Y-5900000D01*
X6850000Y-5700000D02*
X3350000Y-5700000D01*
X6300000Y-7950000D02*
X3900000Y-7950000D01*
X5100000Y-7950000D02*
X5100000Y-7600000D01*
X5100000Y-7600000D02*
X4650000Y-6950000D01*
X5100000Y-6450000D02*
X5100000Y-6800000D01*
X3900000Y-6450000D02*
X6300000Y-6450000D01*
X3350000Y-8700000D02*
X6850000Y-8700000D01*
X3350000Y-8700000D02*
X3350000Y-8500000D01*
X3350000Y-7400000D02*
X3350000Y-7000000D01*
X3350000Y-5700000D02*
X3350000Y-5900000D01*
X11500000Y-26950000D02*
X11500000Y-23450000D01*
D15*
X8400000Y-27100000D02*
G75*
G03*
X8400000Y-27100000I-150000J0D01*
G01*
D12*
X6572164Y-10130000D02*
X6787836Y-10130000D01*
X6572164Y-10850000D02*
X6787836Y-10850000D01*
D15*
X1275000Y-2275000D02*
G75*
G03*
X1275000Y-2275000I-125000J0D01*
G01*
D12*
X5600000Y-23760000D02*
X7400000Y-23760000D01*
X5600000Y-23760000D02*
X4800000Y-23760000D01*
X5600000Y-20640000D02*
X6400000Y-20640000D01*
X5600000Y-20640000D02*
X4800000Y-20640000D01*
X6846359Y-25670000D02*
X7153641Y-25670000D01*
X6846359Y-26430000D02*
X7153641Y-26430000D01*
X-6207836Y-18040000D02*
X-5992164Y-18040000D01*
X-6207836Y-18760000D02*
X-5992164Y-18760000D01*
X-6207836Y-19140000D02*
X-5992164Y-19140000D01*
X-6207836Y-19860000D02*
X-5992164Y-19860000D01*
X-5946359Y-16580000D02*
X-6253641Y-16580000D01*
X-5946359Y-15820000D02*
X-6253641Y-15820000D01*
D13*
X-5330000Y-27350000D02*
X-3870000Y-27350000D01*
X-5330000Y-28470000D02*
X-3870000Y-28470000D01*
D12*
X7142164Y-19510000D02*
X7357836Y-19510000D01*
X7142164Y-20230000D02*
X7357836Y-20230000D01*
D14*
X-400000Y-23015000D02*
X-400000Y-26515000D01*
D12*
X6846359Y-26820000D02*
X7153641Y-26820000D01*
X6846359Y-27580000D02*
X7153641Y-27580000D01*
X3180000Y-22046359D02*
X3180000Y-22353641D01*
X2420000Y-22046359D02*
X2420000Y-22353641D01*
X6892164Y-24590000D02*
X7107836Y-24590000D01*
X6892164Y-25310000D02*
X7107836Y-25310000D01*
X-1330810Y-22121693D02*
X-1178307Y-21969190D01*
X-821693Y-22630810D02*
X-669190Y-22478307D01*
X-5462500Y-21340000D02*
X-7262500Y-21340000D01*
X-5462500Y-21340000D02*
X-4662500Y-21340000D01*
X-5462500Y-24460000D02*
X-6262500Y-24460000D01*
X-5462500Y-24460000D02*
X-4662500Y-24460000D01*
X-4459420Y-26820000D02*
X-4740580Y-26820000D01*
X-4459420Y-25800000D02*
X-4740580Y-25800000D01*
X-3020000Y-6700000D02*
X-3020000Y-7840000D01*
X-2790000Y-7840000D02*
X-3020000Y-7840000D01*
X-2790000Y-7840000D02*
X-2790000Y-10560000D01*
X-7510000Y-7840000D02*
X-7280000Y-7840000D01*
X-2790000Y-10560000D02*
X-4100000Y-10560000D01*
X-6200000Y-10560000D02*
X-7510000Y-10560000D01*
X-7510000Y-10560000D02*
X-7510000Y-7840000D01*
X1707836Y-11160000D02*
X1492164Y-11160000D01*
X1707836Y-10440000D02*
X1492164Y-10440000D01*
%LPC*%
D16*
X-6580000Y-17300000D03*
X-5620000Y-17300000D03*
D17*
X-6610000Y-12300000D03*
X-5590000Y-12300000D03*
D18*
X-1120000Y-10800000D03*
X-2080000Y-10800000D03*
D17*
X6170000Y-12740000D03*
X7190000Y-12740000D03*
D19*
X-3575000Y-5200000D03*
X-2025000Y-5200000D03*
D20*
X7400000Y-18170000D03*
X7400000Y-15970000D03*
X5700000Y-15970000D03*
X5700000Y-18170000D03*
D21*
X-2600000Y-19285000D03*
X-2200000Y-19285000D03*
X-1800000Y-19285000D03*
X-1400000Y-19285000D03*
X-1000000Y-19285000D03*
X-600000Y-19285000D03*
X-200000Y-19285000D03*
X200000Y-19285000D03*
X600000Y-19285000D03*
X1000000Y-19285000D03*
X1400000Y-19285000D03*
X1800000Y-19285000D03*
X2200000Y-19285000D03*
X2600000Y-19285000D03*
D22*
X3435000Y-18450000D03*
X3435000Y-18050000D03*
X3435000Y-17650000D03*
X3435000Y-17250000D03*
X3435000Y-16850000D03*
X3435000Y-16450000D03*
X3435000Y-16050000D03*
X3435000Y-15650000D03*
X3435000Y-15250000D03*
X3435000Y-14850000D03*
X3435000Y-14450000D03*
X3435000Y-14050000D03*
X3435000Y-13650000D03*
X3435000Y-13250000D03*
D21*
X2600000Y-12415000D03*
X2200000Y-12415000D03*
X1800000Y-12415000D03*
X1400000Y-12415000D03*
X1000000Y-12415000D03*
X600000Y-12415000D03*
X200000Y-12415000D03*
X-200000Y-12415000D03*
X-600000Y-12415000D03*
X-1000000Y-12415000D03*
X-1400000Y-12415000D03*
X-1800000Y-12415000D03*
X-2200000Y-12415000D03*
X-2600000Y-12415000D03*
D22*
X-3435000Y-13250000D03*
X-3435000Y-13650000D03*
X-3435000Y-14050000D03*
X-3435000Y-14450000D03*
X-3435000Y-14850000D03*
X-3435000Y-15250000D03*
X-3435000Y-15650000D03*
X-3435000Y-16050000D03*
X-3435000Y-16450000D03*
X-3435000Y-16850000D03*
X-3435000Y-17250000D03*
X-3435000Y-17650000D03*
X-3435000Y-18050000D03*
X-3435000Y-18450000D03*
D23*
X0Y-15850000D03*
D24*
X-3600000Y-1690000D03*
X-3600000Y-2710000D03*
D25*
X9100000Y-7200000D03*
X10900000Y-7200000D03*
D26*
X9250000Y-9100000D03*
X10750000Y-9100000D03*
X9250000Y-5300000D03*
X10750000Y-5300000D03*
D27*
X2200000Y-28410000D03*
X2200000Y-27390000D03*
D28*
X4500000Y-27500000D03*
D29*
X4500000Y-26500000D03*
X4500000Y-25500000D03*
D30*
X-5400000Y-5200000D03*
X-6950000Y-5200000D03*
D31*
X-2750000Y0D03*
X-2250000Y0D03*
X-1750000Y0D03*
X-1250000Y0D03*
X-750000Y0D03*
X-250000Y0D03*
X250000Y0D03*
X750000Y0D03*
X1250000Y0D03*
X1750000Y0D03*
X2250000Y0D03*
X2750000Y0D03*
D32*
X-3600000Y50000D03*
D24*
X1800000Y-2490000D03*
X1800000Y-3510000D03*
X-1800000Y-2490000D03*
X-1800000Y-3510000D03*
D33*
X-3200000Y-29650000D03*
X-2400000Y-29650000D03*
D34*
X-1250000Y-29650000D03*
X-250000Y-29650000D03*
X250000Y-29650000D03*
X1250000Y-29650000D03*
D33*
X2400000Y-29650000D03*
X3200000Y-29650000D03*
X3200000Y-29650000D03*
X2400000Y-29650000D03*
D34*
X1750000Y-29650000D03*
X750000Y-29650000D03*
X-750000Y-29650000D03*
X-1750000Y-29650000D03*
D33*
X-2400000Y-29650000D03*
X-3200000Y-29650000D03*
D19*
X-7475000Y-13700000D03*
X-5925000Y-13700000D03*
D24*
X1700000Y-21690000D03*
X1700000Y-22710000D03*
D17*
X6170000Y-11590000D03*
X7190000Y-11590000D03*
D18*
X7730000Y-14270000D03*
X6770000Y-14270000D03*
D27*
X-1800000Y-28310000D03*
X-1800000Y-27290000D03*
D35*
X-5590000Y-15100000D03*
X-6610000Y-15100000D03*
D36*
X7075000Y-7950000D03*
X7075000Y-6450000D03*
X3125000Y-6450000D03*
X3125000Y-7950000D03*
D25*
X9100000Y-25200000D03*
X10900000Y-25200000D03*
D26*
X9250000Y-27100000D03*
X10750000Y-27100000D03*
X9250000Y-23300000D03*
X10750000Y-23300000D03*
D16*
X6200000Y-10490000D03*
X7160000Y-10490000D03*
D37*
X500000Y-2700000D03*
X0Y-2700000D03*
X-500000Y-2700000D03*
X-500000Y-4100000D03*
X0Y-4100000D03*
X500000Y-4100000D03*
D38*
X6737500Y-23150000D03*
X6737500Y-22200000D03*
X6737500Y-21250000D03*
X4462500Y-21250000D03*
X4462500Y-22200000D03*
X4462500Y-23150000D03*
D17*
X6490000Y-26050000D03*
X7510000Y-26050000D03*
D16*
X-6580000Y-18400000D03*
X-5620000Y-18400000D03*
X-6580000Y-19500000D03*
X-5620000Y-19500000D03*
D35*
X-5590000Y-16200000D03*
X-6610000Y-16200000D03*
D39*
X-5490000Y-27910000D03*
X-3710000Y-27910000D03*
D16*
X6770000Y-19870000D03*
X7730000Y-19870000D03*
D40*
X1700000Y-23940000D03*
X-1500000Y-23940000D03*
X1700000Y-25590000D03*
X-1500000Y-25590000D03*
D17*
X6490000Y-27200000D03*
X7510000Y-27200000D03*
D24*
X2800000Y-21690000D03*
X2800000Y-22710000D03*
D16*
X6520000Y-24950000D03*
X7480000Y-24950000D03*
D41*
X-1339411Y-22639411D03*
X-660589Y-21960589D03*
D42*
X-6600000Y-21950000D03*
X-6600000Y-22900000D03*
X-6600000Y-23850000D03*
X-4325000Y-23850000D03*
X-4325000Y-22900000D03*
X-4325000Y-21950000D03*
D30*
X-3825000Y-26310000D03*
X-5375000Y-26310000D03*
D43*
X-3650000Y-7250000D03*
D44*
X-5150000Y-7337500D03*
D43*
X-6650000Y-7250000D03*
D18*
X2080000Y-10800000D03*
X1120000Y-10800000D03*
D25*
X-10900000Y-11200000D03*
X-9100000Y-11200000D03*
X-10900000Y-21200000D03*
X-9100000Y-21200000D03*
%LPD*%
M02*
