M48
; DRILL file {KiCad 7.0.5} date Wed Aug 30 18:19:33 2023
; FORMAT={-:-/ absolute / inch / decimal}
; #@! TF.CreationDate,2023-08-30T18:19:33+03:00
; #@! TF.GenerationSoftware,Kicad,Pcbnew,7.0.5
; #@! TF.FileFunction,Plated,1,4,PTH
FMAT,2
INCH
; #@! TA.AperFunction,Plated,PTH,ViaDrill
T1C0.0118
; #@! TA.AperFunction,Plated,PTH,ComponentDrill
T2C0.0197
; #@! TA.AperFunction,Plated,PTH,ComponentDrill
T3C0.0236
%
G90
G05
T1
X-0.4134Y-0.5591
X-0.4055Y-0.9449
X-0.311Y-0.6776
X-0.3071Y-0.2047
X-0.3031Y-0.7247
X-0.3031Y-0.752
X-0.3031Y-0.8858
X-0.2933Y-0.6488
X-0.2913Y-0.5866
X-0.2835Y-1.1772
X-0.2756Y-1.0236
X-0.2756Y-1.063
X-0.2756Y-1.1024
X-0.2717Y-0.5394
X-0.248Y-1.1417
X-0.2272Y-0.7028
X-0.2271Y-0.7441
X-0.2096Y-0.8258
X-0.2008Y-1.1378
X-0.1909Y-0.5335
X-0.189Y-0.1654
X-0.166Y-0.7435
X-0.1654Y-1.1417
X-0.1417Y-0.0394
X-0.1309Y-0.8888
X-0.1301Y-0.7437
X-0.122Y-0.9882
X-0.1181Y-0.7756
X-0.1102Y-0.0394
X-0.1102Y-0.1063
X-0.1102Y-1.122
X-0.1063Y-0.815
X-0.1024Y-0.252
X-0.1024Y-0.2795
X-0.0945Y-0.315
X-0.0934Y-1.0456
X-0.089Y-0.5878
X-0.0884Y-0.6846
X-0.0866Y-0.6531
X-0.0831Y-0.398
X-0.0748Y-0.252
X-0.0748Y-0.2795
X-0.0669Y-0.315
X-0.0472Y-0.2047
X-0.0433Y-0.4016
X-0.0336Y-1.06
X-0.0211Y-1.1024
X-0.0189Y-0.9016
X-0.0138Y-0.0669
X-0.0099Y-0.8425
X0.0045Y-0.2047
X0.0179Y-0.0648
X0.032Y-0.2232
X0.0461Y-0.0787
X0.05Y-0.4012
X0.0543Y-1.1023
X0.0801Y-0.7057
X0.0866Y-0.0535
X0.0941Y-0.4008
X0.1142Y-0.1378
X0.116Y-0.0423
X0.1175Y-1.0931
X0.1208Y-0.7889
X0.1299Y-1.122
X0.1659Y-0.788
X0.1693Y-1.1417
X0.1714Y-0.6819
X0.1776Y-0.4677
X0.2055Y-0.5522
X0.2225Y-0.5797
X0.2272Y-0.5031
X0.2354Y-0.8001
X0.2484Y-0.7551
X0.2559Y-1.1102
X0.2835Y-1.1772
X0.2839Y-0.3819
X0.2992Y-0.8701
X0.3071Y-0.5827
X0.315Y-0.3268
X0.4016Y-1.0394
X0.4134Y-0.4055
T2
X0.1772Y-1.0039
X0.1772Y-1.0433
X0.1772Y-1.0827
T3
G00X-0.2213Y-1.1969
M15
G01X-0.2213Y-1.2283
M16
G05
G00X-0.2213Y-1.3465
M15
G01X-0.2213Y-1.3937
M16
G05
G00X0.2213Y-1.1969
M15
G01X0.2213Y-1.2283
M16
G05
G00X0.2213Y-1.3465
M15
G01X0.2213Y-1.3937
M16
G05
T0
M30
