G04 #@! TF.GenerationSoftware,KiCad,Pcbnew,7.0.5*
G04 #@! TF.CreationDate,2023-08-30T18:19:32+03:00*
G04 #@! TF.ProjectId,USB_duck_v2,5553425f-6475-4636-9b5f-76322e6b6963,rev?*
G04 #@! TF.SameCoordinates,Original*
G04 #@! TF.FileFunction,Copper,L2,Inr*
G04 #@! TF.FilePolarity,Positive*
%FSLAX46Y46*%
G04 Gerber Fmt 4.6, Leading zero omitted, Abs format (unit mm)*
G04 Created by KiCad (PCBNEW 7.0.5) date 2023-08-30 18:19:32*
%MOMM*%
%LPD*%
G01*
G04 APERTURE LIST*
G04 #@! TA.AperFunction,ComponentPad*
%ADD10R,0.850000X0.850000*%
G04 #@! TD*
G04 #@! TA.AperFunction,ComponentPad*
%ADD11O,0.850000X0.850000*%
G04 #@! TD*
G04 #@! TA.AperFunction,ComponentPad*
%ADD12O,1.000000X1.800000*%
G04 #@! TD*
G04 #@! TA.AperFunction,ComponentPad*
%ADD13O,0.950000X2.150000*%
G04 #@! TD*
G04 #@! TA.AperFunction,ViaPad*
%ADD14C,0.600000*%
G04 #@! TD*
G04 #@! TA.AperFunction,Conductor*
%ADD15C,0.400000*%
G04 #@! TD*
G04 #@! TA.AperFunction,Conductor*
%ADD16C,0.200000*%
G04 #@! TD*
G04 APERTURE END LIST*
D10*
X4500000Y-27500000D03*
D11*
X4500000Y-26500000D03*
X4500000Y-25500000D03*
D12*
X-5620000Y-30800000D03*
D13*
X-5620000Y-34800000D03*
D12*
X5620000Y-30800000D03*
D13*
X5620000Y-34800000D03*
D14*
X-5100000Y-28900000D03*
X-7698911Y-22500500D03*
X7600000Y-22100000D03*
X-2800000Y-2700000D03*
X-2700000Y-20700000D03*
X-10300000Y-24000000D03*
X-7000000Y-28000000D03*
X2900000Y-3500000D03*
X-7200000Y-29900000D03*
X-1700000Y-8000000D03*
X-7000000Y-27000000D03*
X-6300000Y-29000000D03*
X7800000Y-14800000D03*
X7200000Y-29900000D03*
X8000000Y-8300000D03*
X-2400000Y-8000000D03*
X-7800000Y-5200000D03*
X-1100000Y-10200000D03*
X10200000Y-26400000D03*
X7210000Y-9700000D03*
X4354500Y-17321236D03*
X-4200000Y-29000000D03*
X-6900000Y-13700000D03*
X-7699500Y-19100000D03*
X-1200000Y-5200000D03*
X-10500000Y-14200000D03*
X-7699500Y-18406374D03*
X-2800000Y-1000000D03*
X-3100000Y-25100000D03*
X2390000Y-10180000D03*
X2985061Y-27765141D03*
X4300000Y-29000000D03*
X10500000Y-10300000D03*
X-7000000Y-26000000D03*
X6310000Y-19180000D03*
X2947060Y-1074626D03*
X-5769500Y-18900000D03*
X-5770000Y-17850000D03*
X5978819Y-20321888D03*
X-2110000Y-10110000D03*
X5652503Y-14723601D03*
X-2600000Y-6400000D03*
X-3323911Y-22576089D03*
X-2600000Y-7100000D03*
X6500000Y-28200000D03*
X-3000000Y-19700000D03*
X1270000Y-10190000D03*
X-4850000Y-13550000D03*
X-1900000Y-7100000D03*
X-1900000Y-6400000D03*
X5770000Y-12780000D03*
X-250500Y-21400000D03*
X3300000Y-28500000D03*
X-2800000Y-28500000D03*
X2200181Y-1359891D03*
X-4800000Y-4200000D03*
X-7400000Y-14900000D03*
X-5325000Y-20975000D03*
X453710Y-1644849D03*
X-350500Y-1700000D03*
X1380000Y-27999500D03*
X-7900000Y-17210000D03*
X813966Y-5670000D03*
X114474Y-5200000D03*
X-2371844Y-26559461D03*
X-7450500Y-16480000D03*
X-480000Y-22900000D03*
X-536944Y-28000500D03*
X-854406Y-26923008D03*
X1170000Y-2000000D03*
X-3600000Y-1000000D03*
X-3304891Y-18890000D03*
X3068920Y-20038067D03*
X4214183Y-20014183D03*
X5220000Y-14026406D03*
X4510000Y-11880000D03*
X-2260000Y-14930000D03*
X-2199509Y-16587576D03*
X-2246275Y-17388056D03*
X2034658Y-17925818D03*
X-4215496Y-18883700D03*
D15*
X3300000Y-28500000D02*
X2800000Y-29000000D01*
X2800000Y-29000000D02*
X-2300000Y-29000000D01*
X-2300000Y-29000000D02*
X-2800000Y-28500000D01*
D16*
X813966Y-5670000D02*
X813966Y-9786034D01*
X813966Y-9786034D02*
X-6610000Y-17210000D01*
X-6610000Y-17210000D02*
X-7900000Y-17210000D01*
X-7450500Y-16480000D02*
X-6502182Y-16480000D01*
X-6502182Y-16480000D02*
X114474Y-9863344D01*
X114474Y-9863344D02*
X114474Y-5200000D01*
G04 #@! TA.AperFunction,Conductor*
G36*
X-3828646Y-19685D02*
G01*
X-3782891Y-72489D01*
X-3772947Y-141647D01*
X-3801972Y-205203D01*
X-3854731Y-241042D01*
X-3949521Y-274210D01*
X-4102261Y-370184D01*
X-4102262Y-370184D01*
X-4229816Y-497738D01*
X-4268477Y-559266D01*
X-4325788Y-650476D01*
X-4385368Y-820745D01*
X-4385369Y-820750D01*
X-4405565Y-999996D01*
X-4405565Y-1000003D01*
X-4385369Y-1179249D01*
X-4385368Y-1179255D01*
X-4325789Y-1349522D01*
X-4229816Y-1502262D01*
X-4102262Y-1629816D01*
X-3949522Y-1725789D01*
X-3779255Y-1785368D01*
X-3779252Y-1785368D01*
X-3779249Y-1785369D01*
X-3600004Y-1805565D01*
X-3600000Y-1805565D01*
X-3599996Y-1805565D01*
X-3420750Y-1785369D01*
X-3420746Y-1785368D01*
X-3420745Y-1785368D01*
X-3420743Y-1785367D01*
X-3420737Y-1785366D01*
X-3243905Y-1723489D01*
X-3243153Y-1725637D01*
X-3184872Y-1716035D01*
X-3156414Y-1724391D01*
X-3156098Y-1723487D01*
X-3149526Y-1725786D01*
X-3149522Y-1725789D01*
X-3129030Y-1732959D01*
X-3072258Y-1773677D01*
X-3046509Y-1838629D01*
X-3059964Y-1907191D01*
X-3108350Y-1957595D01*
X-3129031Y-1967040D01*
X-3149520Y-1974209D01*
X-3269379Y-2049522D01*
X-3302262Y-2070184D01*
X-3429816Y-2197738D01*
X-3451834Y-2232780D01*
X-3525188Y-2349522D01*
X-3525789Y-2350478D01*
X-3580056Y-2505565D01*
X-3585368Y-2520745D01*
X-3585369Y-2520750D01*
X-3605565Y-2699996D01*
X-3605565Y-2700003D01*
X-3593671Y-2805565D01*
X-3585368Y-2879255D01*
X-3525789Y-3049522D01*
X-3429816Y-3202262D01*
X-3302262Y-3329816D01*
X-3149522Y-3425789D01*
X-2979255Y-3485368D01*
X-2979252Y-3485368D01*
X-2979249Y-3485369D01*
X-2800004Y-3505565D01*
X-2800000Y-3505565D01*
X-2799996Y-3505565D01*
X-2750631Y-3500003D01*
X2094435Y-3500003D01*
X2114630Y-3679249D01*
X2114631Y-3679254D01*
X2174211Y-3849523D01*
X2244215Y-3960933D01*
X2270184Y-4002262D01*
X2397738Y-4129816D01*
X2550478Y-4225789D01*
X2720745Y-4285368D01*
X2720750Y-4285369D01*
X2899996Y-4305565D01*
X2900000Y-4305565D01*
X2900004Y-4305565D01*
X3079249Y-4285369D01*
X3079252Y-4285368D01*
X3079255Y-4285368D01*
X3249522Y-4225789D01*
X3402262Y-4129816D01*
X3529816Y-4002262D01*
X3625789Y-3849522D01*
X3685368Y-3679255D01*
X3685369Y-3679249D01*
X3705565Y-3500003D01*
X3705565Y-3499996D01*
X3685369Y-3320750D01*
X3685368Y-3320745D01*
X3625788Y-3150476D01*
X3529815Y-2997737D01*
X3402262Y-2870184D01*
X3249523Y-2774211D01*
X3079254Y-2714631D01*
X3079249Y-2714630D01*
X2900004Y-2694435D01*
X2899996Y-2694435D01*
X2720750Y-2714630D01*
X2720745Y-2714631D01*
X2550476Y-2774211D01*
X2397737Y-2870184D01*
X2270184Y-2997737D01*
X2174211Y-3150476D01*
X2114631Y-3320745D01*
X2114630Y-3320750D01*
X2094435Y-3499996D01*
X2094435Y-3500003D01*
X-2750631Y-3500003D01*
X-2620750Y-3485369D01*
X-2620745Y-3485368D01*
X-2588860Y-3474211D01*
X-2450478Y-3425789D01*
X-2432721Y-3414632D01*
X-2388080Y-3386582D01*
X-2297738Y-3329816D01*
X-2170184Y-3202262D01*
X-2137646Y-3150478D01*
X-2074211Y-3049523D01*
X-2014631Y-2879254D01*
X-2014630Y-2879249D01*
X-1994435Y-2700003D01*
X-1994435Y-2699996D01*
X-2014630Y-2520750D01*
X-2014631Y-2520745D01*
X-2074211Y-2350476D01*
X-2170184Y-2197737D01*
X-2297737Y-2070184D01*
X-2450479Y-1974209D01*
X-2470966Y-1967041D01*
X-2527741Y-1926319D01*
X-2553488Y-1861366D01*
X-2540031Y-1792804D01*
X-2491643Y-1742402D01*
X-2470966Y-1732959D01*
X-2450479Y-1725790D01*
X-2409440Y-1700003D01*
X-1156065Y-1700003D01*
X-1135869Y-1879249D01*
X-1135868Y-1879255D01*
X-1076289Y-2049522D01*
X-980316Y-2202262D01*
X-852762Y-2329816D01*
X-700022Y-2425789D01*
X-529755Y-2485368D01*
X-529752Y-2485368D01*
X-529749Y-2485369D01*
X-350504Y-2505565D01*
X-350500Y-2505565D01*
X-350496Y-2505565D01*
X-171250Y-2485369D01*
X-171245Y-2485368D01*
X-148271Y-2477329D01*
X-978Y-2425789D01*
X42453Y-2398499D01*
X109687Y-2379498D01*
X149376Y-2386450D01*
X210422Y-2407811D01*
X274450Y-2430216D01*
X274460Y-2430218D01*
X403369Y-2444742D01*
X452371Y-2450263D01*
X516785Y-2477329D01*
X534779Y-2497662D01*
X535841Y-2496816D01*
X540184Y-2502262D01*
X667738Y-2629816D01*
X758080Y-2686582D01*
X802721Y-2714632D01*
X820478Y-2725789D01*
X958860Y-2774211D01*
X990745Y-2785368D01*
X990750Y-2785369D01*
X1169996Y-2805565D01*
X1170000Y-2805565D01*
X1170004Y-2805565D01*
X1349249Y-2785369D01*
X1349252Y-2785368D01*
X1349255Y-2785368D01*
X1519522Y-2725789D01*
X1672262Y-2629816D01*
X1799816Y-2502262D01*
X1895789Y-2349522D01*
X1936639Y-2232777D01*
X1977359Y-2176004D01*
X2042312Y-2150256D01*
X2067564Y-2150514D01*
X2200178Y-2165456D01*
X2200181Y-2165456D01*
X2200185Y-2165456D01*
X2379430Y-2145260D01*
X2379433Y-2145259D01*
X2379436Y-2145259D01*
X2549703Y-2085680D01*
X2702443Y-1989707D01*
X2783415Y-1908733D01*
X2844736Y-1875250D01*
X2884978Y-1873196D01*
X2901268Y-1875031D01*
X2947058Y-1880191D01*
X2947060Y-1880191D01*
X2947064Y-1880191D01*
X3126309Y-1859995D01*
X3126312Y-1859994D01*
X3126315Y-1859994D01*
X3296582Y-1800415D01*
X3449322Y-1704442D01*
X3576876Y-1576888D01*
X3672849Y-1424148D01*
X3732428Y-1253881D01*
X3734509Y-1235412D01*
X3752625Y-1074629D01*
X3752625Y-1074622D01*
X3732429Y-895376D01*
X3732428Y-895371D01*
X3719870Y-859482D01*
X3672849Y-725104D01*
X3576876Y-572364D01*
X3449322Y-444810D01*
X3330556Y-370184D01*
X3296583Y-348837D01*
X3126314Y-289257D01*
X3126309Y-289256D01*
X2947064Y-269061D01*
X2947056Y-269061D01*
X2767810Y-289256D01*
X2767805Y-289257D01*
X2597536Y-348837D01*
X2444797Y-444810D01*
X2363825Y-525782D01*
X2302501Y-559266D01*
X2262261Y-561320D01*
X2200184Y-554326D01*
X2200177Y-554326D01*
X2020931Y-574521D01*
X2020926Y-574522D01*
X1850657Y-634102D01*
X1697918Y-730075D01*
X1570365Y-857628D01*
X1474390Y-1010371D01*
X1433541Y-1127111D01*
X1392820Y-1183887D01*
X1327867Y-1209634D01*
X1302617Y-1209376D01*
X1171338Y-1194585D01*
X1106924Y-1167519D01*
X1088934Y-1147183D01*
X1087869Y-1148033D01*
X1083525Y-1142586D01*
X955972Y-1015033D01*
X803233Y-919060D01*
X632964Y-859480D01*
X632959Y-859479D01*
X453714Y-839284D01*
X453706Y-839284D01*
X274460Y-859479D01*
X274447Y-859482D01*
X104192Y-919057D01*
X79493Y-934576D01*
X60754Y-946350D01*
X-6481Y-965349D01*
X-46169Y-958397D01*
X-171242Y-914632D01*
X-171250Y-914630D01*
X-350496Y-894435D01*
X-350504Y-894435D01*
X-529749Y-914630D01*
X-529754Y-914631D01*
X-700023Y-974211D01*
X-764990Y-1015033D01*
X-852762Y-1070184D01*
X-980316Y-1197738D01*
X-990931Y-1214632D01*
X-1075688Y-1349522D01*
X-1076289Y-1350478D01*
X-1135868Y-1520744D01*
X-1135868Y-1520745D01*
X-1135869Y-1520750D01*
X-1156065Y-1699996D01*
X-1156065Y-1700003D01*
X-2409440Y-1700003D01*
X-2374108Y-1677802D01*
X-2297738Y-1629816D01*
X-2170184Y-1502262D01*
X-2121102Y-1424149D01*
X-2074211Y-1349523D01*
X-2014631Y-1179254D01*
X-2014630Y-1179249D01*
X-1994435Y-1000003D01*
X-1994435Y-999996D01*
X-2014630Y-820750D01*
X-2014631Y-820745D01*
X-2074211Y-650476D01*
X-2170184Y-497737D01*
X-2297737Y-370184D01*
X-2450478Y-274210D01*
X-2545269Y-241042D01*
X-2602046Y-200320D01*
X-2627793Y-135367D01*
X-2614337Y-66806D01*
X-2565950Y-16403D01*
X-2504315Y0D01*
X5390258Y0D01*
X5457297Y-19685D01*
X5467395Y-26913D01*
X10553738Y-4068117D01*
X10553739Y-4068118D01*
X10577531Y-4087021D01*
X10586772Y-4094364D01*
X10589790Y-4096924D01*
X10751915Y-4243663D01*
X10757459Y-4249371D01*
X10868346Y-4379249D01*
X10898130Y-4414133D01*
X10902904Y-4420513D01*
X10979843Y-4538410D01*
X10999997Y-4605310D01*
X11000000Y-4606178D01*
X11000000Y-6525500D01*
X10980315Y-6592539D01*
X10927511Y-6638294D01*
X10876000Y-6649500D01*
X10862341Y-6649500D01*
X10750082Y-6664929D01*
X10750079Y-6664930D01*
X10611283Y-6725217D01*
X10493889Y-6820724D01*
X10406623Y-6944352D01*
X10406621Y-6944355D01*
X10355946Y-7086939D01*
X10355946Y-7086942D01*
X10345619Y-7237918D01*
X10345619Y-7237921D01*
X10376405Y-7386078D01*
X10376407Y-7386083D01*
X10376408Y-7386085D01*
X10446029Y-7520447D01*
X10446031Y-7520449D01*
X10446032Y-7520451D01*
X10549318Y-7631043D01*
X10549320Y-7631044D01*
X10678618Y-7709672D01*
X10824335Y-7750500D01*
X10824336Y-7750500D01*
X10876000Y-7750500D01*
X10943039Y-7770185D01*
X10988794Y-7822989D01*
X11000000Y-7874500D01*
X11000000Y-9452103D01*
X10980315Y-9519142D01*
X10927511Y-9564897D01*
X10858353Y-9574841D01*
X10835046Y-9569145D01*
X10679257Y-9514632D01*
X10679249Y-9514630D01*
X10500004Y-9494435D01*
X10499996Y-9494435D01*
X10320750Y-9514630D01*
X10320745Y-9514631D01*
X10150476Y-9574211D01*
X9997737Y-9670184D01*
X9870184Y-9797737D01*
X9774211Y-9950476D01*
X9714631Y-10120745D01*
X9714630Y-10120750D01*
X9694435Y-10299996D01*
X9694435Y-10300003D01*
X9714630Y-10479249D01*
X9714631Y-10479254D01*
X9774211Y-10649523D01*
X9856403Y-10780330D01*
X9870184Y-10802262D01*
X9997738Y-10929816D01*
X10020877Y-10944355D01*
X10131580Y-11013915D01*
X10150478Y-11025789D01*
X10254023Y-11062021D01*
X10320745Y-11085368D01*
X10320750Y-11085369D01*
X10499996Y-11105565D01*
X10500000Y-11105565D01*
X10500004Y-11105565D01*
X10679249Y-11085369D01*
X10679251Y-11085368D01*
X10679255Y-11085368D01*
X10679258Y-11085366D01*
X10679262Y-11085366D01*
X10835045Y-11030855D01*
X10904824Y-11027293D01*
X10965451Y-11062021D01*
X10997679Y-11124015D01*
X11000000Y-11147896D01*
X11000000Y-24525500D01*
X10980315Y-24592539D01*
X10927511Y-24638294D01*
X10876000Y-24649500D01*
X10862341Y-24649500D01*
X10750082Y-24664929D01*
X10750079Y-24664930D01*
X10611283Y-24725217D01*
X10493889Y-24820724D01*
X10406623Y-24944352D01*
X10406621Y-24944355D01*
X10355946Y-25086939D01*
X10355946Y-25086942D01*
X10345619Y-25237918D01*
X10345619Y-25237921D01*
X10376405Y-25386078D01*
X10376407Y-25386083D01*
X10376408Y-25386085D01*
X10395111Y-25422180D01*
X10408476Y-25490760D01*
X10382642Y-25555678D01*
X10325811Y-25596324D01*
X10271131Y-25602448D01*
X10200005Y-25594435D01*
X10199996Y-25594435D01*
X10020750Y-25614630D01*
X10020745Y-25614631D01*
X9850476Y-25674211D01*
X9697737Y-25770184D01*
X9570184Y-25897737D01*
X9474211Y-26050476D01*
X9414631Y-26220745D01*
X9414630Y-26220750D01*
X9394435Y-26399996D01*
X9394435Y-26400003D01*
X9414630Y-26579249D01*
X9414631Y-26579254D01*
X9474211Y-26749523D01*
X9570184Y-26902262D01*
X9697738Y-27029816D01*
X9788080Y-27086582D01*
X9828755Y-27112140D01*
X9850478Y-27125789D01*
X9879737Y-27136027D01*
X10020745Y-27185368D01*
X10020750Y-27185369D01*
X10199996Y-27205565D01*
X10200000Y-27205565D01*
X10200004Y-27205565D01*
X10379249Y-27185369D01*
X10379252Y-27185368D01*
X10379255Y-27185368D01*
X10549522Y-27125789D01*
X10702262Y-27029816D01*
X10788318Y-26943759D01*
X10849642Y-26910274D01*
X10919334Y-26915258D01*
X10975267Y-26957130D01*
X10999684Y-27022594D01*
X11000000Y-27031440D01*
X11000000Y-27847220D01*
X10980315Y-27914259D01*
X10979824Y-27915018D01*
X10902558Y-28033340D01*
X10897779Y-28039722D01*
X10755644Y-28206080D01*
X10752959Y-28209025D01*
X8367127Y-30663025D01*
X8367087Y-30663070D01*
X8299890Y-30732182D01*
X8299888Y-30732185D01*
X8147473Y-30928112D01*
X8147472Y-30928113D01*
X8017529Y-31139608D01*
X8017521Y-31139622D01*
X7911629Y-31364112D01*
X7911624Y-31364124D01*
X7831058Y-31598905D01*
X7776794Y-31841134D01*
X7749497Y-32087857D01*
X7749500Y-32194065D01*
X7749500Y-35596462D01*
X7749097Y-35603520D01*
X7736898Y-35710079D01*
X7730523Y-35737557D01*
X7698126Y-35828575D01*
X7685707Y-35853901D01*
X7633579Y-35935241D01*
X7615764Y-35957097D01*
X7607902Y-35964764D01*
X7546169Y-35997484D01*
X7521319Y-36000000D01*
X6612197Y-36000000D01*
X6545158Y-35980315D01*
X6499403Y-35927511D01*
X6489459Y-35858353D01*
X6498246Y-35827100D01*
X6503086Y-35815821D01*
X6555563Y-35693535D01*
X6595500Y-35499199D01*
X6595500Y-34150527D01*
X6580459Y-34002621D01*
X6580459Y-34002619D01*
X6521069Y-33813329D01*
X6521067Y-33813322D01*
X6424784Y-33639854D01*
X6424782Y-33639851D01*
X6295554Y-33489319D01*
X6295553Y-33489317D01*
X6138668Y-33367879D01*
X6138664Y-33367877D01*
X6090450Y-33344227D01*
X5960544Y-33280505D01*
X5960542Y-33280504D01*
X5960539Y-33280503D01*
X5960541Y-33280503D01*
X5768488Y-33230777D01*
X5768482Y-33230776D01*
X5570337Y-33220728D01*
X5570332Y-33220728D01*
X5374235Y-33250768D01*
X5374222Y-33250771D01*
X5188184Y-33319673D01*
X5188175Y-33319677D01*
X5060091Y-33399512D01*
X4992785Y-33418268D01*
X4926025Y-33397659D01*
X4881004Y-33344227D01*
X4870500Y-33294280D01*
X4870500Y-32137849D01*
X4890185Y-32070810D01*
X4942989Y-32025055D01*
X5012147Y-32015111D01*
X5070400Y-32039792D01*
X5088042Y-32053448D01*
X5270729Y-32143060D01*
X5467715Y-32194063D01*
X5670936Y-32204369D01*
X5872071Y-32173556D01*
X6062887Y-32102886D01*
X6235571Y-31995252D01*
X6383053Y-31855059D01*
X6499295Y-31688049D01*
X6579540Y-31501058D01*
X6620500Y-31301741D01*
X6620500Y-30705645D01*
X6640185Y-30638606D01*
X6692989Y-30592851D01*
X6762147Y-30582907D01*
X6810473Y-30600652D01*
X6850475Y-30625788D01*
X7020745Y-30685368D01*
X7020750Y-30685369D01*
X7199996Y-30705565D01*
X7200000Y-30705565D01*
X7200004Y-30705565D01*
X7379249Y-30685369D01*
X7379252Y-30685368D01*
X7379255Y-30685368D01*
X7549522Y-30625789D01*
X7702262Y-30529816D01*
X7829816Y-30402262D01*
X7925789Y-30249522D01*
X7985368Y-30079255D01*
X8000064Y-29948826D01*
X8005565Y-29900003D01*
X8005565Y-29899996D01*
X7985369Y-29720750D01*
X7985368Y-29720745D01*
X7981647Y-29710111D01*
X7925789Y-29550478D01*
X7923323Y-29546554D01*
X7880901Y-29479039D01*
X7829816Y-29397738D01*
X7702262Y-29270184D01*
X7689247Y-29262006D01*
X7549523Y-29174211D01*
X7379254Y-29114631D01*
X7379249Y-29114630D01*
X7200004Y-29094435D01*
X7199996Y-29094435D01*
X7020750Y-29114630D01*
X7020745Y-29114631D01*
X6850476Y-29174211D01*
X6697737Y-29270184D01*
X6570184Y-29397737D01*
X6474209Y-29550479D01*
X6463453Y-29581219D01*
X6422730Y-29637995D01*
X6357777Y-29663741D01*
X6289216Y-29650284D01*
X6270511Y-29638319D01*
X6151962Y-29546554D01*
X6151959Y-29546553D01*
X6151958Y-29546552D01*
X5969271Y-29456940D01*
X5772285Y-29405937D01*
X5772287Y-29405937D01*
X5610611Y-29397738D01*
X5569064Y-29395631D01*
X5569063Y-29395631D01*
X5569061Y-29395631D01*
X5367936Y-29426442D01*
X5367929Y-29426444D01*
X5191080Y-29491941D01*
X5121377Y-29496764D01*
X5060131Y-29463138D01*
X5026788Y-29401737D01*
X5030974Y-29334704D01*
X5085366Y-29179262D01*
X5085369Y-29179249D01*
X5105565Y-29000003D01*
X5105565Y-28999996D01*
X5085369Y-28820750D01*
X5085368Y-28820745D01*
X5025788Y-28650476D01*
X4990291Y-28593983D01*
X4971291Y-28526746D01*
X4991659Y-28459911D01*
X5044927Y-28414697D01*
X5051953Y-28411829D01*
X5167326Y-28368798D01*
X5167326Y-28368797D01*
X5167331Y-28368796D01*
X5282546Y-28282546D01*
X5368796Y-28167331D01*
X5419091Y-28032483D01*
X5425500Y-27972873D01*
X5425499Y-27027128D01*
X5419091Y-26967517D01*
X5416129Y-26959576D01*
X5381900Y-26867803D01*
X5376916Y-26798112D01*
X5380145Y-26786170D01*
X5410262Y-26693482D01*
X5430598Y-26500000D01*
X5410262Y-26306518D01*
X5350144Y-26121492D01*
X5315795Y-26061999D01*
X5299322Y-25994101D01*
X5315796Y-25938000D01*
X5350144Y-25878508D01*
X5410262Y-25693482D01*
X5430598Y-25500000D01*
X5410262Y-25306518D01*
X5387974Y-25237921D01*
X8545619Y-25237921D01*
X8576405Y-25386078D01*
X8576407Y-25386083D01*
X8576408Y-25386085D01*
X8646029Y-25520447D01*
X8646031Y-25520449D01*
X8646032Y-25520451D01*
X8749318Y-25631043D01*
X8749320Y-25631044D01*
X8878618Y-25709672D01*
X9024335Y-25750500D01*
X9024336Y-25750500D01*
X9137659Y-25750500D01*
X9165723Y-25746642D01*
X9249920Y-25735070D01*
X9359854Y-25687318D01*
X9388716Y-25674782D01*
X9388716Y-25674781D01*
X9388720Y-25674780D01*
X9506108Y-25579278D01*
X9593377Y-25455647D01*
X9605271Y-25422180D01*
X9644053Y-25313060D01*
X9644053Y-25313058D01*
X9644054Y-25313056D01*
X9654381Y-25162079D01*
X9645946Y-25121488D01*
X9623594Y-25013921D01*
X9623592Y-25013918D01*
X9623592Y-25013915D01*
X9553971Y-24879553D01*
X9553967Y-24879549D01*
X9553967Y-24879548D01*
X9450681Y-24768956D01*
X9372053Y-24721141D01*
X9321382Y-24690328D01*
X9175665Y-24649500D01*
X9062342Y-24649500D01*
X9062341Y-24649500D01*
X8950082Y-24664929D01*
X8950079Y-24664930D01*
X8811283Y-24725217D01*
X8693889Y-24820724D01*
X8606623Y-24944352D01*
X8606621Y-24944355D01*
X8555946Y-25086939D01*
X8555946Y-25086942D01*
X8545619Y-25237918D01*
X8545619Y-25237921D01*
X5387974Y-25237921D01*
X5350144Y-25121492D01*
X5350143Y-25121491D01*
X5350143Y-25121489D01*
X5350142Y-25121488D01*
X5288038Y-25013921D01*
X5252870Y-24953008D01*
X5186726Y-24879548D01*
X5122697Y-24808435D01*
X5122694Y-24808433D01*
X5122693Y-24808432D01*
X5122692Y-24808431D01*
X5014209Y-24729613D01*
X4965297Y-24694076D01*
X4812641Y-24626111D01*
X4787571Y-24614949D01*
X4787569Y-24614948D01*
X4597274Y-24574500D01*
X4402726Y-24574500D01*
X4212431Y-24614948D01*
X4034702Y-24694076D01*
X3877305Y-24808433D01*
X3877302Y-24808435D01*
X3747129Y-24953009D01*
X3649857Y-25121488D01*
X3649856Y-25121489D01*
X3589738Y-25306516D01*
X3569402Y-25500000D01*
X3589738Y-25693483D01*
X3649856Y-25878510D01*
X3649857Y-25878511D01*
X3684203Y-25938000D01*
X3700676Y-26005900D01*
X3684203Y-26062000D01*
X3649857Y-26121488D01*
X3649856Y-26121489D01*
X3589738Y-26306516D01*
X3579912Y-26400003D01*
X3569402Y-26500000D01*
X3577732Y-26579254D01*
X3589738Y-26693483D01*
X3589740Y-26693488D01*
X3619848Y-26786154D01*
X3621843Y-26855995D01*
X3618099Y-26867804D01*
X3580908Y-26967516D01*
X3579302Y-26982461D01*
X3552563Y-27047012D01*
X3495170Y-27086859D01*
X3425345Y-27089352D01*
X3390041Y-27074198D01*
X3334584Y-27039352D01*
X3164315Y-26979772D01*
X3164310Y-26979771D01*
X2985065Y-26959576D01*
X2985057Y-26959576D01*
X2805811Y-26979771D01*
X2805806Y-26979772D01*
X2635537Y-27039352D01*
X2482798Y-27135325D01*
X2355245Y-27262878D01*
X2259270Y-27415620D01*
X2236741Y-27480005D01*
X2196019Y-27536780D01*
X2131066Y-27562527D01*
X2062505Y-27549070D01*
X2014706Y-27505021D01*
X2012345Y-27501264D01*
X2009816Y-27497238D01*
X1882262Y-27369684D01*
X1865042Y-27358864D01*
X1729523Y-27273711D01*
X1559254Y-27214131D01*
X1559249Y-27214130D01*
X1380004Y-27193935D01*
X1379996Y-27193935D01*
X1200750Y-27214130D01*
X1200745Y-27214131D01*
X1030476Y-27273711D01*
X877737Y-27369684D01*
X750184Y-27497237D01*
X654211Y-27649976D01*
X594631Y-27820245D01*
X594630Y-27820250D01*
X574435Y-27999496D01*
X574435Y-27999503D01*
X592700Y-28161617D01*
X580645Y-28230439D01*
X533296Y-28281818D01*
X469480Y-28299500D01*
X373688Y-28299500D01*
X306649Y-28279815D01*
X260894Y-28227011D01*
X250468Y-28161616D01*
X268621Y-28000502D01*
X268621Y-28000496D01*
X248425Y-27821250D01*
X248424Y-27821245D01*
X188844Y-27650976D01*
X135433Y-27565973D01*
X92872Y-27498238D01*
X74639Y-27480005D01*
X-34683Y-27370682D01*
X-34685Y-27370681D01*
X-56113Y-27357217D01*
X-102404Y-27304882D01*
X-113051Y-27235829D01*
X-107182Y-27211272D01*
X-85531Y-27149398D01*
X-69038Y-27102267D01*
X-69036Y-27102257D01*
X-48841Y-26923011D01*
X-48841Y-26923004D01*
X-69036Y-26743758D01*
X-69037Y-26743753D01*
X-128617Y-26573484D01*
X-224590Y-26420745D01*
X-352143Y-26293192D01*
X-504882Y-26197219D01*
X-675151Y-26137639D01*
X-675156Y-26137638D01*
X-854402Y-26117443D01*
X-854410Y-26117443D01*
X-1033655Y-26137638D01*
X-1033660Y-26137639D01*
X-1203929Y-26197219D01*
X-1356668Y-26293192D01*
X-1409918Y-26346442D01*
X-1471241Y-26379927D01*
X-1540933Y-26374943D01*
X-1596866Y-26333071D01*
X-1614641Y-26299715D01*
X-1646054Y-26209939D01*
X-1742028Y-26057198D01*
X-1869581Y-25929645D01*
X-2022320Y-25833672D01*
X-2192589Y-25774092D01*
X-2192594Y-25774091D01*
X-2356555Y-25755618D01*
X-2420969Y-25728552D01*
X-2460525Y-25670957D01*
X-2462662Y-25601120D01*
X-2447666Y-25566426D01*
X-2374211Y-25449523D01*
X-2314631Y-25279254D01*
X-2314630Y-25279249D01*
X-2294435Y-25100003D01*
X-2294435Y-25099996D01*
X-2314630Y-24920750D01*
X-2314631Y-24920745D01*
X-2374211Y-24750476D01*
X-2470184Y-24597737D01*
X-2597737Y-24470184D01*
X-2750476Y-24374211D01*
X-2920745Y-24314631D01*
X-2920750Y-24314630D01*
X-3099996Y-24294435D01*
X-3100004Y-24294435D01*
X-3279249Y-24314630D01*
X-3279254Y-24314631D01*
X-3449523Y-24374211D01*
X-3602261Y-24470183D01*
X-3602262Y-24470184D01*
X-3729816Y-24597738D01*
X-3786581Y-24688080D01*
X-3809916Y-24725217D01*
X-3825789Y-24750478D01*
X-3870954Y-24879552D01*
X-3885368Y-24920745D01*
X-3885369Y-24920750D01*
X-3905565Y-25099996D01*
X-3905565Y-25100003D01*
X-3885369Y-25279249D01*
X-3885368Y-25279255D01*
X-3825789Y-25449522D01*
X-3729816Y-25602262D01*
X-3602262Y-25729816D01*
X-3449522Y-25825789D01*
X-3279255Y-25885368D01*
X-3279253Y-25885368D01*
X-3279250Y-25885369D01*
X-3200469Y-25894244D01*
X-3115286Y-25903842D01*
X-3050874Y-25930908D01*
X-3011319Y-25988502D01*
X-3009180Y-26058339D01*
X-3024177Y-26093034D01*
X-3097632Y-26209937D01*
X-3097633Y-26209939D01*
X-3146475Y-26349522D01*
X-3157212Y-26380206D01*
X-3157213Y-26380211D01*
X-3177409Y-26559457D01*
X-3177409Y-26559464D01*
X-3162308Y-26693488D01*
X-3157212Y-26738716D01*
X-3097633Y-26908983D01*
X-3001660Y-27061723D01*
X-2874106Y-27189277D01*
X-2721366Y-27285250D01*
X-2551099Y-27344829D01*
X-2551096Y-27344829D01*
X-2551093Y-27344830D01*
X-2371848Y-27365026D01*
X-2371844Y-27365026D01*
X-2371840Y-27365026D01*
X-2192594Y-27344830D01*
X-2192589Y-27344829D01*
X-2192588Y-27344829D01*
X-2022322Y-27285250D01*
X-2002076Y-27272529D01*
X-1922459Y-27222502D01*
X-1869582Y-27189277D01*
X-1816332Y-27136027D01*
X-1755009Y-27102542D01*
X-1685317Y-27107526D01*
X-1629384Y-27149398D01*
X-1611608Y-27182754D01*
X-1580195Y-27272530D01*
X-1484222Y-27425270D01*
X-1356668Y-27552824D01*
X-1335238Y-27566289D01*
X-1288948Y-27618620D01*
X-1278298Y-27687673D01*
X-1284169Y-27712237D01*
X-1322310Y-27821237D01*
X-1322313Y-27821250D01*
X-1342509Y-28000496D01*
X-1342509Y-28000502D01*
X-1324356Y-28161616D01*
X-1336410Y-28230438D01*
X-1383760Y-28281818D01*
X-1447576Y-28299500D01*
X-1934083Y-28299500D01*
X-2001122Y-28279815D01*
X-2046877Y-28227011D01*
X-2051124Y-28216456D01*
X-2074211Y-28150476D01*
X-2074212Y-28150475D01*
X-2170184Y-27997737D01*
X-2297737Y-27870184D01*
X-2450476Y-27774211D01*
X-2620745Y-27714631D01*
X-2620750Y-27714630D01*
X-2799996Y-27694435D01*
X-2800004Y-27694435D01*
X-2979249Y-27714630D01*
X-2979254Y-27714631D01*
X-3149523Y-27774211D01*
X-3267770Y-27848511D01*
X-3302262Y-27870184D01*
X-3429816Y-27997738D01*
X-3452186Y-28033340D01*
X-3525789Y-28150478D01*
X-3568447Y-28272387D01*
X-3609169Y-28329164D01*
X-3674122Y-28354911D01*
X-3742683Y-28341455D01*
X-3751461Y-28336427D01*
X-3850476Y-28274211D01*
X-4020745Y-28214631D01*
X-4020750Y-28214630D01*
X-4199996Y-28194435D01*
X-4200004Y-28194435D01*
X-4379249Y-28214630D01*
X-4379257Y-28214632D01*
X-4520011Y-28263884D01*
X-4589789Y-28267445D01*
X-4626937Y-28251836D01*
X-4750476Y-28174211D01*
X-4920745Y-28114631D01*
X-4920750Y-28114630D01*
X-5099996Y-28094435D01*
X-5100004Y-28094435D01*
X-5279249Y-28114630D01*
X-5279254Y-28114631D01*
X-5449523Y-28174211D01*
X-5602262Y-28270184D01*
X-5669180Y-28337102D01*
X-5730503Y-28370587D01*
X-5800195Y-28365603D01*
X-5822833Y-28354415D01*
X-5950476Y-28274211D01*
X-6121568Y-28214344D01*
X-6178344Y-28173622D01*
X-6204091Y-28108669D01*
X-6203833Y-28083419D01*
X-6194435Y-28000004D01*
X-6194435Y-27999996D01*
X-6214630Y-27820750D01*
X-6214633Y-27820737D01*
X-6274209Y-27650479D01*
X-6327309Y-27565971D01*
X-6346309Y-27498734D01*
X-6327309Y-27434029D01*
X-6274209Y-27349520D01*
X-6214633Y-27179262D01*
X-6214630Y-27179249D01*
X-6194435Y-27000003D01*
X-6194435Y-26999996D01*
X-6214630Y-26820750D01*
X-6214633Y-26820737D01*
X-6274209Y-26650479D01*
X-6327309Y-26565971D01*
X-6346309Y-26498734D01*
X-6327309Y-26434029D01*
X-6274209Y-26349520D01*
X-6214633Y-26179262D01*
X-6214630Y-26179249D01*
X-6194435Y-26000003D01*
X-6194435Y-25999996D01*
X-6214630Y-25820750D01*
X-6214631Y-25820745D01*
X-6274211Y-25650476D01*
X-6370184Y-25497737D01*
X-6497737Y-25370184D01*
X-6650476Y-25274211D01*
X-6820745Y-25214631D01*
X-6820750Y-25214630D01*
X-6999996Y-25194435D01*
X-7000004Y-25194435D01*
X-7179249Y-25214630D01*
X-7179254Y-25214631D01*
X-7349523Y-25274211D01*
X-7411350Y-25313060D01*
X-7502262Y-25370184D01*
X-7629816Y-25497738D01*
X-7681049Y-25579275D01*
X-7703265Y-25614632D01*
X-7725789Y-25650478D01*
X-7762579Y-25755618D01*
X-7785368Y-25820745D01*
X-7785369Y-25820750D01*
X-7805565Y-25999996D01*
X-7805565Y-26000003D01*
X-7790057Y-26137638D01*
X-7785368Y-26179255D01*
X-7725789Y-26349522D01*
X-7725788Y-26349524D01*
X-7672691Y-26434027D01*
X-7653690Y-26501264D01*
X-7672691Y-26565973D01*
X-7725788Y-26650475D01*
X-7785368Y-26820745D01*
X-7785369Y-26820750D01*
X-7805565Y-26999996D01*
X-7805565Y-27000003D01*
X-7791392Y-27125789D01*
X-7785368Y-27179255D01*
X-7725789Y-27349522D01*
X-7725788Y-27349524D01*
X-7672691Y-27434027D01*
X-7653690Y-27501264D01*
X-7672691Y-27565973D01*
X-7725788Y-27650475D01*
X-7785368Y-27820745D01*
X-7785369Y-27820750D01*
X-7805565Y-27999996D01*
X-7805565Y-28000003D01*
X-7785369Y-28179249D01*
X-7785368Y-28179255D01*
X-7725789Y-28349522D01*
X-7629816Y-28502262D01*
X-7502262Y-28629816D01*
X-7349522Y-28725789D01*
X-7187614Y-28782442D01*
X-7178432Y-28785656D01*
X-7121655Y-28826378D01*
X-7095908Y-28891331D01*
X-7096166Y-28916582D01*
X-7104056Y-28986607D01*
X-7131123Y-29051021D01*
X-7188718Y-29090576D01*
X-7213392Y-29095943D01*
X-7379250Y-29114630D01*
X-7379254Y-29114631D01*
X-7549523Y-29174211D01*
X-7689247Y-29262006D01*
X-7702262Y-29270184D01*
X-7829816Y-29397738D01*
X-7880901Y-29479039D01*
X-7923323Y-29546554D01*
X-7925789Y-29550478D01*
X-7981647Y-29710111D01*
X-7985368Y-29720745D01*
X-7985369Y-29720750D01*
X-8005565Y-29899996D01*
X-8005565Y-29900003D01*
X-8000064Y-29948826D01*
X-7985368Y-30079255D01*
X-7925789Y-30249522D01*
X-7829816Y-30402262D01*
X-7702262Y-30529816D01*
X-7549522Y-30625789D01*
X-7379255Y-30685368D01*
X-7379252Y-30685368D01*
X-7379249Y-30685369D01*
X-7200004Y-30705565D01*
X-7200000Y-30705565D01*
X-7199996Y-30705565D01*
X-7020750Y-30685369D01*
X-7020745Y-30685368D01*
X-6850475Y-30625788D01*
X-6810473Y-30600652D01*
X-6743237Y-30581651D01*
X-6676401Y-30602018D01*
X-6631187Y-30655285D01*
X-6620500Y-30705645D01*
X-6620500Y-31250743D01*
X-6605074Y-31402439D01*
X-6557562Y-31553870D01*
X-6544159Y-31596588D01*
X-6445409Y-31774502D01*
X-6312866Y-31928895D01*
X-6151958Y-32053448D01*
X-5969271Y-32143060D01*
X-5772285Y-32194063D01*
X-5569064Y-32204369D01*
X-5367929Y-32173556D01*
X-5177113Y-32102886D01*
X-5060090Y-32029945D01*
X-4992786Y-32011190D01*
X-4926025Y-32031799D01*
X-4881004Y-32085231D01*
X-4870500Y-32135178D01*
X-4870500Y-33293766D01*
X-4890185Y-33360805D01*
X-4942989Y-33406560D01*
X-5012147Y-33416504D01*
X-5070398Y-33391824D01*
X-5101334Y-33367878D01*
X-5199598Y-33319677D01*
X-5279460Y-33280503D01*
X-5279458Y-33280503D01*
X-5471511Y-33230777D01*
X-5471517Y-33230776D01*
X-5669662Y-33220728D01*
X-5669667Y-33220728D01*
X-5865764Y-33250768D01*
X-5865777Y-33250771D01*
X-6051815Y-33319673D01*
X-6051824Y-33319677D01*
X-6220184Y-33424616D01*
X-6220191Y-33424621D01*
X-6363983Y-33561306D01*
X-6363986Y-33561309D01*
X-6477324Y-33724146D01*
X-6555563Y-33906465D01*
X-6587292Y-34060863D01*
X-6595500Y-34100800D01*
X-6595500Y-35449474D01*
X-6580459Y-35597380D01*
X-6557838Y-35669478D01*
X-6521067Y-35786678D01*
X-6504891Y-35815821D01*
X-6489567Y-35883990D01*
X-6513530Y-35949622D01*
X-6569172Y-35991879D01*
X-6613309Y-36000000D01*
X-7521318Y-36000000D01*
X-7588357Y-35980315D01*
X-7607897Y-35964768D01*
X-7615762Y-35957097D01*
X-7633579Y-35935239D01*
X-7685707Y-35853898D01*
X-7698126Y-35828573D01*
X-7730521Y-35737561D01*
X-7736896Y-35710084D01*
X-7749097Y-35603509D01*
X-7749500Y-35596452D01*
X-7749500Y-32194065D01*
X-7749497Y-32087858D01*
X-7776793Y-31841132D01*
X-7831055Y-31598907D01*
X-7911622Y-31364125D01*
X-8017522Y-31139614D01*
X-8147469Y-30928112D01*
X-8147470Y-30928111D01*
X-8299882Y-30732187D01*
X-8369191Y-30660903D01*
X-8369203Y-30660891D01*
X-8374653Y-30655285D01*
X-8417193Y-30611530D01*
X-8417192Y-30611530D01*
X-10727475Y-28235241D01*
X-10728289Y-28234403D01*
X-10752988Y-28208998D01*
X-10755673Y-28206053D01*
X-10897782Y-28039725D01*
X-10902561Y-28033343D01*
X-10979824Y-27915025D01*
X-10999997Y-27848131D01*
X-11000000Y-27847227D01*
X-11000000Y-24729613D01*
X-10980315Y-24662574D01*
X-10927511Y-24616819D01*
X-10858353Y-24606875D01*
X-10809377Y-24628051D01*
X-10808158Y-24626111D01*
X-10802262Y-24629815D01*
X-10802262Y-24629816D01*
X-10649522Y-24725789D01*
X-10479255Y-24785368D01*
X-10479252Y-24785368D01*
X-10479249Y-24785369D01*
X-10300004Y-24805565D01*
X-10300000Y-24805565D01*
X-10299996Y-24805565D01*
X-10120750Y-24785369D01*
X-10120745Y-24785368D01*
X-10073842Y-24768956D01*
X-9950478Y-24725789D01*
X-9949567Y-24725217D01*
X-9811231Y-24638294D01*
X-9797738Y-24629816D01*
X-9670184Y-24502262D01*
X-9589724Y-24374211D01*
X-9574211Y-24349523D01*
X-9514631Y-24179254D01*
X-9514630Y-24179249D01*
X-9494435Y-24000003D01*
X-9494435Y-23999996D01*
X-9514630Y-23820750D01*
X-9514631Y-23820745D01*
X-9574211Y-23650476D01*
X-9670184Y-23497737D01*
X-9797737Y-23370184D01*
X-9950476Y-23274211D01*
X-10120745Y-23214631D01*
X-10120750Y-23214630D01*
X-10299996Y-23194435D01*
X-10300004Y-23194435D01*
X-10479249Y-23214630D01*
X-10479254Y-23214631D01*
X-10649523Y-23274211D01*
X-10808158Y-23373889D01*
X-10809501Y-23371750D01*
X-10863385Y-23393743D01*
X-10932079Y-23380980D01*
X-10982969Y-23333105D01*
X-11000000Y-23270386D01*
X-11000000Y-22500503D01*
X-8504476Y-22500503D01*
X-8484280Y-22679749D01*
X-8484279Y-22679755D01*
X-8424700Y-22850022D01*
X-8328727Y-23002762D01*
X-8201173Y-23130316D01*
X-8048433Y-23226289D01*
X-7878166Y-23285868D01*
X-7878163Y-23285868D01*
X-7878160Y-23285869D01*
X-7698915Y-23306065D01*
X-7698911Y-23306065D01*
X-7698907Y-23306065D01*
X-7519661Y-23285869D01*
X-7519656Y-23285868D01*
X-7415788Y-23249523D01*
X-7349389Y-23226289D01*
X-7196649Y-23130316D01*
X-7069095Y-23002762D01*
X-7004525Y-22900000D01*
X-1285565Y-22900000D01*
X-1265368Y-23079255D01*
X-1205789Y-23249522D01*
X-1109816Y-23402262D01*
X-982262Y-23529816D01*
X-829522Y-23625789D01*
X-659255Y-23685368D01*
X-659252Y-23685368D01*
X-659249Y-23685369D01*
X-480004Y-23705565D01*
X-480000Y-23705565D01*
X-479996Y-23705565D01*
X-300750Y-23685369D01*
X-300745Y-23685368D01*
X-300744Y-23685367D01*
X-130478Y-23625789D01*
X22262Y-23529816D01*
X149816Y-23402262D01*
X245789Y-23249522D01*
X305368Y-23079255D01*
X325565Y-22900000D01*
X323916Y-22885369D01*
X305369Y-22720750D01*
X305368Y-22720745D01*
X245788Y-22550476D01*
X149815Y-22397737D01*
X22262Y-22270184D01*
X-130476Y-22174211D01*
X-300745Y-22114631D01*
X-300750Y-22114630D01*
X-430576Y-22100003D01*
X6794435Y-22100003D01*
X6814630Y-22279249D01*
X6814631Y-22279254D01*
X6874211Y-22449523D01*
X6937646Y-22550478D01*
X6970184Y-22602262D01*
X7097738Y-22729816D01*
X7250478Y-22825789D01*
X7319732Y-22850022D01*
X7420745Y-22885368D01*
X7420750Y-22885369D01*
X7599996Y-22905565D01*
X7600000Y-22905565D01*
X7600004Y-22905565D01*
X7779249Y-22885369D01*
X7779252Y-22885368D01*
X7779255Y-22885368D01*
X7949522Y-22825789D01*
X8102262Y-22729816D01*
X8229816Y-22602262D01*
X8325789Y-22449522D01*
X8385368Y-22279255D01*
X8397204Y-22174211D01*
X8405565Y-22100003D01*
X8405565Y-22099996D01*
X8385369Y-21920750D01*
X8385368Y-21920745D01*
X8329250Y-21760369D01*
X8325789Y-21750478D01*
X8229816Y-21597738D01*
X8102262Y-21470184D01*
X8031608Y-21425789D01*
X7949523Y-21374211D01*
X7779254Y-21314631D01*
X7779249Y-21314630D01*
X7600004Y-21294435D01*
X7599996Y-21294435D01*
X7420750Y-21314630D01*
X7420745Y-21314631D01*
X7250476Y-21374211D01*
X7097737Y-21470184D01*
X6970184Y-21597737D01*
X6874211Y-21750476D01*
X6814631Y-21920745D01*
X6814630Y-21920750D01*
X6794435Y-22099996D01*
X6794435Y-22100003D01*
X-430576Y-22100003D01*
X-479996Y-22094435D01*
X-480004Y-22094435D01*
X-659249Y-22114630D01*
X-659254Y-22114631D01*
X-829523Y-22174211D01*
X-982262Y-22270184D01*
X-1109815Y-22397737D01*
X-1205788Y-22550476D01*
X-1265368Y-22720745D01*
X-1265369Y-22720750D01*
X-1283916Y-22885369D01*
X-1285565Y-22900000D01*
X-7004525Y-22900000D01*
X-6973122Y-22850023D01*
X-6913542Y-22679754D01*
X-6913541Y-22679749D01*
X-6893346Y-22500503D01*
X-6893346Y-22500496D01*
X-6913541Y-22321250D01*
X-6913542Y-22321245D01*
X-6973122Y-22150976D01*
X-7069095Y-21998237D01*
X-7196648Y-21870684D01*
X-7349387Y-21774711D01*
X-7519656Y-21715131D01*
X-7519661Y-21715130D01*
X-7698907Y-21694935D01*
X-7698915Y-21694935D01*
X-7878160Y-21715130D01*
X-7878165Y-21715131D01*
X-8048434Y-21774711D01*
X-8201172Y-21870683D01*
X-8201173Y-21870684D01*
X-8328727Y-21998238D01*
X-8424700Y-22150978D01*
X-8466412Y-22270184D01*
X-8484279Y-22321245D01*
X-8484280Y-22321250D01*
X-8504476Y-22500496D01*
X-8504476Y-22500503D01*
X-11000000Y-22500503D01*
X-11000000Y-21874500D01*
X-10980315Y-21807461D01*
X-10927511Y-21761706D01*
X-10876000Y-21750500D01*
X-10862341Y-21750500D01*
X-10824921Y-21745356D01*
X-10750080Y-21735070D01*
X-10671158Y-21700789D01*
X-10611283Y-21674782D01*
X-10611281Y-21674780D01*
X-10611280Y-21674780D01*
X-10493892Y-21579278D01*
X-10493891Y-21579276D01*
X-10493889Y-21579275D01*
X-10406623Y-21455647D01*
X-10406621Y-21455644D01*
X-10355946Y-21313060D01*
X-10355946Y-21313057D01*
X-10350807Y-21237921D01*
X-9654381Y-21237921D01*
X-9623594Y-21386078D01*
X-9623593Y-21386079D01*
X-9623592Y-21386085D01*
X-9553971Y-21520447D01*
X-9450680Y-21631044D01*
X-9321382Y-21709672D01*
X-9175665Y-21750500D01*
X-9175664Y-21750500D01*
X-9062341Y-21750500D01*
X-9024921Y-21745356D01*
X-8950080Y-21735070D01*
X-8871158Y-21700789D01*
X-8811283Y-21674782D01*
X-8811281Y-21674780D01*
X-8811280Y-21674780D01*
X-8693892Y-21579278D01*
X-8693891Y-21579276D01*
X-8693889Y-21579275D01*
X-8606623Y-21455647D01*
X-8606621Y-21455644D01*
X-8555946Y-21313060D01*
X-8555946Y-21313057D01*
X-8545619Y-21162079D01*
X-8545619Y-21162074D01*
X-8576405Y-21013921D01*
X-8576408Y-21013915D01*
X-8596571Y-20975003D01*
X-6130565Y-20975003D01*
X-6117952Y-21086944D01*
X-6110368Y-21154255D01*
X-6050789Y-21324522D01*
X-5954816Y-21477262D01*
X-5827262Y-21604816D01*
X-5674522Y-21700789D01*
X-5504255Y-21760368D01*
X-5504252Y-21760368D01*
X-5504249Y-21760369D01*
X-5325004Y-21780565D01*
X-5325000Y-21780565D01*
X-5324996Y-21780565D01*
X-5145750Y-21760369D01*
X-5145745Y-21760368D01*
X-5117475Y-21750476D01*
X-4975478Y-21700789D01*
X-4822738Y-21604816D01*
X-4695184Y-21477262D01*
X-4662841Y-21425789D01*
X-4599211Y-21324523D01*
X-4539631Y-21154254D01*
X-4539630Y-21154249D01*
X-4519435Y-20975003D01*
X-4519435Y-20974996D01*
X-4539630Y-20795750D01*
X-4539631Y-20795745D01*
X-4573133Y-20700003D01*
X-3505565Y-20700003D01*
X-3489382Y-20843632D01*
X-3485368Y-20879255D01*
X-3425789Y-21049522D01*
X-3329816Y-21202262D01*
X-3202262Y-21329816D01*
X-3049522Y-21425789D01*
X-2879255Y-21485368D01*
X-2879252Y-21485368D01*
X-2879249Y-21485369D01*
X-2700004Y-21505565D01*
X-2700000Y-21505565D01*
X-2699996Y-21505565D01*
X-2520750Y-21485369D01*
X-2520745Y-21485368D01*
X-2477352Y-21470184D01*
X-2350478Y-21425789D01*
X-2197738Y-21329816D01*
X-2070184Y-21202262D01*
X-2040019Y-21154255D01*
X-1974211Y-21049523D01*
X-1914631Y-20879254D01*
X-1914630Y-20879249D01*
X-1894435Y-20700003D01*
X-1894435Y-20699996D01*
X-1914630Y-20520750D01*
X-1914631Y-20520745D01*
X-1974211Y-20350476D01*
X-2070184Y-20197737D01*
X-2197737Y-20070184D01*
X-2248846Y-20038070D01*
X2263355Y-20038070D01*
X2283550Y-20217316D01*
X2283551Y-20217321D01*
X2343131Y-20387590D01*
X2426802Y-20520750D01*
X2439104Y-20540329D01*
X2566658Y-20667883D01*
X2719398Y-20763856D01*
X2879128Y-20819748D01*
X2889665Y-20823435D01*
X2889670Y-20823436D01*
X3068916Y-20843632D01*
X3068920Y-20843632D01*
X3068924Y-20843632D01*
X3248169Y-20823436D01*
X3248172Y-20823435D01*
X3248175Y-20823435D01*
X3418442Y-20763856D01*
X3571182Y-20667883D01*
X3571184Y-20667880D01*
X3576630Y-20663539D01*
X3577631Y-20664795D01*
X3631542Y-20635349D01*
X3701234Y-20640325D01*
X3723887Y-20651518D01*
X3841178Y-20725217D01*
X3864661Y-20739972D01*
X4024051Y-20795745D01*
X4034928Y-20799551D01*
X4034933Y-20799552D01*
X4214179Y-20819748D01*
X4214183Y-20819748D01*
X4214187Y-20819748D01*
X4393432Y-20799552D01*
X4393435Y-20799551D01*
X4393438Y-20799551D01*
X4563705Y-20739972D01*
X4716445Y-20643999D01*
X4843999Y-20516445D01*
X4939972Y-20363705D01*
X4999551Y-20193438D01*
X4999980Y-20189630D01*
X5019748Y-20014186D01*
X5019748Y-20014179D01*
X4999552Y-19834933D01*
X4999551Y-19834928D01*
X4948329Y-19688545D01*
X4939972Y-19664661D01*
X4905304Y-19609488D01*
X4891567Y-19587625D01*
X4843999Y-19511921D01*
X4716445Y-19384367D01*
X4676470Y-19359249D01*
X4563706Y-19288394D01*
X4393437Y-19228814D01*
X4393432Y-19228813D01*
X4214187Y-19208618D01*
X4214179Y-19208618D01*
X4034933Y-19228813D01*
X4034928Y-19228814D01*
X3864659Y-19288394D01*
X3711917Y-19384369D01*
X3706473Y-19388711D01*
X3705474Y-19387458D01*
X3651530Y-19416907D01*
X3581839Y-19411913D01*
X3559215Y-19400731D01*
X3418443Y-19312278D01*
X3248174Y-19252698D01*
X3248169Y-19252697D01*
X3068924Y-19232502D01*
X3068916Y-19232502D01*
X2889670Y-19252697D01*
X2889665Y-19252698D01*
X2719396Y-19312278D01*
X2566657Y-19408251D01*
X2439104Y-19535804D01*
X2343131Y-19688543D01*
X2283551Y-19858812D01*
X2283550Y-19858817D01*
X2263355Y-20038063D01*
X2263355Y-20038070D01*
X-2248846Y-20038070D01*
X-2350476Y-19974211D01*
X-2520745Y-19914631D01*
X-2520750Y-19914630D01*
X-2699996Y-19894435D01*
X-2700004Y-19894435D01*
X-2879249Y-19914630D01*
X-2879254Y-19914631D01*
X-3049523Y-19974211D01*
X-3113142Y-20014186D01*
X-3202262Y-20070184D01*
X-3329816Y-20197738D01*
X-3425789Y-20350478D01*
X-3438775Y-20387590D01*
X-3485368Y-20520745D01*
X-3485369Y-20520750D01*
X-3505565Y-20699996D01*
X-3505565Y-20700003D01*
X-4573133Y-20700003D01*
X-4599211Y-20625476D01*
X-4695184Y-20472737D01*
X-4822737Y-20345184D01*
X-4975476Y-20249211D01*
X-5145745Y-20189631D01*
X-5145750Y-20189630D01*
X-5324996Y-20169435D01*
X-5325004Y-20169435D01*
X-5504249Y-20189630D01*
X-5504254Y-20189631D01*
X-5674523Y-20249211D01*
X-5827261Y-20345184D01*
X-5827262Y-20345184D01*
X-5954816Y-20472738D01*
X-6050789Y-20625478D01*
X-6064594Y-20664930D01*
X-6110368Y-20795745D01*
X-6110369Y-20795750D01*
X-6130565Y-20974996D01*
X-6130565Y-20975003D01*
X-8596571Y-20975003D01*
X-8646030Y-20879552D01*
X-8646032Y-20879548D01*
X-8749318Y-20768956D01*
X-8878616Y-20690329D01*
X-8878615Y-20690329D01*
X-8878617Y-20690328D01*
X-8878618Y-20690328D01*
X-9024335Y-20649500D01*
X-9137658Y-20649500D01*
X-9137659Y-20649500D01*
X-9249917Y-20664929D01*
X-9249920Y-20664930D01*
X-9388716Y-20725217D01*
X-9388719Y-20725219D01*
X-9388720Y-20725220D01*
X-9504910Y-20819748D01*
X-9506110Y-20820724D01*
X-9593376Y-20944352D01*
X-9593378Y-20944355D01*
X-9644053Y-21086939D01*
X-9644053Y-21086941D01*
X-9644054Y-21086944D01*
X-9654381Y-21237921D01*
X-10350807Y-21237921D01*
X-10345619Y-21162079D01*
X-10345619Y-21162074D01*
X-10376405Y-21013921D01*
X-10376408Y-21013915D01*
X-10446030Y-20879552D01*
X-10446032Y-20879548D01*
X-10549318Y-20768956D01*
X-10678616Y-20690329D01*
X-10678615Y-20690329D01*
X-10678617Y-20690328D01*
X-10678618Y-20690328D01*
X-10824335Y-20649500D01*
X-10876000Y-20649500D01*
X-10943039Y-20629815D01*
X-10988794Y-20577011D01*
X-11000000Y-20525500D01*
X-11000000Y-17210003D01*
X-8705565Y-17210003D01*
X-8685504Y-17388052D01*
X-8685368Y-17389255D01*
X-8625789Y-17559522D01*
X-8529816Y-17712262D01*
X-8447036Y-17795042D01*
X-8402577Y-17839501D01*
X-8369092Y-17900824D01*
X-8374076Y-17970516D01*
X-8385265Y-17993155D01*
X-8425288Y-18056849D01*
X-8484868Y-18227119D01*
X-8484869Y-18227124D01*
X-8505065Y-18406370D01*
X-8505065Y-18406377D01*
X-8488862Y-18550184D01*
X-8484868Y-18585629D01*
X-8440565Y-18712235D01*
X-8437003Y-18782010D01*
X-8440558Y-18794119D01*
X-8484868Y-18920745D01*
X-8484868Y-18920748D01*
X-8484869Y-18920750D01*
X-8505065Y-19099996D01*
X-8505065Y-19100003D01*
X-8487860Y-19252699D01*
X-8484868Y-19279255D01*
X-8425289Y-19449522D01*
X-8329316Y-19602262D01*
X-8201762Y-19729816D01*
X-8049022Y-19825789D01*
X-7878755Y-19885368D01*
X-7878752Y-19885368D01*
X-7878749Y-19885369D01*
X-7699504Y-19905565D01*
X-7699500Y-19905565D01*
X-7699496Y-19905565D01*
X-7520250Y-19885369D01*
X-7520245Y-19885368D01*
X-7444367Y-19858817D01*
X-7349978Y-19825789D01*
X-7324555Y-19809815D01*
X-7287580Y-19786582D01*
X-7197238Y-19729816D01*
X-7069684Y-19602262D01*
X-7027926Y-19535805D01*
X-6973711Y-19449523D01*
X-6914131Y-19279254D01*
X-6914130Y-19279249D01*
X-6893935Y-19100003D01*
X-6893935Y-19099996D01*
X-6914130Y-18920750D01*
X-6914132Y-18920742D01*
X-6927093Y-18883703D01*
X-5021061Y-18883703D01*
X-5007873Y-19000750D01*
X-5000864Y-19062955D01*
X-4941285Y-19233222D01*
X-4845312Y-19385962D01*
X-4717758Y-19513516D01*
X-4565018Y-19609489D01*
X-4394751Y-19669068D01*
X-4394748Y-19669068D01*
X-4394745Y-19669069D01*
X-4215500Y-19689265D01*
X-4215496Y-19689265D01*
X-4215492Y-19689265D01*
X-4036246Y-19669069D01*
X-4036241Y-19669068D01*
X-4023641Y-19664659D01*
X-3865974Y-19609489D01*
X-3831179Y-19587626D01*
X-3831177Y-19587625D01*
X-3763940Y-19568625D01*
X-3699234Y-19587625D01*
X-3654413Y-19615789D01*
X-3550731Y-19652068D01*
X-3484153Y-19675366D01*
X-3484149Y-19675366D01*
X-3484146Y-19675368D01*
X-3484142Y-19675368D01*
X-3484140Y-19675369D01*
X-3304895Y-19695565D01*
X-3304891Y-19695565D01*
X-3304887Y-19695565D01*
X-3125641Y-19675369D01*
X-3125636Y-19675368D01*
X-3125630Y-19675366D01*
X-2955369Y-19615789D01*
X-2945342Y-19609489D01*
X-2880308Y-19568625D01*
X-2802629Y-19519816D01*
X-2675075Y-19392262D01*
X-2654335Y-19359254D01*
X-2579102Y-19239523D01*
X-2558275Y-19180003D01*
X5504435Y-19180003D01*
X5524630Y-19359249D01*
X5524631Y-19359254D01*
X5584211Y-19529523D01*
X5671894Y-19669068D01*
X5680184Y-19682262D01*
X5807738Y-19809816D01*
X5885715Y-19858812D01*
X5960121Y-19905565D01*
X5960478Y-19905789D01*
X6130745Y-19965367D01*
X6130745Y-19965368D01*
X6130750Y-19965369D01*
X6309996Y-19985565D01*
X6310000Y-19985565D01*
X6310004Y-19985565D01*
X6489249Y-19965369D01*
X6489252Y-19965368D01*
X6489255Y-19965368D01*
X6659522Y-19905789D01*
X6812262Y-19809816D01*
X6939816Y-19682262D01*
X7035789Y-19529522D01*
X7095368Y-19359255D01*
X7104382Y-19279254D01*
X7115565Y-19180003D01*
X7115565Y-19179996D01*
X7095369Y-19000750D01*
X7095368Y-19000745D01*
X7095368Y-19000744D01*
X7035789Y-18830478D01*
X6939816Y-18677738D01*
X6812262Y-18550184D01*
X6786789Y-18534178D01*
X6659523Y-18454211D01*
X6489254Y-18394631D01*
X6489249Y-18394630D01*
X6310004Y-18374435D01*
X6309996Y-18374435D01*
X6130750Y-18394630D01*
X6130745Y-18394631D01*
X5960476Y-18454211D01*
X5807737Y-18550184D01*
X5680184Y-18677737D01*
X5584211Y-18830476D01*
X5524631Y-19000745D01*
X5524630Y-19000750D01*
X5504435Y-19179996D01*
X5504435Y-19180003D01*
X-2558275Y-19180003D01*
X-2519522Y-19069254D01*
X-2519521Y-19069249D01*
X-2499326Y-18890003D01*
X-2499326Y-18889996D01*
X-2519521Y-18710750D01*
X-2519522Y-18710745D01*
X-2579102Y-18540476D01*
X-2675074Y-18387739D01*
X-2767862Y-18294951D01*
X-2801346Y-18233627D01*
X-2796802Y-18170100D01*
X-2862138Y-18194469D01*
X-2930411Y-18179617D01*
X-2936955Y-18175780D01*
X-2955366Y-18164211D01*
X-3125636Y-18104631D01*
X-3125641Y-18104630D01*
X-3304887Y-18084435D01*
X-3304895Y-18084435D01*
X-3484140Y-18104630D01*
X-3484153Y-18104633D01*
X-3654409Y-18164209D01*
X-3654413Y-18164210D01*
X-3689208Y-18186074D01*
X-3756444Y-18205074D01*
X-3821151Y-18186075D01*
X-3865978Y-18157908D01*
X-4036233Y-18098333D01*
X-4036246Y-18098330D01*
X-4215492Y-18078135D01*
X-4215500Y-18078135D01*
X-4394745Y-18098330D01*
X-4394750Y-18098331D01*
X-4565019Y-18157911D01*
X-4675162Y-18227119D01*
X-4717758Y-18253884D01*
X-4845312Y-18381438D01*
X-4941285Y-18534178D01*
X-4948792Y-18555633D01*
X-5000864Y-18704445D01*
X-5000865Y-18704450D01*
X-5021061Y-18883696D01*
X-5021061Y-18883703D01*
X-6927093Y-18883703D01*
X-6958432Y-18794141D01*
X-6961993Y-18724363D01*
X-6958432Y-18712233D01*
X-6914132Y-18585631D01*
X-6914130Y-18585623D01*
X-6893935Y-18406377D01*
X-6893935Y-18406370D01*
X-6914130Y-18227124D01*
X-6914131Y-18227119D01*
X-6973711Y-18056851D01*
X-7009137Y-18000472D01*
X-7028137Y-17933236D01*
X-7007770Y-17866401D01*
X-6954502Y-17821186D01*
X-6904143Y-17810500D01*
X-6653428Y-17810500D01*
X-6645329Y-17811030D01*
X-6610000Y-17815682D01*
X-6609999Y-17815682D01*
X-6531619Y-17805363D01*
X-6453238Y-17795044D01*
X-6380198Y-17764789D01*
X-6307163Y-17734538D01*
X-6307162Y-17734537D01*
X-6307159Y-17734536D01*
X-6278131Y-17712262D01*
X-6181718Y-17638282D01*
X-6160020Y-17610005D01*
X-6154669Y-17603904D01*
X-3263421Y-14712656D01*
X-3202098Y-14679171D01*
X-3132406Y-14684155D01*
X-3076473Y-14726027D01*
X-3052056Y-14791491D01*
X-3052520Y-14814221D01*
X-3065565Y-14929997D01*
X-3065565Y-14930003D01*
X-3048748Y-15079255D01*
X-3045368Y-15109255D01*
X-2985789Y-15279522D01*
X-2889816Y-15432262D01*
X-2762262Y-15559816D01*
X-2609522Y-15655789D01*
X-2609518Y-15655790D01*
X-2609519Y-15655790D01*
X-2603134Y-15658025D01*
X-2546357Y-15698745D01*
X-2520608Y-15763697D01*
X-2534063Y-15832259D01*
X-2578114Y-15880061D01*
X-2701771Y-15957760D01*
X-2829325Y-16085314D01*
X-2925298Y-16238054D01*
X-2947236Y-16300749D01*
X-2984877Y-16408321D01*
X-2984878Y-16408326D01*
X-3005074Y-16587572D01*
X-3005074Y-16587579D01*
X-2991535Y-16707738D01*
X-2984877Y-16766831D01*
X-2938949Y-16898083D01*
X-2935387Y-16967859D01*
X-2950996Y-17005006D01*
X-2972064Y-17038534D01*
X-3007726Y-17140450D01*
X-3031643Y-17208801D01*
X-3031644Y-17208806D01*
X-3051840Y-17388052D01*
X-3051840Y-17388059D01*
X-3031644Y-17567305D01*
X-3031643Y-17567311D01*
X-2972064Y-17737578D01*
X-2876091Y-17890318D01*
X-2783301Y-17983107D01*
X-2749819Y-18044426D01*
X-2754362Y-18107955D01*
X-2689025Y-18083586D01*
X-2620753Y-18098438D01*
X-2614216Y-18102271D01*
X-2595797Y-18113845D01*
X-2425530Y-18173424D01*
X-2425527Y-18173424D01*
X-2425524Y-18173425D01*
X-2246279Y-18193621D01*
X-2246275Y-18193621D01*
X-2246271Y-18193621D01*
X-2067025Y-18173425D01*
X-2067020Y-18173424D01*
X-2040685Y-18164209D01*
X-1896753Y-18113845D01*
X-1885230Y-18106605D01*
X-1806048Y-18056851D01*
X-1744013Y-18017872D01*
X-1651962Y-17925821D01*
X1229093Y-17925821D01*
X1249288Y-18105067D01*
X1249289Y-18105072D01*
X1308869Y-18275341D01*
X1383825Y-18394632D01*
X1404842Y-18428080D01*
X1532396Y-18555634D01*
X1685136Y-18651607D01*
X1836138Y-18704445D01*
X1855403Y-18711186D01*
X1855408Y-18711187D01*
X2034654Y-18731383D01*
X2034658Y-18731383D01*
X2034662Y-18731383D01*
X2213907Y-18711187D01*
X2213910Y-18711186D01*
X2213913Y-18711186D01*
X2384180Y-18651607D01*
X2536920Y-18555634D01*
X2664474Y-18428080D01*
X2760447Y-18275340D01*
X2820026Y-18105073D01*
X2820774Y-18098438D01*
X2840223Y-17925821D01*
X2840223Y-17925814D01*
X2820027Y-17746568D01*
X2820026Y-17746563D01*
X2760446Y-17576294D01*
X2721239Y-17513898D01*
X2664474Y-17423556D01*
X2562157Y-17321239D01*
X3548935Y-17321239D01*
X3569130Y-17500485D01*
X3569131Y-17500490D01*
X3628711Y-17670759D01*
X3706804Y-17795042D01*
X3724684Y-17823498D01*
X3852238Y-17951052D01*
X3930889Y-18000472D01*
X4000841Y-18044426D01*
X4004978Y-18047025D01*
X4169609Y-18104632D01*
X4175245Y-18106604D01*
X4175250Y-18106605D01*
X4354496Y-18126801D01*
X4354500Y-18126801D01*
X4354504Y-18126801D01*
X4533749Y-18106605D01*
X4533752Y-18106604D01*
X4533755Y-18106604D01*
X4704022Y-18047025D01*
X4856762Y-17951052D01*
X4984316Y-17823498D01*
X5080289Y-17670758D01*
X5139868Y-17500491D01*
X5139869Y-17500485D01*
X5160065Y-17321239D01*
X5160065Y-17321232D01*
X5139869Y-17141986D01*
X5139868Y-17141981D01*
X5117323Y-17077550D01*
X5080289Y-16971714D01*
X5067023Y-16950602D01*
X4984315Y-16818973D01*
X4856762Y-16691420D01*
X4704023Y-16595447D01*
X4533754Y-16535867D01*
X4533749Y-16535866D01*
X4354504Y-16515671D01*
X4354496Y-16515671D01*
X4175250Y-16535866D01*
X4175245Y-16535867D01*
X4004976Y-16595447D01*
X3852237Y-16691420D01*
X3724684Y-16818973D01*
X3628711Y-16971712D01*
X3569131Y-17141981D01*
X3569130Y-17141986D01*
X3548935Y-17321232D01*
X3548935Y-17321239D01*
X2562157Y-17321239D01*
X2536920Y-17296002D01*
X2400054Y-17210003D01*
X2384181Y-17200029D01*
X2213912Y-17140449D01*
X2213907Y-17140448D01*
X2034662Y-17120253D01*
X2034654Y-17120253D01*
X1855408Y-17140448D01*
X1855403Y-17140449D01*
X1685134Y-17200029D01*
X1532395Y-17296002D01*
X1404842Y-17423555D01*
X1308869Y-17576294D01*
X1249289Y-17746563D01*
X1249288Y-17746568D01*
X1229093Y-17925814D01*
X1229093Y-17925821D01*
X-1651962Y-17925821D01*
X-1616459Y-17890318D01*
X-1584726Y-17839816D01*
X-1520486Y-17737579D01*
X-1460906Y-17567310D01*
X-1460905Y-17567305D01*
X-1440710Y-17388059D01*
X-1440710Y-17388052D01*
X-1460905Y-17208806D01*
X-1460907Y-17208798D01*
X-1506833Y-17077550D01*
X-1510394Y-17007771D01*
X-1494785Y-16970625D01*
X-1473721Y-16937101D01*
X-1414140Y-16766830D01*
X-1414139Y-16766825D01*
X-1393944Y-16587579D01*
X-1393944Y-16587572D01*
X-1414139Y-16408326D01*
X-1414140Y-16408321D01*
X-1473720Y-16238052D01*
X-1569693Y-16085313D01*
X-1697246Y-15957760D01*
X-1849988Y-15861785D01*
X-1856385Y-15859547D01*
X-1913158Y-15818821D01*
X-1938901Y-15753866D01*
X-1925440Y-15685306D01*
X-1881394Y-15637514D01*
X-1757738Y-15559816D01*
X-1630184Y-15432262D01*
X-1611334Y-15402262D01*
X-1534211Y-15279523D01*
X-1474631Y-15109254D01*
X-1474630Y-15109249D01*
X-1454435Y-14930003D01*
X-1454435Y-14929996D01*
X-1474630Y-14750750D01*
X-1474631Y-14750745D01*
X-1534211Y-14580476D01*
X-1630184Y-14427737D01*
X-1757737Y-14300184D01*
X-1910476Y-14204211D01*
X-2080745Y-14144631D01*
X-2080750Y-14144630D01*
X-2259996Y-14124435D01*
X-2260004Y-14124435D01*
X-2375780Y-14137479D01*
X-2444602Y-14125424D01*
X-2495981Y-14078075D01*
X-2509449Y-14026409D01*
X4414435Y-14026409D01*
X4434630Y-14205655D01*
X4434631Y-14205660D01*
X4494211Y-14375929D01*
X4560709Y-14481759D01*
X4590184Y-14528668D01*
X4717738Y-14656222D01*
X4870478Y-14752195D01*
X5040744Y-14811773D01*
X5040745Y-14811774D01*
X5040750Y-14811775D01*
X5219996Y-14831971D01*
X5220000Y-14831971D01*
X5220004Y-14831971D01*
X5399249Y-14811775D01*
X5399252Y-14811774D01*
X5399255Y-14811774D01*
X5432895Y-14800003D01*
X6994435Y-14800003D01*
X7014630Y-14979249D01*
X7014631Y-14979254D01*
X7074211Y-15149523D01*
X7137045Y-15249522D01*
X7170184Y-15302262D01*
X7297738Y-15429816D01*
X7450478Y-15525789D01*
X7547719Y-15559815D01*
X7620745Y-15585368D01*
X7620750Y-15585369D01*
X7799996Y-15605565D01*
X7800000Y-15605565D01*
X7800004Y-15605565D01*
X7979249Y-15585369D01*
X7979252Y-15585368D01*
X7979255Y-15585368D01*
X8149522Y-15525789D01*
X8302262Y-15429816D01*
X8429816Y-15302262D01*
X8525789Y-15149522D01*
X8585368Y-14979255D01*
X8590343Y-14935102D01*
X8605565Y-14800003D01*
X8605565Y-14799996D01*
X8585369Y-14620750D01*
X8585368Y-14620745D01*
X8525789Y-14450478D01*
X8511500Y-14427738D01*
X8429815Y-14297737D01*
X8302262Y-14170184D01*
X8149523Y-14074211D01*
X7979254Y-14014631D01*
X7979249Y-14014630D01*
X7800004Y-13994435D01*
X7799996Y-13994435D01*
X7620750Y-14014630D01*
X7620745Y-14014631D01*
X7450476Y-14074211D01*
X7297737Y-14170184D01*
X7170184Y-14297737D01*
X7074211Y-14450476D01*
X7014631Y-14620745D01*
X7014630Y-14620750D01*
X6994435Y-14799996D01*
X6994435Y-14800003D01*
X5432895Y-14800003D01*
X5569522Y-14752195D01*
X5722262Y-14656222D01*
X5849816Y-14528668D01*
X5945789Y-14375928D01*
X6005368Y-14205661D01*
X6005369Y-14205655D01*
X6025565Y-14026409D01*
X6025565Y-14026402D01*
X6005369Y-13847156D01*
X6005368Y-13847151D01*
X5945789Y-13676884D01*
X5849816Y-13524144D01*
X5722262Y-13396590D01*
X5689468Y-13375984D01*
X5569523Y-13300617D01*
X5399254Y-13241037D01*
X5399249Y-13241036D01*
X5220004Y-13220841D01*
X5219996Y-13220841D01*
X5040750Y-13241036D01*
X5040745Y-13241037D01*
X4870476Y-13300617D01*
X4717737Y-13396590D01*
X4590184Y-13524143D01*
X4494211Y-13676882D01*
X4434631Y-13847151D01*
X4434630Y-13847156D01*
X4414435Y-14026402D01*
X4414435Y-14026409D01*
X-2509449Y-14026409D01*
X-2513605Y-14010464D01*
X-2491878Y-13944059D01*
X-2477346Y-13926580D01*
X-430770Y-11880003D01*
X3704435Y-11880003D01*
X3724630Y-12059249D01*
X3724631Y-12059254D01*
X3784211Y-12229523D01*
X3880184Y-12382262D01*
X4007738Y-12509816D01*
X4160478Y-12605789D01*
X4330745Y-12665368D01*
X4330750Y-12665369D01*
X4509996Y-12685565D01*
X4510000Y-12685565D01*
X4510004Y-12685565D01*
X4689249Y-12665369D01*
X4689252Y-12665368D01*
X4689255Y-12665368D01*
X4859522Y-12605789D01*
X5012262Y-12509816D01*
X5139816Y-12382262D01*
X5235789Y-12229522D01*
X5295368Y-12059255D01*
X5315565Y-11880000D01*
X5314945Y-11874500D01*
X5295369Y-11700750D01*
X5295368Y-11700745D01*
X5271229Y-11631761D01*
X5235789Y-11530478D01*
X5139816Y-11377738D01*
X5012262Y-11250184D01*
X4992741Y-11237918D01*
X4859523Y-11154211D01*
X4689254Y-11094631D01*
X4689249Y-11094630D01*
X4510004Y-11074435D01*
X4509996Y-11074435D01*
X4330750Y-11094630D01*
X4330745Y-11094631D01*
X4160476Y-11154211D01*
X4007737Y-11250184D01*
X3880184Y-11377737D01*
X3784211Y-11530476D01*
X3724631Y-11700745D01*
X3724630Y-11700750D01*
X3704435Y-11879996D01*
X3704435Y-11880003D01*
X-430770Y-11880003D01*
X1207889Y-10241344D01*
X1213964Y-10236018D01*
X1242248Y-10214316D01*
X1338502Y-10088875D01*
X1354310Y-10050709D01*
X1398148Y-9996309D01*
X1464442Y-9974243D01*
X1532142Y-9991521D01*
X1579753Y-10042657D01*
X1592160Y-10111417D01*
X1592091Y-10112046D01*
X1587502Y-10152779D01*
X1584436Y-10179996D01*
X1584435Y-10180003D01*
X1604630Y-10359249D01*
X1604631Y-10359254D01*
X1664211Y-10529523D01*
X1727229Y-10629815D01*
X1760184Y-10682262D01*
X1887738Y-10809816D01*
X2040478Y-10905789D01*
X2210745Y-10965368D01*
X2210750Y-10965369D01*
X2389996Y-10985565D01*
X2390000Y-10985565D01*
X2390004Y-10985565D01*
X2569249Y-10965369D01*
X2569252Y-10965368D01*
X2569255Y-10965368D01*
X2739522Y-10905789D01*
X2892262Y-10809816D01*
X3019816Y-10682262D01*
X3115789Y-10529522D01*
X3175368Y-10359255D01*
X3182044Y-10300003D01*
X3195565Y-10180003D01*
X3195565Y-10179996D01*
X3175369Y-10000750D01*
X3175368Y-10000745D01*
X3144622Y-9912878D01*
X3115789Y-9830478D01*
X3095216Y-9797737D01*
X3076582Y-9768080D01*
X3033806Y-9700003D01*
X6404435Y-9700003D01*
X6424630Y-9879249D01*
X6424631Y-9879254D01*
X6484211Y-10049523D01*
X6566193Y-10179996D01*
X6580184Y-10202262D01*
X6707738Y-10329816D01*
X6860478Y-10425789D01*
X7013258Y-10479249D01*
X7030745Y-10485368D01*
X7030750Y-10485369D01*
X7209996Y-10505565D01*
X7210000Y-10505565D01*
X7210004Y-10505565D01*
X7389249Y-10485369D01*
X7389252Y-10485368D01*
X7389255Y-10485368D01*
X7559522Y-10425789D01*
X7712262Y-10329816D01*
X7839816Y-10202262D01*
X7935789Y-10049522D01*
X7995368Y-9879255D01*
X7997032Y-9864490D01*
X8015565Y-9700003D01*
X8015565Y-9699996D01*
X7995369Y-9520750D01*
X7995368Y-9520745D01*
X7935788Y-9350475D01*
X7901268Y-9295538D01*
X7882267Y-9228301D01*
X7902634Y-9161466D01*
X7955902Y-9116251D01*
X7993302Y-9108314D01*
X7993081Y-9106345D01*
X8179249Y-9085369D01*
X8179252Y-9085368D01*
X8179255Y-9085368D01*
X8349522Y-9025789D01*
X8502262Y-8929816D01*
X8629816Y-8802262D01*
X8725789Y-8649522D01*
X8785368Y-8479255D01*
X8799985Y-8349523D01*
X8805565Y-8300003D01*
X8805565Y-8299996D01*
X8785369Y-8120750D01*
X8785368Y-8120745D01*
X8785368Y-8120744D01*
X8725789Y-7950478D01*
X8665998Y-7855322D01*
X8646999Y-7788087D01*
X8667367Y-7721251D01*
X8720634Y-7676037D01*
X8789891Y-7666799D01*
X8835418Y-7683401D01*
X8878618Y-7709672D01*
X9024335Y-7750500D01*
X9024336Y-7750500D01*
X9137659Y-7750500D01*
X9165723Y-7746642D01*
X9249920Y-7735070D01*
X9368868Y-7683403D01*
X9388716Y-7674782D01*
X9388716Y-7674781D01*
X9388720Y-7674780D01*
X9506108Y-7579278D01*
X9593377Y-7455647D01*
X9600255Y-7436293D01*
X9644053Y-7313060D01*
X9644053Y-7313058D01*
X9644054Y-7313056D01*
X9654381Y-7162079D01*
X9638768Y-7086944D01*
X9623594Y-7013921D01*
X9623592Y-7013918D01*
X9623592Y-7013915D01*
X9553971Y-6879553D01*
X9553967Y-6879549D01*
X9553967Y-6879548D01*
X9450681Y-6768956D01*
X9372053Y-6721141D01*
X9321382Y-6690328D01*
X9175665Y-6649500D01*
X9062342Y-6649500D01*
X9062341Y-6649500D01*
X8950082Y-6664929D01*
X8950079Y-6664930D01*
X8811283Y-6725217D01*
X8693889Y-6820724D01*
X8606623Y-6944352D01*
X8606621Y-6944355D01*
X8555946Y-7086939D01*
X8555946Y-7086942D01*
X8545619Y-7237918D01*
X8545619Y-7237921D01*
X8576405Y-7386078D01*
X8576407Y-7386083D01*
X8576408Y-7386085D01*
X8620981Y-7472106D01*
X8634346Y-7540685D01*
X8608512Y-7605604D01*
X8551682Y-7646250D01*
X8481899Y-7649719D01*
X8444911Y-7634148D01*
X8439969Y-7631043D01*
X8399484Y-7605604D01*
X8349523Y-7574211D01*
X8179254Y-7514631D01*
X8179249Y-7514630D01*
X8000004Y-7494435D01*
X7999996Y-7494435D01*
X7820750Y-7514630D01*
X7820745Y-7514631D01*
X7650476Y-7574211D01*
X7497737Y-7670184D01*
X7370184Y-7797737D01*
X7274211Y-7950476D01*
X7214631Y-8120745D01*
X7214630Y-8120750D01*
X7194435Y-8299996D01*
X7194435Y-8300003D01*
X7214630Y-8479249D01*
X7214631Y-8479254D01*
X7274211Y-8649524D01*
X7308732Y-8704462D01*
X7327733Y-8771699D01*
X7307366Y-8838534D01*
X7254098Y-8883749D01*
X7216697Y-8891685D01*
X7216919Y-8893655D01*
X7030750Y-8914630D01*
X7030745Y-8914631D01*
X6860476Y-8974211D01*
X6707737Y-9070184D01*
X6580184Y-9197737D01*
X6484211Y-9350476D01*
X6424631Y-9520745D01*
X6424630Y-9520750D01*
X6404435Y-9699996D01*
X6404435Y-9700003D01*
X3033806Y-9700003D01*
X3019816Y-9677738D01*
X2892262Y-9550184D01*
X2858244Y-9528809D01*
X2739523Y-9454211D01*
X2569254Y-9394631D01*
X2569249Y-9394630D01*
X2390004Y-9374435D01*
X2389996Y-9374435D01*
X2210750Y-9394630D01*
X2210745Y-9394631D01*
X2040476Y-9454211D01*
X1887737Y-9550184D01*
X1760184Y-9677737D01*
X1664209Y-9830479D01*
X1659544Y-9843813D01*
X1618822Y-9900588D01*
X1553869Y-9926335D01*
X1485307Y-9912878D01*
X1434905Y-9864490D01*
X1418664Y-9796534D01*
X1419562Y-9786681D01*
X1419648Y-9786034D01*
X1414996Y-9750703D01*
X1414466Y-9742605D01*
X1414466Y-6252412D01*
X1434151Y-6185373D01*
X1441521Y-6175097D01*
X1443776Y-6172267D01*
X1443782Y-6172262D01*
X1539755Y-6019522D01*
X1599334Y-5849255D01*
X1599335Y-5849249D01*
X1619531Y-5670003D01*
X1619531Y-5669996D01*
X1599335Y-5490750D01*
X1599334Y-5490745D01*
X1590366Y-5465115D01*
X1539755Y-5320478D01*
X1443782Y-5167738D01*
X1316228Y-5040184D01*
X1228989Y-4985368D01*
X1163487Y-4944210D01*
X993215Y-4884630D01*
X911043Y-4875372D01*
X846629Y-4848305D01*
X819935Y-4818126D01*
X744290Y-4697738D01*
X616736Y-4570184D01*
X567343Y-4539148D01*
X463997Y-4474211D01*
X293728Y-4414631D01*
X293723Y-4414630D01*
X114478Y-4394435D01*
X114470Y-4394435D01*
X-64775Y-4414630D01*
X-64780Y-4414631D01*
X-235049Y-4474211D01*
X-387788Y-4570184D01*
X-455082Y-4637478D01*
X-516405Y-4670963D01*
X-586097Y-4665979D01*
X-630444Y-4637478D01*
X-697737Y-4570184D01*
X-850476Y-4474211D01*
X-1020745Y-4414631D01*
X-1020750Y-4414630D01*
X-1199996Y-4394435D01*
X-1200004Y-4394435D01*
X-1379249Y-4414630D01*
X-1379254Y-4414631D01*
X-1549523Y-4474211D01*
X-1652869Y-4539148D01*
X-1702262Y-4570184D01*
X-1829816Y-4697738D01*
X-1857237Y-4741378D01*
X-1919299Y-4840150D01*
X-1925789Y-4850478D01*
X-1972989Y-4985368D01*
X-1985368Y-5020745D01*
X-1985369Y-5020750D01*
X-2005565Y-5199996D01*
X-2005565Y-5200003D01*
X-1985369Y-5379249D01*
X-1985368Y-5379255D01*
X-1925789Y-5549522D01*
X-1829816Y-5702262D01*
X-1702262Y-5829816D01*
X-1549522Y-5925789D01*
X-1379255Y-5985368D01*
X-1379252Y-5985368D01*
X-1379249Y-5985369D01*
X-1200004Y-6005565D01*
X-1200000Y-6005565D01*
X-1199996Y-6005565D01*
X-1020750Y-5985369D01*
X-1020745Y-5985368D01*
X-1020744Y-5985368D01*
X-850478Y-5925789D01*
X-823153Y-5908620D01*
X-728675Y-5849255D01*
X-697738Y-5829816D01*
X-697707Y-5829785D01*
X-697682Y-5829771D01*
X-692295Y-5825475D01*
X-691542Y-5826418D01*
X-636384Y-5796300D01*
X-566692Y-5801284D01*
X-510759Y-5843156D01*
X-486342Y-5908620D01*
X-486026Y-5917466D01*
X-486026Y-9416015D01*
X-505711Y-9483054D01*
X-558515Y-9528809D01*
X-627673Y-9538753D01*
X-675997Y-9521009D01*
X-750474Y-9474212D01*
X-920745Y-9414631D01*
X-920750Y-9414630D01*
X-1099996Y-9394435D01*
X-1100004Y-9394435D01*
X-1279249Y-9414630D01*
X-1279254Y-9414631D01*
X-1449523Y-9474211D01*
X-1552240Y-9538753D01*
X-1602262Y-9570184D01*
X-1729816Y-9697738D01*
X-1825789Y-9850478D01*
X-1869096Y-9974243D01*
X-1885368Y-10020745D01*
X-1885369Y-10020750D01*
X-1905565Y-10199996D01*
X-1905565Y-10200003D01*
X-1885369Y-10379249D01*
X-1885368Y-10379255D01*
X-1825789Y-10549522D01*
X-1729816Y-10702262D01*
X-1729812Y-10702265D01*
X-1729647Y-10702473D01*
X-1729578Y-10702640D01*
X-1726111Y-10708159D01*
X-1727076Y-10708765D01*
X-1703228Y-10767156D01*
X-1715972Y-10835853D01*
X-1738900Y-10867483D01*
X-6714598Y-15843181D01*
X-6775921Y-15876666D01*
X-6802279Y-15879500D01*
X-6868088Y-15879500D01*
X-6935127Y-15859815D01*
X-6945403Y-15852445D01*
X-6948239Y-15850182D01*
X-7010823Y-15810858D01*
X-7057114Y-15758523D01*
X-7067761Y-15689469D01*
X-7039385Y-15625621D01*
X-7010823Y-15600872D01*
X-6897738Y-15529816D01*
X-6770184Y-15402262D01*
X-6674211Y-15249523D01*
X-6614631Y-15079254D01*
X-6614630Y-15079249D01*
X-6594435Y-14900003D01*
X-6594435Y-14899996D01*
X-6614630Y-14720750D01*
X-6614631Y-14720745D01*
X-6658630Y-14595006D01*
X-6662191Y-14525227D01*
X-6627462Y-14464599D01*
X-6582543Y-14437009D01*
X-6550478Y-14425789D01*
X-6505833Y-14397737D01*
X-6471125Y-14375928D01*
X-6397738Y-14329816D01*
X-6270184Y-14202262D01*
X-6245508Y-14162990D01*
X-6174211Y-14049523D01*
X-6114631Y-13879254D01*
X-6114630Y-13879249D01*
X-6094435Y-13700003D01*
X-6094435Y-13699996D01*
X-6114630Y-13520750D01*
X-6114631Y-13520745D01*
X-6174211Y-13350476D01*
X-6270184Y-13197737D01*
X-6397737Y-13070184D01*
X-6550476Y-12974211D01*
X-6720745Y-12914631D01*
X-6720750Y-12914630D01*
X-6899996Y-12894435D01*
X-6900004Y-12894435D01*
X-7079249Y-12914630D01*
X-7079254Y-12914631D01*
X-7249523Y-12974211D01*
X-7402262Y-13070184D01*
X-7529816Y-13197738D01*
X-7625789Y-13350478D01*
X-7634714Y-13375984D01*
X-7685368Y-13520745D01*
X-7685369Y-13520750D01*
X-7705565Y-13699996D01*
X-7705565Y-13700003D01*
X-7685369Y-13879249D01*
X-7685366Y-13879262D01*
X-7641370Y-14004994D01*
X-7637807Y-14074772D01*
X-7672536Y-14135400D01*
X-7717455Y-14162990D01*
X-7749523Y-14174211D01*
X-7749524Y-14174212D01*
X-7902261Y-14270183D01*
X-7902262Y-14270184D01*
X-8029816Y-14397738D01*
X-8082610Y-14481759D01*
X-8125188Y-14549522D01*
X-8125789Y-14550478D01*
X-8182538Y-14712656D01*
X-8185368Y-14720745D01*
X-8185369Y-14720750D01*
X-8205565Y-14899996D01*
X-8205565Y-14900003D01*
X-8185369Y-15079249D01*
X-8185368Y-15079255D01*
X-8125789Y-15249522D01*
X-8029816Y-15402262D01*
X-7902262Y-15529816D01*
X-7902259Y-15529817D01*
X-7902259Y-15529818D01*
X-7839678Y-15569140D01*
X-7793386Y-15621474D01*
X-7782737Y-15690528D01*
X-7811112Y-15754376D01*
X-7839677Y-15779128D01*
X-7952762Y-15850184D01*
X-8080315Y-15977737D01*
X-8176288Y-16130476D01*
X-8235868Y-16300745D01*
X-8235869Y-16300749D01*
X-8250388Y-16429616D01*
X-8277454Y-16494030D01*
X-8307634Y-16520725D01*
X-8402262Y-16580184D01*
X-8529816Y-16707738D01*
X-8625789Y-16860478D01*
X-8657325Y-16950602D01*
X-8685368Y-17030745D01*
X-8685369Y-17030750D01*
X-8705565Y-17209996D01*
X-8705565Y-17210003D01*
X-11000000Y-17210003D01*
X-11000000Y-15047896D01*
X-10980315Y-14980857D01*
X-10927511Y-14935102D01*
X-10858353Y-14925158D01*
X-10835045Y-14930855D01*
X-10679262Y-14985366D01*
X-10679258Y-14985366D01*
X-10679255Y-14985368D01*
X-10679251Y-14985368D01*
X-10679249Y-14985369D01*
X-10500004Y-15005565D01*
X-10500000Y-15005565D01*
X-10499996Y-15005565D01*
X-10320750Y-14985369D01*
X-10320745Y-14985368D01*
X-10303258Y-14979249D01*
X-10150478Y-14925789D01*
X-10149473Y-14925158D01*
X-10001168Y-14831971D01*
X-9997738Y-14829816D01*
X-9870184Y-14702262D01*
X-9841254Y-14656221D01*
X-9774211Y-14549523D01*
X-9714631Y-14379254D01*
X-9714630Y-14379249D01*
X-9694435Y-14200003D01*
X-9694435Y-14199996D01*
X-9714630Y-14020750D01*
X-9714631Y-14020745D01*
X-9774211Y-13850476D01*
X-9870184Y-13697737D01*
X-9997737Y-13570184D01*
X-10150476Y-13474211D01*
X-10320745Y-13414631D01*
X-10320750Y-13414630D01*
X-10499996Y-13394435D01*
X-10500004Y-13394435D01*
X-10679249Y-13414630D01*
X-10679257Y-13414632D01*
X-10835046Y-13469145D01*
X-10904824Y-13472706D01*
X-10965452Y-13437977D01*
X-10997679Y-13375984D01*
X-11000000Y-13352103D01*
X-11000000Y-11874500D01*
X-10980315Y-11807461D01*
X-10927511Y-11761706D01*
X-10876000Y-11750500D01*
X-10862341Y-11750500D01*
X-10824921Y-11745356D01*
X-10750080Y-11735070D01*
X-10671068Y-11700750D01*
X-10611283Y-11674782D01*
X-10611281Y-11674780D01*
X-10611280Y-11674780D01*
X-10493892Y-11579278D01*
X-10493891Y-11579276D01*
X-10493889Y-11579275D01*
X-10406623Y-11455647D01*
X-10406621Y-11455644D01*
X-10355946Y-11313060D01*
X-10355946Y-11313057D01*
X-10350807Y-11237921D01*
X-9654381Y-11237921D01*
X-9623594Y-11386078D01*
X-9623593Y-11386079D01*
X-9623592Y-11386085D01*
X-9553971Y-11520447D01*
X-9450680Y-11631044D01*
X-9321382Y-11709672D01*
X-9175665Y-11750500D01*
X-9175664Y-11750500D01*
X-9062341Y-11750500D01*
X-9024921Y-11745356D01*
X-8950080Y-11735070D01*
X-8871068Y-11700750D01*
X-8811283Y-11674782D01*
X-8811281Y-11674780D01*
X-8811280Y-11674780D01*
X-8693892Y-11579278D01*
X-8693891Y-11579276D01*
X-8693889Y-11579275D01*
X-8606623Y-11455647D01*
X-8606621Y-11455644D01*
X-8555946Y-11313060D01*
X-8555946Y-11313057D01*
X-8545619Y-11162079D01*
X-8545619Y-11162074D01*
X-8576405Y-11013921D01*
X-8576408Y-11013915D01*
X-8619985Y-10929816D01*
X-8646029Y-10879553D01*
X-8646030Y-10879551D01*
X-8646032Y-10879548D01*
X-8749318Y-10768956D01*
X-8878616Y-10690329D01*
X-8878615Y-10690329D01*
X-8878617Y-10690328D01*
X-8878618Y-10690328D01*
X-9024335Y-10649500D01*
X-9137658Y-10649500D01*
X-9137659Y-10649500D01*
X-9249917Y-10664929D01*
X-9249920Y-10664930D01*
X-9388716Y-10725217D01*
X-9388719Y-10725219D01*
X-9388720Y-10725220D01*
X-9492702Y-10809816D01*
X-9506110Y-10820724D01*
X-9516789Y-10835853D01*
X-9583115Y-10929816D01*
X-9593376Y-10944352D01*
X-9593378Y-10944355D01*
X-9644053Y-11086939D01*
X-9644053Y-11086941D01*
X-9644054Y-11086944D01*
X-9654381Y-11237921D01*
X-10350807Y-11237921D01*
X-10345619Y-11162079D01*
X-10345619Y-11162074D01*
X-10376405Y-11013921D01*
X-10376408Y-11013915D01*
X-10419985Y-10929816D01*
X-10446029Y-10879553D01*
X-10446030Y-10879551D01*
X-10446032Y-10879548D01*
X-10549318Y-10768956D01*
X-10678616Y-10690329D01*
X-10678615Y-10690329D01*
X-10678617Y-10690328D01*
X-10678618Y-10690328D01*
X-10824335Y-10649500D01*
X-10876000Y-10649500D01*
X-10943039Y-10629815D01*
X-10988794Y-10577011D01*
X-11000000Y-10525500D01*
X-11000000Y-8000003D01*
X-3205565Y-8000003D01*
X-3191960Y-8120750D01*
X-3185368Y-8179255D01*
X-3125789Y-8349522D01*
X-3029816Y-8502262D01*
X-2902262Y-8629816D01*
X-2749522Y-8725789D01*
X-2579255Y-8785368D01*
X-2579252Y-8785368D01*
X-2579249Y-8785369D01*
X-2400004Y-8805565D01*
X-2400000Y-8805565D01*
X-2399996Y-8805565D01*
X-2220750Y-8785369D01*
X-2220746Y-8785368D01*
X-2220745Y-8785368D01*
X-2220743Y-8785367D01*
X-2220737Y-8785366D01*
X-2090955Y-8739953D01*
X-2021176Y-8736391D01*
X-2009045Y-8739953D01*
X-1879262Y-8785366D01*
X-1879258Y-8785366D01*
X-1879255Y-8785368D01*
X-1879251Y-8785368D01*
X-1879249Y-8785369D01*
X-1700004Y-8805565D01*
X-1700000Y-8805565D01*
X-1699996Y-8805565D01*
X-1520750Y-8785369D01*
X-1520745Y-8785368D01*
X-1481681Y-8771699D01*
X-1350478Y-8725789D01*
X-1197738Y-8629816D01*
X-1070184Y-8502262D01*
X-1055724Y-8479249D01*
X-974211Y-8349523D01*
X-914631Y-8179254D01*
X-914630Y-8179249D01*
X-894435Y-8000003D01*
X-894435Y-7999996D01*
X-914630Y-7820750D01*
X-914631Y-7820745D01*
X-974211Y-7650476D01*
X-1070184Y-7497737D01*
X-1197737Y-7370184D01*
X-1350476Y-7274211D01*
X-1520745Y-7214631D01*
X-1520750Y-7214630D01*
X-1699996Y-7194435D01*
X-1700004Y-7194435D01*
X-1879249Y-7214630D01*
X-1879257Y-7214632D01*
X-2009046Y-7260047D01*
X-2078825Y-7263608D01*
X-2090954Y-7260047D01*
X-2220742Y-7214632D01*
X-2220750Y-7214630D01*
X-2399996Y-7194435D01*
X-2400004Y-7194435D01*
X-2579249Y-7214630D01*
X-2579254Y-7214631D01*
X-2749523Y-7274211D01*
X-2811350Y-7313060D01*
X-2902262Y-7370184D01*
X-3029816Y-7497738D01*
X-3056801Y-7540685D01*
X-3123132Y-7646250D01*
X-3125789Y-7650478D01*
X-3185368Y-7820744D01*
X-3185368Y-7820745D01*
X-3185369Y-7820750D01*
X-3205565Y-7999996D01*
X-3205565Y-8000003D01*
X-11000000Y-8000003D01*
X-11000000Y-5200003D01*
X-8605565Y-5200003D01*
X-8585369Y-5379249D01*
X-8585368Y-5379255D01*
X-8525789Y-5549522D01*
X-8429816Y-5702262D01*
X-8302262Y-5829816D01*
X-8149522Y-5925789D01*
X-7979255Y-5985368D01*
X-7979252Y-5985368D01*
X-7979249Y-5985369D01*
X-7800004Y-6005565D01*
X-7800000Y-6005565D01*
X-7799996Y-6005565D01*
X-7620750Y-5985369D01*
X-7620745Y-5985368D01*
X-7450478Y-5925789D01*
X-7423153Y-5908620D01*
X-7328675Y-5849255D01*
X-7297738Y-5829816D01*
X-7170184Y-5702262D01*
X-7149910Y-5669996D01*
X-7074211Y-5549523D01*
X-7014631Y-5379254D01*
X-7014630Y-5379249D01*
X-6994435Y-5200003D01*
X-6994435Y-5199996D01*
X-7014630Y-5020750D01*
X-7014631Y-5020745D01*
X-7074211Y-4850476D01*
X-7170184Y-4697737D01*
X-7297737Y-4570184D01*
X-7450476Y-4474211D01*
X-7620745Y-4414631D01*
X-7620750Y-4414630D01*
X-7799996Y-4394435D01*
X-7800004Y-4394435D01*
X-7979249Y-4414630D01*
X-7979254Y-4414631D01*
X-8149523Y-4474211D01*
X-8252869Y-4539148D01*
X-8302262Y-4570184D01*
X-8429816Y-4697738D01*
X-8457237Y-4741378D01*
X-8519299Y-4840150D01*
X-8525789Y-4850478D01*
X-8572989Y-4985368D01*
X-8585368Y-5020745D01*
X-8585369Y-5020750D01*
X-8605565Y-5199996D01*
X-8605565Y-5200003D01*
X-11000000Y-5200003D01*
X-11000000Y-4606187D01*
X-10980315Y-4539148D01*
X-10979843Y-4538419D01*
X-10902898Y-4420513D01*
X-10898124Y-4414134D01*
X-10757456Y-4249371D01*
X-10751903Y-4243655D01*
X-10703675Y-4200003D01*
X-5605565Y-4200003D01*
X-5585369Y-4379249D01*
X-5585368Y-4379255D01*
X-5525789Y-4549522D01*
X-5429816Y-4702262D01*
X-5302262Y-4829816D01*
X-5149522Y-4925789D01*
X-4979255Y-4985368D01*
X-4979252Y-4985368D01*
X-4979249Y-4985369D01*
X-4800004Y-5005565D01*
X-4800000Y-5005565D01*
X-4799996Y-5005565D01*
X-4620750Y-4985369D01*
X-4620745Y-4985368D01*
X-4450478Y-4925789D01*
X-4297738Y-4829816D01*
X-4170184Y-4702262D01*
X-4167341Y-4697737D01*
X-4074211Y-4549523D01*
X-4014631Y-4379254D01*
X-4014630Y-4379249D01*
X-3994435Y-4200003D01*
X-3994435Y-4199996D01*
X-4014630Y-4020750D01*
X-4014631Y-4020745D01*
X-4074211Y-3850476D01*
X-4170184Y-3697737D01*
X-4297737Y-3570184D01*
X-4450476Y-3474211D01*
X-4620745Y-3414631D01*
X-4620750Y-3414630D01*
X-4799996Y-3394435D01*
X-4800004Y-3394435D01*
X-4979249Y-3414630D01*
X-4979254Y-3414631D01*
X-5149523Y-3474211D01*
X-5302262Y-3570184D01*
X-5429815Y-3697737D01*
X-5525188Y-3849522D01*
X-5525789Y-3850478D01*
X-5585368Y-4020745D01*
X-5585369Y-4020750D01*
X-5605565Y-4199996D01*
X-5605565Y-4200003D01*
X-10703675Y-4200003D01*
X-10703672Y-4200000D01*
X-10589782Y-4096917D01*
X-10586757Y-4094351D01*
X-10577530Y-4087021D01*
X-10577531Y-4087021D01*
X-5467395Y-26913D01*
X-5402661Y-622D01*
X-5390258Y0D01*
X-3895685Y0D01*
X-3828646Y-19685D01*
G37*
G04 #@! TD.AperFunction*
M02*
