G04 #@! TF.GenerationSoftware,KiCad,Pcbnew,7.0.5*
G04 #@! TF.CreationDate,2023-08-30T18:19:32+03:00*
G04 #@! TF.ProjectId,USB_duck_v2,5553425f-6475-4636-9b5f-76322e6b6963,rev?*
G04 #@! TF.SameCoordinates,Original*
G04 #@! TF.FileFunction,Copper,L1,Top*
G04 #@! TF.FilePolarity,Positive*
%FSLAX46Y46*%
G04 Gerber Fmt 4.6, Leading zero omitted, Abs format (unit mm)*
G04 Created by KiCad (PCBNEW 7.0.5) date 2023-08-30 18:19:32*
%MOMM*%
%LPD*%
G01*
G04 APERTURE LIST*
G04 Aperture macros list*
%AMRoundRect*
0 Rectangle with rounded corners*
0 $1 Rounding radius*
0 $2 $3 $4 $5 $6 $7 $8 $9 X,Y pos of 4 corners*
0 Add a 4 corners polygon primitive as box body*
4,1,4,$2,$3,$4,$5,$6,$7,$8,$9,$2,$3,0*
0 Add four circle primitives for the rounded corners*
1,1,$1+$1,$2,$3*
1,1,$1+$1,$4,$5*
1,1,$1+$1,$6,$7*
1,1,$1+$1,$8,$9*
0 Add four rect primitives between the rounded corners*
20,1,$1+$1,$2,$3,$4,$5,0*
20,1,$1+$1,$4,$5,$6,$7,0*
20,1,$1+$1,$6,$7,$8,$9,0*
20,1,$1+$1,$8,$9,$2,$3,0*%
%AMFreePoly0*
4,1,9,3.862500,-0.866500,0.737500,-0.866500,0.737500,-0.450000,-0.737500,-0.450000,-0.737500,0.450000,0.737500,0.450000,0.737500,0.866500,3.862500,0.866500,3.862500,-0.866500,3.862500,-0.866500,$1*%
G04 Aperture macros list end*
G04 #@! TA.AperFunction,SMDPad,CuDef*
%ADD10RoundRect,0.140000X-0.140000X-0.170000X0.140000X-0.170000X0.140000X0.170000X-0.140000X0.170000X0*%
G04 #@! TD*
G04 #@! TA.AperFunction,SMDPad,CuDef*
%ADD11RoundRect,0.135000X-0.135000X-0.185000X0.135000X-0.185000X0.135000X0.185000X-0.135000X0.185000X0*%
G04 #@! TD*
G04 #@! TA.AperFunction,SMDPad,CuDef*
%ADD12RoundRect,0.140000X0.140000X0.170000X-0.140000X0.170000X-0.140000X-0.170000X0.140000X-0.170000X0*%
G04 #@! TD*
G04 #@! TA.AperFunction,SMDPad,CuDef*
%ADD13RoundRect,0.225000X-0.225000X-0.250000X0.225000X-0.250000X0.225000X0.250000X-0.225000X0.250000X0*%
G04 #@! TD*
G04 #@! TA.AperFunction,SMDPad,CuDef*
%ADD14R,1.200000X1.400000*%
G04 #@! TD*
G04 #@! TA.AperFunction,SMDPad,CuDef*
%ADD15RoundRect,0.006000X0.094000X-0.414000X0.094000X0.414000X-0.094000X0.414000X-0.094000X-0.414000X0*%
G04 #@! TD*
G04 #@! TA.AperFunction,SMDPad,CuDef*
%ADD16RoundRect,0.020000X0.400000X-0.080000X0.400000X0.080000X-0.400000X0.080000X-0.400000X-0.080000X0*%
G04 #@! TD*
G04 #@! TA.AperFunction,SMDPad,CuDef*
%ADD17R,3.100000X3.100000*%
G04 #@! TD*
G04 #@! TA.AperFunction,SMDPad,CuDef*
%ADD18RoundRect,0.135000X-0.185000X0.135000X-0.185000X-0.135000X0.185000X-0.135000X0.185000X0.135000X0*%
G04 #@! TD*
G04 #@! TA.AperFunction,SMDPad,CuDef*
%ADD19RoundRect,0.225000X0.225000X-0.375000X0.225000X0.375000X-0.225000X0.375000X-0.225000X-0.375000X0*%
G04 #@! TD*
G04 #@! TA.AperFunction,SMDPad,CuDef*
%ADD20RoundRect,0.135000X0.185000X-0.135000X0.185000X0.135000X-0.185000X0.135000X-0.185000X-0.135000X0*%
G04 #@! TD*
G04 #@! TA.AperFunction,ComponentPad*
%ADD21R,0.850000X0.850000*%
G04 #@! TD*
G04 #@! TA.AperFunction,ComponentPad*
%ADD22O,0.850000X0.850000*%
G04 #@! TD*
G04 #@! TA.AperFunction,SMDPad,CuDef*
%ADD23RoundRect,0.225000X0.225000X0.250000X-0.225000X0.250000X-0.225000X-0.250000X0.225000X-0.250000X0*%
G04 #@! TD*
G04 #@! TA.AperFunction,SMDPad,CuDef*
%ADD24RoundRect,0.075000X-0.075000X-0.675000X0.075000X-0.675000X0.075000X0.675000X-0.075000X0.675000X0*%
G04 #@! TD*
G04 #@! TA.AperFunction,SMDPad,CuDef*
%ADD25RoundRect,0.175000X-0.175000X-0.525000X0.175000X-0.525000X0.175000X0.525000X-0.175000X0.525000X0*%
G04 #@! TD*
G04 #@! TA.AperFunction,SMDPad,CuDef*
%ADD26R,0.600000X1.100000*%
G04 #@! TD*
G04 #@! TA.AperFunction,SMDPad,CuDef*
%ADD27R,0.300000X1.100000*%
G04 #@! TD*
G04 #@! TA.AperFunction,ComponentPad*
%ADD28O,1.000000X1.800000*%
G04 #@! TD*
G04 #@! TA.AperFunction,ComponentPad*
%ADD29O,0.950000X2.150000*%
G04 #@! TD*
G04 #@! TA.AperFunction,SMDPad,CuDef*
%ADD30RoundRect,0.135000X0.135000X0.185000X-0.135000X0.185000X-0.135000X-0.185000X0.135000X-0.185000X0*%
G04 #@! TD*
G04 #@! TA.AperFunction,SMDPad,CuDef*
%ADD31RoundRect,0.225000X0.350000X0.225000X-0.350000X0.225000X-0.350000X-0.225000X0.350000X-0.225000X0*%
G04 #@! TD*
G04 #@! TA.AperFunction,SMDPad,CuDef*
%ADD32R,0.300000X0.850000*%
G04 #@! TD*
G04 #@! TA.AperFunction,SMDPad,CuDef*
%ADD33RoundRect,0.150000X0.512500X0.150000X-0.512500X0.150000X-0.512500X-0.150000X0.512500X-0.150000X0*%
G04 #@! TD*
G04 #@! TA.AperFunction,SMDPad,CuDef*
%ADD34R,1.270000X0.760000*%
G04 #@! TD*
G04 #@! TA.AperFunction,SMDPad,CuDef*
%ADD35RoundRect,0.262500X-0.587500X-0.262500X0.587500X-0.262500X0.587500X0.262500X-0.587500X0.262500X0*%
G04 #@! TD*
G04 #@! TA.AperFunction,SMDPad,CuDef*
%ADD36RoundRect,0.140000X0.021213X-0.219203X0.219203X-0.021213X-0.021213X0.219203X-0.219203X0.021213X0*%
G04 #@! TD*
G04 #@! TA.AperFunction,SMDPad,CuDef*
%ADD37RoundRect,0.150000X-0.512500X-0.150000X0.512500X-0.150000X0.512500X0.150000X-0.512500X0.150000X0*%
G04 #@! TD*
G04 #@! TA.AperFunction,SMDPad,CuDef*
%ADD38R,0.900000X1.300000*%
G04 #@! TD*
G04 #@! TA.AperFunction,SMDPad,CuDef*
%ADD39FreePoly0,270.000000*%
G04 #@! TD*
G04 #@! TA.AperFunction,ViaPad*
%ADD40C,0.600000*%
G04 #@! TD*
G04 #@! TA.AperFunction,Conductor*
%ADD41C,0.400000*%
G04 #@! TD*
G04 #@! TA.AperFunction,Conductor*
%ADD42C,0.200000*%
G04 #@! TD*
G04 #@! TA.AperFunction,Conductor*
%ADD43C,0.500000*%
G04 #@! TD*
G04 APERTURE END LIST*
D10*
X-6580000Y-17300000D03*
X-5620000Y-17300000D03*
D11*
X-6610000Y-12300000D03*
X-5590000Y-12300000D03*
D12*
X-1120000Y-10800000D03*
X-2080000Y-10800000D03*
D11*
X6170000Y-12740000D03*
X7190000Y-12740000D03*
D13*
X-3575000Y-5200000D03*
X-2025000Y-5200000D03*
D14*
X7400000Y-18170000D03*
X7400000Y-15970000D03*
X5700000Y-15970000D03*
X5700000Y-18170000D03*
D15*
X-2600000Y-19285000D03*
X-2200000Y-19285000D03*
X-1800000Y-19285000D03*
X-1400000Y-19285000D03*
X-1000000Y-19285000D03*
X-600000Y-19285000D03*
X-200000Y-19285000D03*
X200000Y-19285000D03*
X600000Y-19285000D03*
X1000000Y-19285000D03*
X1400000Y-19285000D03*
X1800000Y-19285000D03*
X2200000Y-19285000D03*
X2600000Y-19285000D03*
D16*
X3435000Y-18450000D03*
X3435000Y-18050000D03*
X3435000Y-17650000D03*
X3435000Y-17250000D03*
X3435000Y-16850000D03*
X3435000Y-16450000D03*
X3435000Y-16050000D03*
X3435000Y-15650000D03*
X3435000Y-15250000D03*
X3435000Y-14850000D03*
X3435000Y-14450000D03*
X3435000Y-14050000D03*
X3435000Y-13650000D03*
X3435000Y-13250000D03*
D15*
X2600000Y-12415000D03*
X2200000Y-12415000D03*
X1800000Y-12415000D03*
X1400000Y-12415000D03*
X1000000Y-12415000D03*
X600000Y-12415000D03*
X200000Y-12415000D03*
X-200000Y-12415000D03*
X-600000Y-12415000D03*
X-1000000Y-12415000D03*
X-1400000Y-12415000D03*
X-1800000Y-12415000D03*
X-2200000Y-12415000D03*
X-2600000Y-12415000D03*
D16*
X-3435000Y-13250000D03*
X-3435000Y-13650000D03*
X-3435000Y-14050000D03*
X-3435000Y-14450000D03*
X-3435000Y-14850000D03*
X-3435000Y-15250000D03*
X-3435000Y-15650000D03*
X-3435000Y-16050000D03*
X-3435000Y-16450000D03*
X-3435000Y-16850000D03*
X-3435000Y-17250000D03*
X-3435000Y-17650000D03*
X-3435000Y-18050000D03*
X-3435000Y-18450000D03*
D17*
X0Y-15850000D03*
D18*
X-3600000Y-1690000D03*
X-3600000Y-2710000D03*
D19*
X9250000Y-9100000D03*
X10750000Y-9100000D03*
X9250000Y-5300000D03*
X10750000Y-5300000D03*
D20*
X2200000Y-28410000D03*
X2200000Y-27390000D03*
D21*
X4500000Y-27500000D03*
D22*
X4500000Y-26500000D03*
X4500000Y-25500000D03*
D23*
X-5400000Y-5200000D03*
X-6950000Y-5200000D03*
D24*
X-2750000Y0D03*
X-2250000Y0D03*
X-1750000Y0D03*
X-1250000Y0D03*
X-750000Y0D03*
X-250000Y0D03*
X250000Y0D03*
X750000Y0D03*
X1250000Y0D03*
X1750000Y0D03*
X2250000Y0D03*
X2750000Y0D03*
D25*
X-3600000Y50000D03*
D18*
X1800000Y-2490000D03*
X1800000Y-3510000D03*
X-1800000Y-2490000D03*
X-1800000Y-3510000D03*
D26*
X-3200000Y-29650000D03*
X-2400000Y-29650000D03*
D27*
X-1250000Y-29650000D03*
X-250000Y-29650000D03*
X250000Y-29650000D03*
X1250000Y-29650000D03*
D26*
X2400000Y-29650000D03*
X3200000Y-29650000D03*
X3200000Y-29650000D03*
X2400000Y-29650000D03*
D27*
X1750000Y-29650000D03*
X750000Y-29650000D03*
X-750000Y-29650000D03*
X-1750000Y-29650000D03*
D26*
X-2400000Y-29650000D03*
X-3200000Y-29650000D03*
D28*
X-5620000Y-30800000D03*
D29*
X-5620000Y-34800000D03*
D28*
X5620000Y-30800000D03*
D29*
X5620000Y-34800000D03*
D13*
X-7475000Y-13700000D03*
X-5925000Y-13700000D03*
D18*
X1700000Y-21690000D03*
X1700000Y-22710000D03*
D11*
X6170000Y-11590000D03*
X7190000Y-11590000D03*
D12*
X7730000Y-14270000D03*
X6770000Y-14270000D03*
D20*
X-1800000Y-28310000D03*
X-1800000Y-27290000D03*
D30*
X-5590000Y-15100000D03*
X-6610000Y-15100000D03*
D31*
X7075000Y-7950000D03*
X7075000Y-6450000D03*
X3125000Y-6450000D03*
X3125000Y-7950000D03*
D19*
X9250000Y-27100000D03*
X10750000Y-27100000D03*
X9250000Y-23300000D03*
X10750000Y-23300000D03*
D10*
X6200000Y-10490000D03*
X7160000Y-10490000D03*
D32*
X500000Y-2700000D03*
X0Y-2700000D03*
X-500000Y-2700000D03*
X-500000Y-4100000D03*
X0Y-4100000D03*
X500000Y-4100000D03*
D33*
X6737500Y-23150000D03*
X6737500Y-22200000D03*
X6737500Y-21250000D03*
X4462500Y-21250000D03*
X4462500Y-22200000D03*
X4462500Y-23150000D03*
D11*
X6490000Y-26050000D03*
X7510000Y-26050000D03*
D10*
X-6580000Y-18400000D03*
X-5620000Y-18400000D03*
X-6580000Y-19500000D03*
X-5620000Y-19500000D03*
D30*
X-5590000Y-16200000D03*
X-6610000Y-16200000D03*
D34*
X-5490000Y-27910000D03*
X-3710000Y-27910000D03*
D10*
X6770000Y-19870000D03*
X7730000Y-19870000D03*
D35*
X1700000Y-23940000D03*
X-1500000Y-23940000D03*
X1700000Y-25590000D03*
X-1500000Y-25590000D03*
D11*
X6490000Y-27200000D03*
X7510000Y-27200000D03*
D18*
X2800000Y-21690000D03*
X2800000Y-22710000D03*
D10*
X6520000Y-24950000D03*
X7480000Y-24950000D03*
D36*
X-1339411Y-22639411D03*
X-660589Y-21960589D03*
D37*
X-6600000Y-21950000D03*
X-6600000Y-22900000D03*
X-6600000Y-23850000D03*
X-4325000Y-23850000D03*
X-4325000Y-22900000D03*
X-4325000Y-21950000D03*
D23*
X-3825000Y-26310000D03*
X-5375000Y-26310000D03*
D38*
X-3650000Y-7250000D03*
D39*
X-5150000Y-7337500D03*
D38*
X-6650000Y-7250000D03*
D12*
X2080000Y-10800000D03*
X1120000Y-10800000D03*
D40*
X-5100000Y-28900000D03*
X-7698911Y-22500500D03*
X7600000Y-22100000D03*
X-2800000Y-2700000D03*
X-2700000Y-20700000D03*
X-10300000Y-24000000D03*
X-7000000Y-28000000D03*
X2900000Y-3500000D03*
X-7200000Y-29900000D03*
X-1700000Y-8000000D03*
X-7000000Y-27000000D03*
X-6300000Y-29000000D03*
X7800000Y-14800000D03*
X7200000Y-29900000D03*
X8000000Y-8300000D03*
X-2400000Y-8000000D03*
X-7800000Y-5200000D03*
X-1100000Y-10200000D03*
X10200000Y-26400000D03*
X7210000Y-9700000D03*
X4354500Y-17321236D03*
X-4200000Y-29000000D03*
X-6900000Y-13700000D03*
X-7699500Y-19100000D03*
X-1200000Y-5200000D03*
X-10500000Y-14200000D03*
X-7699500Y-18406374D03*
X-2800000Y-1000000D03*
X-3100000Y-25100000D03*
X2390000Y-10180000D03*
X2985061Y-27765141D03*
X4300000Y-29000000D03*
X10500000Y-10300000D03*
X-7000000Y-26000000D03*
X6310000Y-19180000D03*
X2947060Y-1074626D03*
X-5769500Y-18900000D03*
X-5770000Y-17850000D03*
X5978819Y-20321888D03*
X-2110000Y-10110000D03*
X5652503Y-14723601D03*
X-2600000Y-6400000D03*
X-3323911Y-22576089D03*
X-2600000Y-7100000D03*
X6500000Y-28200000D03*
X-3000000Y-19700000D03*
X1270000Y-10190000D03*
X-4850000Y-13550000D03*
X-1900000Y-7100000D03*
X-1900000Y-6400000D03*
X5770000Y-12780000D03*
X-250500Y-21400000D03*
X3300000Y-28500000D03*
X-2800000Y-28500000D03*
X2200181Y-1359891D03*
X-4800000Y-4200000D03*
X-7400000Y-14900000D03*
X-5325000Y-20975000D03*
X453710Y-1644849D03*
X-350500Y-1700000D03*
X1380000Y-27999500D03*
X-7900000Y-17210000D03*
X813966Y-5670000D03*
X114474Y-5200000D03*
X-2371844Y-26559461D03*
X-7450500Y-16480000D03*
X-480000Y-22900000D03*
X-536944Y-28000500D03*
X-854406Y-26923008D03*
X1170000Y-2000000D03*
X-3600000Y-1000000D03*
X-3304891Y-18890000D03*
X3068920Y-20038067D03*
X4214183Y-20014183D03*
X5220000Y-14026406D03*
X4510000Y-11880000D03*
X-2260000Y-14930000D03*
X-2199509Y-16587576D03*
X-2246275Y-17388056D03*
X2034658Y-17925818D03*
X-4215496Y-18883700D03*
D41*
X-2400000Y-8000000D02*
X-1700000Y-8000000D01*
D42*
X2609920Y-27390000D02*
X2200000Y-27390000D01*
D41*
X-5100000Y-28900000D02*
X-5200000Y-29000000D01*
D42*
X-2610000Y-25590000D02*
X-3100000Y-25100000D01*
D41*
X-7000000Y-28000000D02*
X-7000000Y-27000000D01*
D42*
X-7475000Y-13700000D02*
X-6900000Y-13700000D01*
D41*
X3650000Y-29650000D02*
X3200000Y-29650000D01*
D42*
X-3600000Y-2710000D02*
X-2810000Y-2710000D01*
X8630000Y-26100000D02*
X7480000Y-24950000D01*
X4354500Y-17321236D02*
X4354500Y-17236952D01*
X-7299500Y-19500000D02*
X-6580000Y-19500000D01*
X10500000Y-9350000D02*
X10750000Y-9100000D01*
X2947060Y-1074626D02*
X2750000Y-877566D01*
D41*
X-2900000Y-8000000D02*
X-3650000Y-7250000D01*
X-7000000Y-27000000D02*
X-7000000Y-26000000D01*
X-2400000Y-8000000D02*
X-2900000Y-8000000D01*
X-4200000Y-29000000D02*
X-5000000Y-29000000D01*
X-3550000Y-29650000D02*
X-3200000Y-29650000D01*
D42*
X-1120000Y-10220000D02*
X-1120000Y-10800000D01*
X-6580000Y-18400000D02*
X-6800000Y-18400000D01*
X-6948896Y-22900000D02*
X-6600000Y-22900000D01*
X-5375000Y-26310000D02*
X-6690000Y-26310000D01*
D41*
X-5100000Y-28900000D02*
X-5490000Y-28510000D01*
D42*
X-7500000Y-19100000D02*
X-6800000Y-18400000D01*
X10200000Y-26550000D02*
X10750000Y-27100000D01*
X-7699500Y-18406374D02*
X-7693126Y-18400000D01*
X-1200000Y-5200000D02*
X-2025000Y-5200000D01*
X5217548Y-18100000D02*
X4438784Y-17321236D01*
X-1990000Y-3510000D02*
X-2800000Y-2700000D01*
X7425000Y-8300000D02*
X7075000Y-7950000D01*
X8000000Y-8300000D02*
X7425000Y-8300000D01*
X-1100000Y-10200000D02*
X-1120000Y-10220000D01*
X-7699500Y-19100000D02*
X-7299500Y-19500000D01*
X4050000Y-26500000D02*
X4500000Y-26500000D01*
X-7698911Y-22500500D02*
X-7348396Y-22500500D01*
X2080000Y-10490000D02*
X2080000Y-10800000D01*
X-2750000Y-950000D02*
X-2800000Y-1000000D01*
X6310000Y-19180000D02*
X5700000Y-18570000D01*
X-1800000Y-3510000D02*
X-1990000Y-3510000D01*
D41*
X-4200000Y-29000000D02*
X-3550000Y-29650000D01*
D42*
X2750000Y-16850000D02*
X3435000Y-16850000D01*
X-1500000Y-26990000D02*
X-1800000Y-27290000D01*
D41*
X-6300000Y-29000000D02*
X-6300000Y-28700000D01*
D42*
X-7348396Y-22500500D02*
X-6948896Y-22900000D01*
X-2810000Y-2710000D02*
X-2800000Y-2700000D01*
X10200000Y-26400000D02*
X10200000Y-26550000D01*
X7210000Y-10440000D02*
X7160000Y-10490000D01*
X7400000Y-15200000D02*
X7800000Y-14800000D01*
X-1500000Y-25590000D02*
X-2610000Y-25590000D01*
X3967548Y-16850000D02*
X3435000Y-16850000D01*
X0Y-15850000D02*
X1750000Y-15850000D01*
X5700000Y-18570000D02*
X5700000Y-18100000D01*
D41*
X4300000Y-29000000D02*
X3650000Y-29650000D01*
D42*
X-1500000Y-25590000D02*
X-1500000Y-23940000D01*
X1800000Y-3510000D02*
X2890000Y-3510000D01*
X1750000Y-15850000D02*
X2750000Y-16850000D01*
X2890000Y-3510000D02*
X2900000Y-3500000D01*
X-7686374Y-18406374D02*
X-6580000Y-17300000D01*
X7600000Y-22100000D02*
X6837500Y-22100000D01*
X7210000Y-9700000D02*
X7210000Y-10440000D01*
X2750000Y-877566D02*
X2750000Y0D01*
X2985061Y-27765141D02*
X2985061Y-27564939D01*
X-2750000Y0D02*
X-2750000Y-950000D01*
X6720000Y-19590000D02*
X6310000Y-19180000D01*
X10500000Y-10300000D02*
X10500000Y-9350000D01*
X-6690000Y-26310000D02*
X-7000000Y-26000000D01*
X2390000Y-10180000D02*
X2080000Y-10490000D01*
D41*
X-5490000Y-28510000D02*
X-5490000Y-27910000D01*
D42*
X-1339411Y-22639411D02*
X-1339411Y-23779411D01*
X7800000Y-14800000D02*
X7800000Y-14320000D01*
X-500000Y-2700000D02*
X-990000Y-2700000D01*
D41*
X-6300000Y-28700000D02*
X-7000000Y-28000000D01*
D42*
X2985061Y-27564939D02*
X4050000Y-26500000D01*
X-7699500Y-19100000D02*
X-7500000Y-19100000D01*
X-1500000Y-25590000D02*
X-1500000Y-26990000D01*
X4438784Y-17321236D02*
X4354500Y-17321236D01*
X6720000Y-19800000D02*
X6720000Y-19590000D01*
X-7693126Y-18400000D02*
X-6800000Y-18400000D01*
X7400000Y-15970000D02*
X7400000Y-15200000D01*
X2985061Y-27765141D02*
X2609920Y-27390000D01*
X6837500Y-22100000D02*
X6737500Y-22200000D01*
D41*
X-5000000Y-29000000D02*
X-5100000Y-28900000D01*
X-5200000Y-29000000D02*
X-6300000Y-29000000D01*
D42*
X5700000Y-18100000D02*
X5217548Y-18100000D01*
X-6950000Y-5200000D02*
X-7800000Y-5200000D01*
X-7699500Y-18406374D02*
X-7686374Y-18406374D01*
X7800000Y-14320000D02*
X7680000Y-14200000D01*
X-1339411Y-23779411D02*
X-1500000Y-23940000D01*
X-990000Y-2700000D02*
X-1800000Y-3510000D01*
X9900000Y-26100000D02*
X8630000Y-26100000D01*
X10200000Y-26400000D02*
X9900000Y-26100000D01*
X4354500Y-17236952D02*
X3967548Y-16850000D01*
D41*
X-2000000Y-7000000D02*
X-2500000Y-7000000D01*
D42*
X-2700000Y-19700000D02*
X-3000000Y-19700000D01*
X4872918Y-22200000D02*
X4462500Y-22200000D01*
X-4700000Y-16300000D02*
X-4700000Y-17400000D01*
X5775000Y-20913604D02*
X5775000Y-21297918D01*
X5978819Y-20709785D02*
X5775000Y-20913604D01*
X-2110000Y-10770000D02*
X-2080000Y-10800000D01*
X-3435000Y-15650000D02*
X-4050000Y-15650000D01*
X-500000Y-21720000D02*
X-420000Y-21720000D01*
D41*
X-1900000Y-6400000D02*
X-2000000Y-6500000D01*
D42*
X-4745686Y-12920000D02*
X-5420000Y-12920000D01*
X5652503Y-14723601D02*
X5406104Y-14970000D01*
D41*
X-2000000Y-6500000D02*
X-2000000Y-7000000D01*
D42*
X1000000Y-10920000D02*
X1000000Y-12415000D01*
X4740000Y-15250000D02*
X4800000Y-15190000D01*
D41*
X-2000000Y-7000000D02*
X-1900000Y-7100000D01*
D42*
X4602178Y-15650000D02*
X3435000Y-15650000D01*
X-3967548Y-16050000D02*
X-3435000Y-16050000D01*
X3445Y-21320000D02*
X1000000Y-20323445D01*
X-4700000Y-17400000D02*
X-5620000Y-18320000D01*
X1120000Y-10340000D02*
X1120000Y-10800000D01*
X-5500000Y-18900000D02*
X-4300000Y-17700000D01*
X-6610000Y-13015000D02*
X-5925000Y-13700000D01*
X3435000Y-15250000D02*
X4740000Y-15250000D01*
X-4350000Y-14050000D02*
X-3435000Y-14050000D01*
X-4300000Y-16382452D02*
X-3967548Y-16050000D01*
X-4850000Y-13550000D02*
X-4350000Y-14050000D01*
X-2080000Y-10800000D02*
X-2600000Y-11320000D01*
X-5020000Y-16040686D02*
X-5020000Y-16700000D01*
X-20000Y-21320000D02*
X3445Y-21320000D01*
X4800000Y-14970000D02*
X4800000Y-15190000D01*
X-250500Y-21470500D02*
X-500000Y-21720000D01*
X4800000Y-15452178D02*
X4602178Y-15650000D01*
X5775000Y-21297918D02*
X4872918Y-22200000D01*
X5810000Y-12740000D02*
X6170000Y-12740000D01*
X-2600000Y-19600000D02*
X-2700000Y-19700000D01*
X-2600000Y-11320000D02*
X-2600000Y-12415000D01*
X-3323911Y-22576089D02*
X-3647822Y-22900000D01*
X-5620000Y-18750500D02*
X-5620000Y-18400000D01*
X-3435000Y-13650000D02*
X-4015686Y-13650000D01*
X-5420000Y-12920000D02*
X-5925000Y-13425000D01*
D41*
X-2600000Y-6400000D02*
X-2600000Y-7100000D01*
D42*
X6490000Y-28190000D02*
X6490000Y-27200000D01*
X-5769500Y-18900000D02*
X-5620000Y-19049500D01*
X-5769500Y-18900000D02*
X-5500000Y-18900000D01*
X-5769500Y-18900000D02*
X-5620000Y-18750500D01*
X-2600000Y-19285000D02*
X-2600000Y-19600000D01*
X-3647822Y-22900000D02*
X-4325000Y-22900000D01*
X6500000Y-28200000D02*
X6490000Y-28190000D01*
X-4015686Y-13650000D02*
X-4745686Y-12920000D01*
D41*
X-2600000Y-6400000D02*
X-2600000Y-6200000D01*
X-5150000Y-7337500D02*
X-5150000Y-6775000D01*
D42*
X1270000Y-10190000D02*
X1120000Y-10340000D01*
X-3435000Y-15250000D02*
X-4229314Y-15250000D01*
X-4050000Y-15650000D02*
X-4700000Y-16300000D01*
X5770000Y-12780000D02*
X5810000Y-12740000D01*
X5978819Y-20321888D02*
X5978819Y-20709785D01*
X-5620000Y-19049500D02*
X-5620000Y-19500000D01*
X5406104Y-14970000D02*
X4800000Y-14970000D01*
X-5000000Y-13700000D02*
X-4850000Y-13550000D01*
X1000000Y-20323445D02*
X1000000Y-19285000D01*
X1120000Y-10800000D02*
X1000000Y-10920000D01*
X-5770000Y-17850000D02*
X-5620000Y-17700000D01*
X-2110000Y-10110000D02*
X-2110000Y-10770000D01*
D41*
X-2600000Y-6400000D02*
X-1900000Y-6400000D01*
D42*
X-5925000Y-13700000D02*
X-5000000Y-13700000D01*
X-5020000Y-16700000D02*
X-5620000Y-17300000D01*
X-5700000Y-18400000D02*
X-5620000Y-18400000D01*
D41*
X-2500000Y-7000000D02*
X-2600000Y-7100000D01*
D42*
X-420000Y-21720000D02*
X-20000Y-21320000D01*
X-5620000Y-17700000D02*
X-5620000Y-17300000D01*
X-5620000Y-18320000D02*
X-5620000Y-18400000D01*
D41*
X-3575000Y-5225000D02*
X-3575000Y-5200000D01*
D42*
X-250500Y-21400000D02*
X-250500Y-21470500D01*
X-4229314Y-15250000D02*
X-5020000Y-16040686D01*
X-5770000Y-18330000D02*
X-5700000Y-18400000D01*
D41*
X-5150000Y-6775000D02*
X-3575000Y-5200000D01*
D42*
X4800000Y-15190000D02*
X4800000Y-15452178D01*
X-5770000Y-17850000D02*
X-5770000Y-18330000D01*
X-4300000Y-17700000D02*
X-4300000Y-16382452D01*
X-6610000Y-12300000D02*
X-6610000Y-13015000D01*
D41*
X-2600000Y-6200000D02*
X-3575000Y-5225000D01*
D42*
X-5925000Y-13425000D02*
X-5925000Y-13700000D01*
D43*
X-9247033Y-19305785D02*
X-9247033Y-13137033D01*
X-6650000Y-6450000D02*
X-6650000Y-7250000D01*
D42*
X-1250000Y865165D02*
X-1065165Y1050000D01*
D43*
X-8210000Y-21550000D02*
X-8210000Y-20342818D01*
D42*
X1794206Y-1359891D02*
X1250000Y-815685D01*
D43*
X-8570000Y-23990000D02*
X-8570000Y-21910000D01*
X-5400000Y-4800000D02*
X-5400000Y-5200000D01*
D42*
X3300000Y-28500000D02*
X3050000Y-28500000D01*
D41*
X-2400000Y-28900000D02*
X-2800000Y-28500000D01*
D43*
X-8210000Y-20342818D02*
X-9247033Y-19305785D01*
X-6650000Y-10540000D02*
X-6650000Y-7250000D01*
D42*
X3050000Y-28500000D02*
X2400000Y-29150000D01*
D43*
X-5400000Y-5200000D02*
X-6650000Y-6450000D01*
X-7560000Y-25000000D02*
X-8570000Y-23990000D01*
D42*
X2200181Y-1359891D02*
X1794206Y-1359891D01*
D43*
X-8570000Y-21910000D02*
X-8210000Y-21550000D01*
D42*
X-1065165Y1050000D02*
X1100000Y1050000D01*
X1100000Y1050000D02*
X1250000Y900000D01*
D41*
X-2400000Y-29650000D02*
X-2400000Y-28900000D01*
D42*
X1250000Y900000D02*
X1250000Y0D01*
D43*
X-5135000Y-25000000D02*
X-7560000Y-25000000D01*
D41*
X-3710000Y-27910000D02*
X-3710000Y-26425000D01*
X-2800000Y-28500000D02*
X-3390000Y-27910000D01*
D43*
X-4800000Y-4200000D02*
X-5400000Y-4800000D01*
D42*
X1250000Y-815685D02*
X1250000Y0D01*
X-3710000Y-26425000D02*
X-3825000Y-26310000D01*
D43*
X-9247033Y-13137033D02*
X-6650000Y-10540000D01*
D42*
X2400000Y-29150000D02*
X2400000Y-29650000D01*
D41*
X-3390000Y-27910000D02*
X-3710000Y-27910000D01*
D43*
X-3825000Y-26310000D02*
X-5135000Y-25000000D01*
D42*
X-1250000Y0D02*
X-1250000Y865165D01*
X4450000Y-16450000D02*
X3435000Y-16450000D01*
X7680000Y-18430000D02*
X6600000Y-17350000D01*
X5100000Y-17100000D02*
X4450000Y-16450000D01*
X7680000Y-19600000D02*
X7680000Y-18430000D01*
X6530000Y-17100000D02*
X5100000Y-17100000D01*
X6600000Y-17350000D02*
X6600000Y-17170000D01*
X6600000Y-17170000D02*
X6530000Y-17100000D01*
X6390637Y-14710069D02*
X6270000Y-14830706D01*
X5620000Y-16050000D02*
X3435000Y-16050000D01*
X6390637Y-14529363D02*
X6390637Y-14710069D01*
X6270000Y-14830706D02*
X6270000Y-15400000D01*
X6720000Y-14200000D02*
X6390637Y-14529363D01*
X6270000Y-15400000D02*
X5620000Y-16050000D01*
X-6600000Y-21950000D02*
X-6600000Y-21175000D01*
X-6600000Y-21175000D02*
X-8500000Y-19275000D01*
X-8500000Y-16000000D02*
X-7400000Y-14900000D01*
X-8500000Y-19275000D02*
X-8500000Y-16000000D01*
X-5287500Y-21012500D02*
X-5287500Y-22886396D01*
X-6251104Y-23850000D02*
X-6600000Y-23850000D01*
X-5287500Y-22886396D02*
X-6251104Y-23850000D01*
X-5325000Y-20975000D02*
X-5287500Y-21012500D01*
X5170000Y-13028529D02*
X5521471Y-13380000D01*
X8400000Y-13700000D02*
X8400000Y-22300000D01*
X6200000Y-11560000D02*
X5580000Y-12180000D01*
X5530000Y-13380000D02*
X5650000Y-13500000D01*
X6200000Y-10490000D02*
X6200000Y-11560000D01*
X5650000Y-13500000D02*
X8200000Y-13500000D01*
X8400000Y-22300000D02*
X7550000Y-23150000D01*
X5580000Y-12180000D02*
X5521471Y-12180000D01*
X5170000Y-12531471D02*
X5170000Y-13028529D01*
X7550000Y-23150000D02*
X6737500Y-23150000D01*
X5521471Y-12180000D02*
X5170000Y-12531471D01*
X8200000Y-13500000D02*
X8400000Y-13700000D01*
X5521471Y-13380000D02*
X5530000Y-13380000D01*
X5700000Y-24100000D02*
X6500000Y-24900000D01*
X6500000Y-24900000D02*
X6500000Y-26040000D01*
X6500000Y-26040000D02*
X6490000Y-26050000D01*
X5700000Y-21938604D02*
X5700000Y-24100000D01*
X6388604Y-21250000D02*
X5700000Y-21938604D01*
X6737500Y-21250000D02*
X6388604Y-21250000D01*
X1700000Y-22710000D02*
X1700000Y-23940000D01*
X2800000Y-22710000D02*
X2900000Y-22810000D01*
X2110000Y-25590000D02*
X1700000Y-25590000D01*
X2900000Y-24800000D02*
X2110000Y-25590000D01*
X2900000Y-22810000D02*
X2900000Y-24800000D01*
X250000Y-835000D02*
X250000Y0D01*
X453710Y-1644849D02*
X453710Y-1038710D01*
X453710Y-1038710D02*
X250000Y-835000D01*
X500000Y-1691139D02*
X500000Y-2700000D01*
X453710Y-1644849D02*
X500000Y-1691139D01*
X-300000Y-1900000D02*
X0Y-2200000D01*
X-300000Y-1750500D02*
X-300000Y-1900000D01*
X-350500Y-1700000D02*
X-250000Y-1599500D01*
X-350500Y-1700000D02*
X-300000Y-1750500D01*
X0Y-2200000D02*
X0Y-2700000D01*
X-250000Y-1599500D02*
X-250000Y0D01*
X-8050000Y-17060000D02*
X-8050000Y-16150000D01*
X813966Y-4613966D02*
X500000Y-4300000D01*
X-7900000Y-17210000D02*
X-8050000Y-17060000D01*
X-8050000Y-16150000D02*
X-7400000Y-15500000D01*
X-7010000Y-15500000D02*
X-6610000Y-15100000D01*
X500000Y-4300000D02*
X500000Y-4100000D01*
X813966Y-5670000D02*
X813966Y-4613966D01*
X-7400000Y-15500000D02*
X-7010000Y-15500000D01*
X-6890000Y-16480000D02*
X-6610000Y-16200000D01*
X0Y-5085526D02*
X0Y-4100000D01*
X114474Y-5200000D02*
X0Y-5085526D01*
X-7450500Y-16480000D02*
X-6890000Y-16480000D01*
X750000Y-27449119D02*
X750000Y-29650000D01*
X-250000Y-28287444D02*
X-250000Y-29650000D01*
X-350000Y-23030000D02*
X-350000Y-26349119D01*
X-480000Y-22900000D02*
X-350000Y-23030000D01*
X-536944Y-28000500D02*
X-250000Y-28287444D01*
X-350000Y-26349119D02*
X750000Y-27449119D01*
X-854406Y-26923008D02*
X-341797Y-26923008D01*
X250000Y-27514805D02*
X250000Y-29650000D01*
X-341797Y-26923008D02*
X250000Y-27514805D01*
X-1136944Y-27751971D02*
X-1136944Y-28277818D01*
X-854406Y-27469433D02*
X-1136944Y-27751971D01*
X-854406Y-26923008D02*
X-854406Y-27469433D01*
X-1136944Y-28277818D02*
X-750000Y-28664762D01*
X-750000Y-28664762D02*
X-750000Y-29650000D01*
X-1669670Y-2359670D02*
X-1800000Y-2490000D01*
X-1669670Y-1700000D02*
X-750000Y-780330D01*
X-750000Y-780330D02*
X-750000Y0D01*
X-1669670Y-1700000D02*
X-1669670Y-2359670D01*
X1170000Y-2000000D02*
X1310000Y-2000000D01*
X1310000Y-2000000D02*
X1800000Y-2490000D01*
X-3600000Y-1000000D02*
X-3600000Y-1690000D01*
X-3600000Y50000D02*
X-3600000Y-1000000D01*
X-1300000Y-28810000D02*
X-1300000Y-29600000D01*
X-1800000Y-28310000D02*
X-1300000Y-28810000D01*
X-1300000Y-29600000D02*
X-1250000Y-29650000D01*
X2200000Y-28410000D02*
X1750000Y-28860000D01*
X1750000Y-28860000D02*
X1750000Y-29650000D01*
X-3435000Y-18759891D02*
X-3435000Y-18450000D01*
X-3304891Y-18890000D02*
X-3435000Y-18759891D01*
X-4570503Y-14450000D02*
X-5220503Y-15100000D01*
X-5220503Y-15100000D02*
X-5590000Y-15100000D01*
X-3435000Y-14450000D02*
X-4570503Y-14450000D01*
X-5590000Y-16035183D02*
X-4404817Y-14850000D01*
X-4404817Y-14850000D02*
X-3435000Y-14850000D01*
X-5590000Y-16200000D02*
X-5590000Y-16035183D01*
X-3850000Y-13250000D02*
X-3435000Y-13250000D01*
X-4800000Y-12300000D02*
X-3850000Y-13250000D01*
X-5590000Y-12300000D02*
X-4800000Y-12300000D01*
X9250000Y-9530000D02*
X9250000Y-9100000D01*
X7190000Y-12740000D02*
X7190000Y-11590000D01*
X7190000Y-11590000D02*
X9250000Y-9530000D01*
X7510000Y-27200000D02*
X7510000Y-26050000D01*
X9250000Y-27100000D02*
X7610000Y-27100000D01*
X7610000Y-27100000D02*
X7510000Y-27200000D01*
X2412318Y-20038067D02*
X2200000Y-19825749D01*
X3068920Y-20038067D02*
X1700000Y-21406987D01*
X3068920Y-20038067D02*
X2412318Y-20038067D01*
X2200000Y-19825749D02*
X2200000Y-19285000D01*
X1700000Y-21406987D02*
X1700000Y-21690000D01*
X4214183Y-20014183D02*
X2800000Y-21428366D01*
X3485000Y-19285000D02*
X2600000Y-19285000D01*
X2800000Y-21428366D02*
X2800000Y-21690000D01*
X4214183Y-20014183D02*
X3485000Y-19285000D01*
X3967548Y-14050000D02*
X3435000Y-14050000D01*
X3125000Y-11525000D02*
X4155000Y-12555000D01*
X4155000Y-12555000D02*
X4155000Y-13862548D01*
X7075000Y-6450000D02*
X3125000Y-10400000D01*
X4155000Y-13862548D02*
X3967548Y-14050000D01*
X3125000Y-10400000D02*
X3125000Y-11525000D01*
X92073Y-20100000D02*
X-800000Y-20100000D01*
X200000Y-19992073D02*
X92073Y-20100000D01*
X-2650000Y-21950000D02*
X-4325000Y-21950000D01*
X200000Y-19285000D02*
X200000Y-19992073D01*
X-800000Y-20100000D02*
X-2650000Y-21950000D01*
X257758Y-20500000D02*
X-400000Y-20500000D01*
X-3750000Y-23850000D02*
X-4325000Y-23850000D01*
X600000Y-20157759D02*
X257758Y-20500000D01*
X600000Y-19285000D02*
X600000Y-20157759D01*
X-400000Y-20500000D02*
X-3750000Y-23850000D01*
X3700000Y-26200000D02*
X3700000Y-23912500D01*
X3700000Y-23912500D02*
X4462500Y-23150000D01*
X600000Y-22534314D02*
X150000Y-22984314D01*
X600000Y-21289131D02*
X600000Y-22534314D01*
X150000Y-22984314D02*
X150000Y-26283433D01*
X1400000Y-19285000D02*
X1400000Y-20489131D01*
X3085000Y-26815000D02*
X3700000Y-26200000D01*
X681567Y-26815000D02*
X3085000Y-26815000D01*
X1400000Y-20489131D02*
X600000Y-21289131D01*
X150000Y-26283433D02*
X681567Y-26815000D01*
X4113604Y-21250000D02*
X3400000Y-21963604D01*
X3400000Y-22374817D02*
X3420000Y-22394817D01*
X3300000Y-23746815D02*
X3300000Y-25800000D01*
X3420000Y-22394817D02*
X3420000Y-23626815D01*
X3300000Y-25800000D02*
X2685000Y-26415000D01*
X550000Y-26117747D02*
X550000Y-23150000D01*
X3400000Y-21963604D02*
X3400000Y-22374817D01*
X3420000Y-23626815D02*
X3300000Y-23746815D01*
X550000Y-23150000D02*
X1000000Y-22700000D01*
X847253Y-26415000D02*
X550000Y-26117747D01*
X4462500Y-21250000D02*
X4113604Y-21250000D01*
X1800000Y-20654817D02*
X1800000Y-19285000D01*
X1000000Y-22700000D02*
X1000000Y-21454817D01*
X1000000Y-21454817D02*
X1800000Y-20654817D01*
X2685000Y-26415000D02*
X847253Y-26415000D01*
X5220000Y-14026406D02*
X5177909Y-14026406D01*
X4354315Y-14850000D02*
X3435000Y-14850000D01*
X5177909Y-14026406D02*
X4354315Y-14850000D01*
X4510000Y-11880000D02*
X4555000Y-11925000D01*
X4555000Y-14028233D02*
X4133234Y-14450000D01*
X4555000Y-11925000D02*
X4555000Y-14028233D01*
X4133234Y-14450000D02*
X3435000Y-14450000D01*
X-2900000Y-16450000D02*
X-3435000Y-16450000D01*
X-2260000Y-14930000D02*
X-2690000Y-15360000D01*
X-2690000Y-15360000D02*
X-2690000Y-16240000D01*
X-2690000Y-16240000D02*
X-2900000Y-16450000D01*
X-2199509Y-16587576D02*
X-2248230Y-16587576D01*
X-2248230Y-16587576D02*
X-2510654Y-16850000D01*
X-2510654Y-16850000D02*
X-3435000Y-16850000D01*
X-2264653Y-17388056D02*
X-2402709Y-17250000D01*
X-2402709Y-17250000D02*
X-3435000Y-17250000D01*
X-2246275Y-17388056D02*
X-2264653Y-17388056D01*
X2034658Y-17925818D02*
X1938779Y-18021697D01*
X-2715000Y-17845000D02*
X-2715000Y-17837452D01*
X-2902452Y-17650000D02*
X-3435000Y-17650000D01*
X1938779Y-18021697D02*
X-2538303Y-18021697D01*
X-2715000Y-17837452D02*
X-2902452Y-17650000D01*
X-2538303Y-18021697D02*
X-2715000Y-17845000D01*
X-4215496Y-18883700D02*
X-4215496Y-18181182D01*
X-4084314Y-18050000D02*
X-3435000Y-18050000D01*
X-4215496Y-18181182D02*
X-4084314Y-18050000D01*
M02*
